<svg width="455" height="240" viewBox="0 0 455 240" fill="none" xmlns="http://www.w3.org/2000/svg">
<rect width="455" height="240" fill="black"/>
<g clip-path="url(#clip0_13_60)">
<path d="M147.753 120.097C148.651 120.531 149.711 120.515 150.577 120.032L167.013 111.014C167.687 110.643 168.104 109.935 168.088 109.162C168.072 108.389 167.623 107.696 166.932 107.358L150.449 99.3059C149.647 98.9033 148.7 98.8872 147.881 99.2414L129.295 107.31C129.167 107.358 129.054 107.422 128.942 107.503C128.637 107.712 128.396 108.002 128.236 108.356C128.236 108.389 128.204 108.421 128.188 108.453C128.043 108.807 127.08 111.304 127 113.22C126.904 115.056 127.562 117.343 127.947 118.502C127.61 119.629 127 121.868 127 123.639C127 125.975 128.043 129.115 128.172 129.453C128.348 129.968 128.733 130.403 129.215 130.645L147.753 139.679C148.17 139.889 148.635 139.985 149.101 139.985C149.614 139.985 150.128 139.857 150.577 139.615L167.013 130.597C168.008 130.049 168.377 128.793 167.831 127.794C167.286 126.796 166.034 126.426 165.039 126.973L149.069 135.734L131.799 127.311C131.494 126.264 131.109 124.686 131.109 123.623C131.109 122.995 131.253 122.174 131.43 121.401L147.753 129.357C148.651 129.791 149.711 129.775 150.577 129.292L167.013 120.274C168.008 119.726 168.377 118.47 167.831 117.472C167.286 116.473 166.034 116.103 165.039 116.65L149.069 125.411L131.783 117.004C131.43 115.893 131.061 114.363 131.109 113.429C131.125 113.059 131.221 112.592 131.349 112.093L147.753 120.097Z" fill="white"/>
<path d="M192.902 121.256H202.403V115.781H192.902V113.14H203.719V107.406H185.454V129.953H204.137V124.219H192.902V121.256Z" fill="white"/>
<path d="M236.558 112.334H229.303V129.953H236.558V112.334Z" fill="white"/>
<path d="M222.787 113.14C221.503 112.383 220.09 112.012 218.55 112.012C217.009 112.012 215.645 112.334 214.666 112.978C214.312 113.204 214.024 113.494 213.735 113.816V112.334H206.833V136.201H214.088V128.761C214.296 128.97 214.521 129.147 214.762 129.308C215.773 129.952 217.025 130.274 218.55 130.274C220.074 130.274 221.503 129.904 222.787 129.179C224.071 128.455 225.098 127.408 225.868 126.055C226.639 124.686 227.024 123.044 227.024 121.159C227.024 119.275 226.639 117.649 225.868 116.296C225.098 114.927 224.071 113.864 222.787 113.14ZM219.288 123.06C219.031 123.575 218.694 123.962 218.261 124.219C217.827 124.477 217.346 124.606 216.816 124.606C216.287 124.606 215.805 124.477 215.372 124.219C214.938 123.962 214.601 123.575 214.345 123.06C214.088 122.544 213.959 121.916 213.959 121.159C213.959 120.403 214.088 119.742 214.345 119.227C214.601 118.712 214.938 118.325 215.372 118.067C215.805 117.81 216.287 117.681 216.816 117.681C217.346 117.681 217.827 117.81 218.261 118.067C218.694 118.325 219.031 118.712 219.288 119.227C219.545 119.742 219.673 120.386 219.673 121.159C219.673 121.932 219.545 122.544 219.288 123.06Z" fill="white"/>
<path d="M284.13 112.012C282.766 112.012 281.354 112.189 279.925 112.528C278.497 112.866 277.261 113.365 276.234 114.009L278.545 118.808C279.123 118.373 279.813 118.051 280.631 117.81C281.45 117.552 282.252 117.423 283.039 117.423C284.211 117.423 285.061 117.649 285.575 118.1C285.976 118.438 286.233 118.905 286.329 119.485H283.424C281.61 119.485 280.102 119.694 278.898 120.097C277.726 120.499 276.844 121.111 276.266 121.9C275.688 122.689 275.399 123.656 275.399 124.799C275.399 125.814 275.64 126.732 276.137 127.569C276.635 128.39 277.357 129.034 278.32 129.534C279.283 130.033 280.487 130.274 281.915 130.274C283.44 130.274 284.644 129.952 285.543 129.308C286.137 128.89 286.57 128.31 286.891 127.601V129.952H293.632V120.483C293.632 117.536 292.797 115.394 291.128 114.041C289.475 112.689 287.148 112.012 284.13 112.012ZM285.446 125.508C285.045 125.765 284.596 125.894 284.098 125.894C283.569 125.894 283.135 125.765 282.814 125.508C282.509 125.234 282.365 124.88 282.365 124.477C282.365 123.978 282.541 123.623 282.878 123.382C283.248 123.124 283.809 122.995 284.58 122.995H286.377V124.219C286.185 124.799 285.88 125.234 285.446 125.508Z" fill="white"/>
<path d="M326.069 115.394C325.475 114.235 324.641 113.381 323.565 112.85C322.522 112.286 321.334 112.012 320.002 112.012C318.381 112.012 316.937 112.431 315.701 113.268C315.107 113.655 314.593 114.138 314.144 114.686C313.759 114.106 313.293 113.607 312.715 113.236C311.544 112.415 310.18 112.012 308.639 112.012C307.274 112.012 306.023 112.35 304.915 113.011C304.45 113.268 304.048 113.623 303.663 113.993V112.334H296.762V129.952H304.016V121.353C304.016 120.564 304.113 119.936 304.305 119.485C304.514 119.018 304.803 118.663 305.14 118.454C305.477 118.245 305.862 118.132 306.295 118.132C306.921 118.132 307.403 118.373 307.74 118.84C308.077 119.291 308.254 120.064 308.254 121.159V129.952H315.508V121.353C315.508 120.564 315.604 119.936 315.797 119.485C316.006 119.018 316.295 118.663 316.632 118.454C316.969 118.245 317.354 118.132 317.787 118.132C318.365 118.132 318.831 118.373 319.2 118.84C319.569 119.291 319.745 120.064 319.745 121.159V129.952H327V119.903C327 118.051 326.695 116.554 326.069 115.394Z" fill="white"/>
<path d="M252.479 114.347C252.078 113.751 251.597 113.252 251.003 112.898C250.04 112.302 248.804 111.996 247.279 111.996C245.754 111.996 244.422 112.334 243.138 113.027C241.854 113.719 240.811 114.686 240.025 115.958C239.238 117.23 238.837 118.728 238.837 120.467C238.837 122.206 239.238 123.704 240.025 124.976C240.811 126.248 241.854 127.231 243.138 127.939C244.422 128.632 245.803 128.97 247.279 128.97C248.756 128.97 250.04 128.664 251.003 128.068C251.436 127.794 251.789 127.456 252.126 127.07V127.424C252.126 128.6 251.805 129.501 251.163 130.13C250.521 130.774 249.446 131.096 247.953 131.096C247.006 131.096 246.011 130.935 244.936 130.613C243.893 130.307 243.026 129.888 242.336 129.357L239.896 134.317C240.988 135.041 242.288 135.589 243.812 135.959C245.337 136.33 246.958 136.507 248.692 136.507C252.046 136.507 254.678 135.686 256.556 134.027C258.434 132.368 259.381 129.84 259.381 126.426V112.318H252.479V114.347ZM250.746 122.963C250.297 123.205 249.783 123.317 249.205 123.317C248.627 123.317 248.13 123.205 247.664 122.963C247.215 122.722 246.846 122.399 246.573 121.965C246.316 121.53 246.188 121.047 246.188 120.483C246.188 119.919 246.316 119.404 246.573 119.001C246.846 118.567 247.215 118.245 247.664 118.035C248.13 117.794 248.644 117.681 249.205 117.681C249.767 117.681 250.297 117.794 250.746 118.035C251.195 118.245 251.549 118.567 251.805 119.001C252.062 119.404 252.191 119.903 252.191 120.483C252.191 121.063 252.062 121.53 251.805 121.965C251.549 122.399 251.195 122.722 250.746 122.963Z" fill="white"/>
<path d="M269.493 114.251V112.334H262.591V129.952H269.846V122.126C269.846 120.725 270.183 119.758 270.873 119.195C271.579 118.615 272.478 118.325 273.569 118.325C273.826 118.325 274.067 118.325 274.308 118.357C274.564 118.373 274.853 118.406 275.174 118.454V112.012C273.521 112.012 272.109 112.35 270.937 113.043C270.375 113.365 269.91 113.768 269.493 114.251Z" fill="white"/>
<path d="M232.931 103.509C231.598 103.509 230.539 103.864 229.753 104.572C228.966 105.281 228.565 106.166 228.565 107.213C228.565 108.26 228.966 109.146 229.753 109.854C230.539 110.563 231.598 110.917 232.931 110.917C234.263 110.917 235.322 110.563 236.108 109.854C236.895 109.13 237.296 108.196 237.296 107.084C237.296 106.038 236.895 105.168 236.108 104.508C235.322 103.847 234.263 103.509 232.931 103.509Z" fill="white"/>
</g>
<defs>
<clipPath id="clip0_13_60">
<rect width="200" height="41.0016" fill="white" transform="translate(127 99)"/>
</clipPath>
</defs>
</svg>
