<svg width="455" height="240" viewBox="0 0 455 240" fill="none" xmlns="http://www.w3.org/2000/svg">
<rect width="455" height="240" fill="#F0FFF3"/>
<g clip-path="url(#clip0_13_21)">
<path d="M428 0H28V240H428V0Z" fill="#F0FFF3"/>
<path d="M295.528 114.4C297.102 114.4 298.475 114.72 299.648 115.36C300.848 116 301.768 116.84 302.408 117.88V114.72H309.248V137C309.248 139.053 308.835 140.907 308.008 142.56C307.208 144.24 305.968 145.573 304.288 146.56C302.635 147.547 300.568 148.04 298.088 148.04C294.782 148.04 292.102 147.253 290.048 145.68C287.995 144.133 286.822 142.027 286.528 139.36H293.288C293.502 140.213 294.008 140.88 294.808 141.36C295.608 141.867 296.595 142.12 297.768 142.12C299.182 142.12 300.302 141.707 301.128 140.88C301.982 140.08 302.408 138.787 302.408 137V133.84C301.742 134.88 300.822 135.733 299.648 136.4C298.475 137.04 297.102 137.36 295.528 137.36C293.688 137.36 292.022 136.893 290.528 135.96C289.035 135 287.848 133.653 286.968 131.92C286.115 130.16 285.688 128.133 285.688 125.84C285.688 123.547 286.115 121.533 286.968 119.8C287.848 118.067 289.035 116.733 290.528 115.8C292.022 114.867 293.688 114.4 295.528 114.4ZM302.408 125.88C302.408 124.173 301.928 122.827 300.968 121.84C300.035 120.853 298.888 120.36 297.528 120.36C296.168 120.36 295.008 120.853 294.048 121.84C293.115 122.8 292.648 124.133 292.648 125.84C292.648 127.547 293.115 128.907 294.048 129.92C295.008 130.907 296.168 131.4 297.528 131.4C298.888 131.4 300.035 130.907 300.968 129.92C301.928 128.933 302.408 127.587 302.408 125.88Z" fill="black"/>
<path d="M275.295 114.48C277.909 114.48 279.989 115.333 281.535 117.04C283.109 118.72 283.895 121.04 283.895 124V137.04H277.095V124.92C277.095 123.427 276.709 122.267 275.935 121.44C275.162 120.613 274.122 120.2 272.815 120.2C271.509 120.2 270.469 120.613 269.695 121.44C268.922 122.267 268.535 123.427 268.535 124.92V137.04H261.695V114.72H268.535V117.68C269.229 116.693 270.162 115.92 271.335 115.36C272.509 114.773 273.829 114.48 275.295 114.48Z" fill="black"/>
<path d="M254.938 112.4C253.738 112.4 252.752 112.053 251.978 111.36C251.232 110.64 250.858 109.76 250.858 108.72C250.858 107.653 251.232 106.773 251.978 106.08C252.752 105.36 253.738 105 254.938 105C256.112 105 257.072 105.36 257.818 106.08C258.592 106.773 258.978 107.653 258.978 108.72C258.978 109.76 258.592 110.64 257.818 111.36C257.072 112.053 256.112 112.4 254.938 112.4ZM258.338 114.72V137.04H251.498V114.72H258.338Z" fill="black"/>
<path d="M242.012 137.04L235.212 127.68V137.04H228.372V107.44H235.212V123.8L241.972 114.72H250.412L241.132 125.92L250.492 137.04H242.012Z" fill="black"/>
<path d="M216.747 137.36C214.801 137.36 213.067 137.027 211.547 136.36C210.027 135.693 208.827 134.787 207.947 133.64C207.067 132.467 206.574 131.16 206.467 129.72H213.227C213.307 130.493 213.667 131.12 214.307 131.6C214.947 132.08 215.734 132.32 216.667 132.32C217.521 132.32 218.174 132.16 218.627 131.84C219.107 131.493 219.347 131.053 219.347 130.52C219.347 129.88 219.014 129.413 218.347 129.12C217.681 128.8 216.601 128.453 215.107 128.08C213.507 127.707 212.174 127.32 211.107 126.92C210.041 126.493 209.121 125.84 208.347 124.96C207.574 124.053 207.187 122.84 207.187 121.32C207.187 120.04 207.534 118.88 208.227 117.84C208.947 116.773 209.987 115.933 211.347 115.32C212.734 114.707 214.374 114.4 216.267 114.4C219.067 114.4 221.267 115.093 222.867 116.48C224.494 117.867 225.427 119.707 225.667 122H219.347C219.241 121.227 218.894 120.613 218.307 120.16C217.747 119.707 217.001 119.48 216.067 119.48C215.267 119.48 214.654 119.64 214.227 119.96C213.801 120.253 213.587 120.667 213.587 121.2C213.587 121.84 213.921 122.32 214.587 122.64C215.281 122.96 216.347 123.28 217.787 123.6C219.441 124.027 220.787 124.453 221.827 124.88C222.867 125.28 223.774 125.947 224.547 126.88C225.347 127.787 225.761 129.013 225.787 130.56C225.787 131.867 225.414 133.04 224.667 134.08C223.947 135.093 222.894 135.893 221.507 136.48C220.147 137.067 218.561 137.36 216.747 137.36Z" fill="black"/>
<path d="M180.759 125.84C180.759 123.547 181.185 121.533 182.039 119.8C182.919 118.067 184.105 116.733 185.599 115.8C187.092 114.867 188.759 114.4 190.599 114.4C192.172 114.4 193.545 114.72 194.719 115.36C195.919 116 196.839 116.84 197.479 117.88V114.72H204.319V137.04H197.479V133.88C196.812 134.92 195.879 135.76 194.679 136.4C193.505 137.04 192.132 137.36 190.559 137.36C188.745 137.36 187.092 136.893 185.599 135.96C184.105 135 182.919 133.653 182.039 131.92C181.185 130.16 180.759 128.133 180.759 125.84ZM197.479 125.88C197.479 124.173 196.999 122.827 196.039 121.84C195.105 120.853 193.959 120.36 192.599 120.36C191.239 120.36 190.079 120.853 189.119 121.84C188.185 122.8 187.719 124.133 187.719 125.84C187.719 127.547 188.185 128.907 189.119 129.92C190.079 130.907 191.239 131.4 192.599 131.4C193.959 131.4 195.105 130.907 196.039 129.92C196.999 128.933 197.479 127.587 197.479 125.88Z" fill="black"/>
<path d="M178.8 108.96V137.04H171.96V120.2L165.68 137.04H160.16L153.84 120.16V137.04H147V108.96H155.08L162.96 128.4L170.76 108.96H178.8Z" fill="black"/>
<path d="M329 123H128V131H329V123Z" fill="#73FF83" fill-opacity="0.82"/>
<path fill-rule="evenodd" clip-rule="evenodd" d="M345.696 97.1727C347.536 97.9171 347.395 100.557 345.487 101.104L335.855 103.862L331.456 112.831C330.584 114.608 327.949 114.288 327.533 112.353L323.048 91.5231C322.697 89.8883 324.324 88.5277 325.88 89.1568L345.696 97.1727Z" fill="url(#paint0_linear_13_21)"/>
</g>
<defs>
<linearGradient id="paint0_linear_13_21" x1="335" y1="89" x2="347" y2="124" gradientUnits="userSpaceOnUse">
<stop stop-color="#89FF97"/>
<stop offset="1" stop-color="#13D42A"/>
</linearGradient>
<clipPath id="clip0_13_21">
<rect width="400" height="240" fill="white" transform="translate(28)"/>
</clipPath>
</defs>
</svg>
