<svg width="455" height="240" viewBox="0 0 455 240" fill="none" xmlns="http://www.w3.org/2000/svg">
<rect width="455" height="240" fill="black"/>
<path d="M341.083 129.228C341.083 129.593 341.231 129.844 341.528 129.981C341.825 130.095 342.247 130.198 342.795 130.289L343 130.323V132.651H335.401L335.23 128.543L334.888 128.851V110.778C334.888 110.55 334.819 110.368 334.682 110.231C334.568 110.094 334.386 109.98 334.135 109.888C333.884 109.797 333.564 109.717 333.176 109.649L332.868 109.58V107.219H341.083V129.228ZM329.719 114.475C330.769 114.475 331.682 114.646 332.457 114.989C333.256 115.308 333.963 115.81 334.58 116.495C335.196 117.156 335.721 117.989 336.154 118.993V122.245C335.606 121.196 335.093 120.34 334.614 119.678C334.157 118.993 333.667 118.491 333.142 118.172C332.64 117.83 332.058 117.658 331.396 117.658C330.78 117.658 330.255 117.807 329.822 118.103C329.388 118.377 329.023 118.788 328.726 119.336C328.43 119.861 328.213 120.511 328.076 121.287C327.939 122.063 327.871 122.941 327.871 123.922C327.871 124.881 327.928 125.725 328.042 126.455C328.179 127.186 328.384 127.802 328.658 128.304C328.932 128.806 329.274 129.182 329.685 129.433C330.096 129.684 330.586 129.81 331.157 129.81C331.818 129.81 332.4 129.639 332.902 129.296C333.427 128.931 333.941 128.372 334.443 127.619C334.968 126.866 335.538 125.908 336.154 124.744V127.962C335.606 129.057 335.025 129.981 334.408 130.734C333.792 131.487 333.085 132.058 332.286 132.446C331.488 132.811 330.541 132.993 329.445 132.993C327.825 132.993 326.422 132.617 325.235 131.864C324.048 131.111 323.136 130.061 322.497 128.715C321.858 127.345 321.538 125.748 321.538 123.922C321.538 122.074 321.88 120.442 322.565 119.028C323.25 117.613 324.208 116.506 325.44 115.707C326.673 114.886 328.099 114.475 329.719 114.475Z" fill="white"/>
<path d="M313.128 121.903V124.059C312.284 124.173 311.531 124.322 310.869 124.504C310.23 124.687 309.682 124.904 309.226 125.155C308.77 125.383 308.393 125.645 308.096 125.942C307.823 126.216 307.617 126.535 307.48 126.9C307.366 127.243 307.309 127.619 307.309 128.03C307.309 128.555 307.389 128.988 307.549 129.331C307.731 129.673 307.982 129.935 308.302 130.118C308.644 130.278 309.032 130.358 309.466 130.358C309.99 130.358 310.47 130.221 310.903 129.947C311.337 129.673 311.736 129.274 312.101 128.749C312.466 128.224 312.809 127.596 313.128 126.866L313.197 129.16C312.831 130.004 312.375 130.711 311.827 131.282C311.28 131.852 310.629 132.286 309.876 132.582C309.146 132.856 308.29 132.993 307.309 132.993C306.1 132.993 305.061 132.822 304.194 132.48C303.35 132.137 302.7 131.613 302.243 130.905C301.787 130.198 301.559 129.319 301.559 128.27C301.559 127.311 301.787 126.49 302.243 125.805C302.722 125.12 303.441 124.527 304.4 124.025C305.358 123.523 306.556 123.101 307.994 122.759C309.454 122.416 311.166 122.131 313.128 121.903ZM312.957 132.651L312.82 129.125L312.478 129.16V119.712C312.478 119.119 312.386 118.64 312.204 118.275C312.021 117.887 311.736 117.613 311.348 117.453C310.983 117.27 310.492 117.179 309.876 117.179C308.986 117.179 308.245 117.35 307.651 117.693C307.058 118.012 306.624 118.4 306.351 118.856C306.168 118.674 306.054 118.48 306.008 118.275C305.986 118.069 306.031 117.875 306.145 117.693C306.259 117.487 306.431 117.316 306.659 117.179C306.91 117.042 307.218 116.962 307.583 116.94V120.636H302.688V116.7C303.03 116.449 303.544 116.152 304.228 115.81C304.913 115.445 305.78 115.137 306.83 114.886C307.88 114.612 309.112 114.475 310.527 114.475C311.69 114.475 312.763 114.589 313.744 114.817C314.725 115.046 315.57 115.399 316.277 115.879C316.985 116.358 317.532 116.974 317.92 117.727C318.308 118.48 318.502 119.381 318.502 120.431V129.228C318.502 129.456 318.571 129.639 318.707 129.776C318.844 129.913 319.038 130.015 319.289 130.084C319.54 130.152 319.848 130.221 320.214 130.289L320.385 130.323V132.651H312.957Z" fill="white"/>
<path d="M299.764 123.751C299.764 125.577 299.353 127.197 298.531 128.612C297.733 130.004 296.58 131.088 295.074 131.864C293.591 132.639 291.811 133.027 289.735 133.027C287.681 133.027 285.901 132.639 284.395 131.864C282.889 131.088 281.725 130.004 280.903 128.612C280.105 127.197 279.705 125.577 279.705 123.751C279.705 122.359 279.934 121.093 280.39 119.952C280.846 118.811 281.508 117.83 282.375 117.008C283.265 116.187 284.326 115.559 285.559 115.125C286.791 114.692 288.183 114.475 289.735 114.475C291.286 114.475 292.678 114.692 293.911 115.125C295.143 115.559 296.192 116.187 297.06 117.008C297.95 117.83 298.623 118.811 299.079 119.952C299.536 121.093 299.764 122.359 299.764 123.751ZM286.038 123.751C286.038 125.189 286.175 126.398 286.449 127.38C286.722 128.361 287.133 129.102 287.681 129.604C288.228 130.084 288.913 130.323 289.735 130.323C290.556 130.323 291.241 130.084 291.788 129.604C292.336 129.102 292.747 128.361 293.021 127.38C293.294 126.398 293.431 125.189 293.431 123.751C293.431 122.268 293.294 121.059 293.021 120.123C292.747 119.165 292.336 118.446 291.788 117.966C291.241 117.487 290.556 117.248 289.735 117.248C288.913 117.248 288.228 117.487 287.681 117.966C287.133 118.446 286.722 119.165 286.449 120.123C286.175 121.059 286.038 122.268 286.038 123.751Z" fill="white"/>
<path d="M266.209 121.697L272.336 120.944L276.512 129.091C276.695 129.41 276.877 129.65 277.06 129.81C277.242 129.969 277.448 130.084 277.676 130.152C277.904 130.198 278.155 130.22 278.429 130.22H278.737V132.651H271.138L266.209 121.697ZM263.779 129.878C263.779 129.947 263.836 130.004 263.95 130.049C264.064 130.072 264.212 130.106 264.395 130.152C264.577 130.175 264.783 130.198 265.011 130.22C265.239 130.22 265.467 130.22 265.696 130.22H266.072V132.651H254.845V130.22H255.187C255.78 130.22 256.271 130.141 256.659 129.981C257.047 129.821 257.241 129.49 257.241 128.988V112.01C257.241 111.508 257.047 111.178 256.659 111.018C256.271 110.858 255.78 110.778 255.187 110.778H254.845V108.348H267.51C269.495 108.348 271.172 108.633 272.541 109.204C273.933 109.751 274.995 110.539 275.725 111.565C276.455 112.592 276.82 113.825 276.82 115.262C276.82 116.609 276.501 117.795 275.862 118.822C275.246 119.849 274.321 120.67 273.089 121.287C271.88 121.903 270.374 122.291 268.571 122.45C268.434 122.496 268.274 122.542 268.092 122.587C267.932 122.61 267.772 122.644 267.612 122.69C267.453 122.713 267.281 122.736 267.099 122.758H263.06V120.123H266.209C267.099 120.123 267.829 119.929 268.4 119.541C268.97 119.153 269.392 118.605 269.666 117.898C269.94 117.168 270.077 116.312 270.077 115.331C270.077 114.441 269.94 113.676 269.666 113.037C269.392 112.376 268.982 111.874 268.434 111.531C267.886 111.189 267.202 111.018 266.38 111.018H263.779V129.878Z" fill="white"/>
<path d="M245.054 132.651H234.374V130.46H234.511C234.717 130.46 234.934 130.449 235.162 130.426C235.413 130.403 235.618 130.369 235.778 130.323C235.96 130.278 236.052 130.221 236.052 130.152L231.568 123.683V122.964L237.558 117.624C237.558 117.442 237.41 117.316 237.113 117.248C236.839 117.156 236.508 117.099 236.12 117.077C235.732 117.031 235.379 117.008 235.059 117.008H234.785V114.817H243.822V117.008H243.651C243.194 117.008 242.761 117.065 242.35 117.179C241.962 117.293 241.597 117.453 241.255 117.658C240.912 117.864 240.57 118.126 240.228 118.446L234.717 123.409L236.018 120.568L242.35 129.262C242.578 129.582 242.829 129.833 243.103 130.015C243.377 130.175 243.662 130.289 243.959 130.358C244.278 130.426 244.609 130.46 244.951 130.46H245.054V132.651ZM230.712 107.219V130.152C230.712 130.221 230.803 130.278 230.986 130.323C231.168 130.369 231.374 130.403 231.602 130.426C231.853 130.449 232.07 130.46 232.252 130.46H232.389V132.651H222.634V130.46H222.702C223.067 130.46 223.387 130.426 223.661 130.358C223.935 130.266 224.151 130.129 224.311 129.947C224.471 129.764 224.551 129.513 224.551 129.194V110.778C224.551 110.55 224.494 110.368 224.38 110.231C224.265 110.094 224.083 109.98 223.832 109.888C223.604 109.797 223.296 109.717 222.908 109.649L222.634 109.58V107.219H230.712Z" fill="white"/>
<path d="M214.18 130.186C214.978 130.186 215.674 130.004 216.268 129.639C216.884 129.274 217.409 128.829 217.842 128.304C218.276 127.756 218.652 127.208 218.972 126.661L221.128 128.201C220.649 129.137 220.056 129.97 219.348 130.7C218.641 131.43 217.785 132.001 216.781 132.411C215.777 132.799 214.591 132.993 213.221 132.993C211.259 132.993 209.525 132.628 208.018 131.898C206.512 131.168 205.337 130.107 204.493 128.715C203.649 127.323 203.226 125.657 203.226 123.717C203.226 121.777 203.637 120.123 204.459 118.754C205.303 117.385 206.49 116.335 208.018 115.605C209.57 114.852 211.384 114.475 213.461 114.475C214.785 114.475 215.925 114.589 216.884 114.817C217.865 115.046 218.675 115.308 219.314 115.605C219.953 115.879 220.41 116.13 220.683 116.358V121.355H215.925V116.734C216.222 116.757 216.462 116.848 216.644 117.008C216.85 117.168 216.987 117.35 217.055 117.556C217.124 117.761 217.135 117.978 217.089 118.206C217.066 118.411 216.998 118.571 216.884 118.685C216.587 118.275 216.165 117.932 215.617 117.658C215.093 117.385 214.476 117.248 213.769 117.248C212.833 117.248 212.058 117.499 211.441 118.001C210.825 118.503 210.358 119.244 210.038 120.226C209.719 121.184 209.559 122.348 209.559 123.717C209.559 124.767 209.662 125.691 209.867 126.49C210.072 127.288 210.369 127.961 210.757 128.509C211.145 129.057 211.624 129.479 212.194 129.776C212.765 130.049 213.427 130.186 214.18 130.186Z" fill="white"/>
<path d="M196.625 112.421C195.598 112.421 194.777 112.17 194.161 111.668C193.545 111.166 193.236 110.47 193.236 109.58C193.236 108.667 193.545 107.96 194.161 107.458C194.777 106.956 195.598 106.705 196.625 106.705C197.675 106.705 198.508 106.956 199.124 107.458C199.74 107.96 200.048 108.667 200.048 109.58C200.048 110.47 199.74 111.166 199.124 111.668C198.508 112.17 197.675 112.421 196.625 112.421ZM199.843 114.817V129.228C199.843 129.707 200.014 130.038 200.356 130.22C200.721 130.38 201.178 130.46 201.725 130.46H201.76V132.651H191.765V130.46H191.799C192.369 130.46 192.826 130.38 193.168 130.22C193.51 130.038 193.681 129.707 193.681 129.228V118.377C193.681 118.012 193.545 117.761 193.271 117.624C193.02 117.487 192.609 117.362 192.038 117.247L191.765 117.179V114.817H199.843Z" fill="white"/>
<path d="M176.98 129.912C176.98 129.981 177.037 130.038 177.151 130.084C177.265 130.106 177.414 130.129 177.596 130.152C177.802 130.175 178.018 130.198 178.247 130.22C178.475 130.22 178.703 130.22 178.931 130.22H179.787V132.651H168.046V130.255H168.388C168.982 130.255 169.472 130.175 169.86 130.015C170.248 129.855 170.442 129.524 170.442 129.022V111.976C170.442 111.474 170.248 111.143 169.86 110.984C169.472 110.824 168.982 110.744 168.388 110.744H168.046V108.348H180.677C183.621 108.348 185.903 108.987 187.523 110.265C189.166 111.52 189.987 113.311 189.987 115.639C189.987 117.213 189.599 118.582 188.823 119.746C188.07 120.887 186.986 121.777 185.572 122.416C184.157 123.032 182.48 123.34 180.54 123.34H175.953V120.636H179.239C180.152 120.636 180.928 120.454 181.567 120.089C182.206 119.701 182.685 119.153 183.004 118.446C183.347 117.715 183.518 116.814 183.518 115.741C183.518 114.669 183.358 113.802 183.039 113.14C182.719 112.455 182.24 111.942 181.601 111.6C180.985 111.257 180.232 111.086 179.342 111.086H176.98V129.912Z" fill="white"/>
<circle cx="130.016" cy="120.016" r="19.0163" fill="white"/>
<path d="M126.926 115.365C127.079 115.179 127.295 115.054 127.534 115.014L140.561 112.847C141.472 112.696 142.084 113.756 141.497 114.469L133.107 124.667C132.953 124.854 132.737 124.979 132.499 125.019L119.472 127.185C118.56 127.337 117.949 126.277 118.536 125.564L126.926 115.365Z" fill="black"/>
<ellipse cx="130.016" cy="120.016" rx="1.90163" ry="1.90163" fill="white"/>
</svg>
