<svg width="455" height="240" viewBox="0 0 455 240" fill="none" xmlns="http://www.w3.org/2000/svg">
<rect width="455" height="240" fill="#5D35FF"/>
<path d="M307 106.414L297.669 124.513V132.941H290.256V124.513L280.924 106.414H289.353L294.019 116.649L298.684 106.414H307Z" fill="white"/>
<path d="M279.775 106.414V112.284H269.164V116.95H276.991V122.556H269.164V132.941H261.789V106.414H279.775Z" fill="white"/>
<path d="M257.59 106.414V132.941H250.215V106.414H257.59Z" fill="white"/>
<path d="M238.604 132.941L230.288 121.315V132.941H222.913V106.414H230.288V117.853L238.528 106.414H247.032L237.287 119.283L247.521 132.941H238.604Z" fill="white"/>
<path d="M209.589 133.204C206.503 133.204 203.97 132.477 201.988 131.022C200.006 129.542 198.94 127.435 198.79 124.701H206.654C206.729 125.629 207.005 126.306 207.482 126.732C207.958 127.159 208.573 127.372 209.325 127.372C210.003 127.372 210.554 127.209 210.981 126.883C211.432 126.532 211.658 126.055 211.658 125.453C211.658 124.676 211.294 124.074 210.567 123.647C209.84 123.221 208.661 122.744 207.03 122.217C205.299 121.64 203.894 121.088 202.816 120.562C201.762 120.01 200.834 119.22 200.031 118.191C199.254 117.138 198.865 115.77 198.865 114.09C198.865 112.384 199.291 110.929 200.144 109.725C200.997 108.496 202.176 107.568 203.681 106.941C205.186 106.314 206.892 106 208.799 106C211.884 106 214.342 106.727 216.173 108.182C218.03 109.612 219.021 111.632 219.146 114.24H211.131C211.106 113.438 210.855 112.836 210.379 112.434C209.927 112.033 209.338 111.832 208.61 111.832C208.059 111.832 207.607 111.995 207.256 112.321C206.905 112.647 206.729 113.112 206.729 113.714C206.729 114.215 206.917 114.654 207.293 115.03C207.695 115.382 208.184 115.695 208.761 115.971C209.338 116.222 210.191 116.548 211.32 116.949C213 117.526 214.38 118.103 215.459 118.68C216.562 119.232 217.503 120.022 218.281 121.051C219.083 122.054 219.485 123.334 219.485 124.889C219.485 126.469 219.083 127.886 218.281 129.141C217.503 130.395 216.362 131.386 214.856 132.113C213.377 132.841 211.621 133.204 209.589 133.204Z" fill="white"/>
<path d="M187.958 128.614H178.551L177.121 132.941H169.37L179.04 106.414H187.544L197.176 132.941H189.388L187.958 128.614ZM186.114 122.97L183.254 114.391L180.432 122.97H186.114Z" fill="white"/>
<path d="M168.447 106.414V112.284H161.374V132.941H153.999V112.284H147V106.414H168.447Z" fill="white"/>
</svg>
