<svg width="800" height="565" viewBox="0 0 800 565" fill="none" xmlns="http://www.w3.org/2000/svg">
<rect y="65" width="800" height="500" fill="#E8EBF0"/>
<rect x="100" y="230" width="600" height="40" fill="white"/>
<rect x="100" y="274" width="600" height="40" fill="white"/>
<rect x="100" y="318" width="600" height="40" fill="white"/>
<rect x="100" y="362" width="600" height="40" fill="white"/>
<rect x="100" y="406" width="600" height="40" fill="white"/>
<rect x="100" y="166" width="110" height="40" rx="20" fill="white"/>
<rect x="393" y="166" width="307" height="40" rx="20" fill="white"/>
<rect x="312" y="470" width="32" height="32" fill="white"/>
<rect x="348" y="470" width="32" height="32" fill="white"/>
<rect x="384" y="470" width="32" height="32" fill="white"/>
<rect x="420" y="470" width="32" height="32" fill="white"/>
<rect x="456" y="470" width="32" height="32" fill="white"/>
<path d="M185 184L189 188L193 184" stroke="black" stroke-width="2" stroke-linecap="round"/>
<path d="M682 194L678.383 190.383" stroke="black" stroke-width="2" stroke-linecap="round" stroke-linejoin="round"/>
<path d="M673.667 192.333C677.349 192.333 680.333 189.349 680.333 185.667C680.333 181.985 677.349 179 673.667 179C669.985 179 667 181.985 667 185.667C667 189.349 669.985 192.333 673.667 192.333Z" stroke="black" stroke-width="2" stroke-linecap="round" stroke-linejoin="round"/>
<circle cx="112" cy="139" r="12" fill="black"/>
<path d="M111.613 133.685H113.293V145H111.569V135.409H111.503L108.801 137.171V135.53L111.613 133.685Z" fill="white"/>
<circle cx="405" cy="139" r="12" fill="black"/>
<path d="M401.242 145L401.237 143.751L405.159 139.79C405.634 139.297 405.997 138.899 406.248 138.597C406.498 138.295 406.69 138 406.822 137.713C406.959 137.422 407.027 137.116 407.027 136.796C407.027 136.431 406.935 136.11 406.75 135.834C406.566 135.558 406.314 135.346 405.994 135.199C405.677 135.048 405.321 134.972 404.927 134.972C404.515 134.972 404.152 135.055 403.839 135.221C403.529 135.383 403.29 135.615 403.121 135.917C402.955 136.219 402.872 136.571 402.872 136.972H401.237C401.237 136.295 401.395 135.696 401.712 135.177C402.032 134.654 402.474 134.249 403.038 133.961C403.605 133.674 404.246 133.53 404.96 133.53C405.675 133.53 406.312 133.67 406.872 133.95C407.432 134.23 407.868 134.615 408.181 135.105C408.498 135.591 408.658 136.138 408.662 136.746C408.658 137.18 408.576 137.597 408.413 137.994C408.251 138.392 407.975 138.836 407.585 139.326C407.198 139.812 406.647 140.405 405.933 141.105L403.634 143.442V143.525H408.844V145H401.242Z" fill="white"/>
<circle cx="287" cy="486" r="12" fill="black"/>
<path d="M287.019 492.155C286.249 492.155 285.558 492.024 284.947 491.762C284.339 491.501 283.859 491.134 283.505 490.663C283.155 490.192 282.971 489.652 282.953 489.044H284.693C284.711 489.368 284.824 489.654 285.03 489.901C285.24 490.147 285.516 490.339 285.859 490.475C286.201 490.608 286.582 490.674 287.002 490.674C287.455 490.674 287.86 490.597 288.218 490.442C288.579 490.287 288.859 490.07 289.058 489.79C289.26 489.51 289.361 489.192 289.361 488.834C289.365 488.459 289.266 488.125 289.063 487.834C288.864 487.543 288.571 487.317 288.185 487.155C287.802 486.993 287.345 486.912 286.814 486.912H285.853V485.508H286.814C287.242 485.508 287.621 485.435 287.953 485.287C288.284 485.136 288.542 484.924 288.726 484.652C288.914 484.379 289.008 484.064 289.008 483.707C289.008 483.365 288.927 483.063 288.765 482.801C288.603 482.536 288.372 482.331 288.074 482.188C287.779 482.044 287.435 481.972 287.041 481.972C286.658 481.972 286.301 482.041 285.969 482.177C285.641 482.309 285.376 482.501 285.174 482.751C284.971 483.002 284.862 483.293 284.848 483.624H283.19C283.209 483.024 283.391 482.49 283.737 482.022C284.083 481.551 284.547 481.184 285.129 480.923C285.711 480.661 286.354 480.53 287.058 480.53C287.776 480.53 288.409 480.67 288.958 480.95C289.511 481.227 289.934 481.6 290.229 482.072C290.527 482.54 290.674 483.055 290.671 483.619C290.674 484.039 290.593 484.42 290.428 484.762C290.266 485.105 290.034 485.392 289.732 485.624C289.43 485.853 289.076 486.017 288.671 486.116V486.204C289.175 486.274 289.61 486.431 289.975 486.674C290.343 486.917 290.623 487.228 290.814 487.608C291.006 487.987 291.1 488.416 291.096 488.895C291.1 489.514 290.925 490.072 290.571 490.569C290.221 491.063 289.735 491.451 289.113 491.735C288.49 492.015 287.792 492.155 287.019 492.155Z" fill="white"/>
<rect y="23" width="800" height="42" fill="white"/>
<rect width="800" height="23" fill="#212121"/>
<path d="M28.6851 49H27.0166V37.6851H28.663V41.9006H28.768C28.9742 41.4217 29.2836 41.0534 29.6961 40.7956C30.1123 40.5341 30.6409 40.4033 31.2818 40.4033C31.8711 40.4033 32.3831 40.5249 32.8177 40.768C33.2523 41.0074 33.5893 41.3665 33.8287 41.8453C34.0681 42.3241 34.1878 42.9098 34.1878 43.6022V49H32.5193V43.8066C32.5193 43.1878 32.3591 42.7072 32.0387 42.3646C31.7219 42.0184 31.2799 41.8453 30.7127 41.8453C30.3186 41.8453 29.9687 41.93 29.663 42.0994C29.3573 42.2652 29.1179 42.5083 28.9448 42.8287C28.7716 43.1455 28.6851 43.5249 28.6851 43.9669V49ZM39.2982 47.6354C39.3977 47.6354 39.6316 47.6262 39.9999 47.6077L40.1269 47.6022V49.0387C39.8544 49.0866 39.51 49.1105 39.0938 49.1105C38.6408 49.1105 38.2264 49.0276 37.8507 48.8619C37.475 48.6924 37.1748 48.4383 36.9502 48.0994C36.7255 47.7569 36.6131 47.3389 36.6131 46.8453V41.8453H35.37V40.5138H36.6131V38.4807H38.2816V40.5138H40.0109V41.8453H38.2816V46.5028C38.2816 46.9411 38.3719 47.2394 38.5524 47.3978C38.7328 47.5525 38.9815 47.6317 39.2982 47.6354ZM44.732 47.6354C44.8314 47.6354 45.0653 47.6262 45.4336 47.6077L45.5607 47.6022V49.0387C45.2881 49.0866 44.9438 49.1105 44.5275 49.1105C44.0745 49.1105 43.6601 49.0276 43.2845 48.8619C42.9088 48.6924 42.6086 48.4383 42.3839 48.0994C42.1592 47.7569 42.0469 47.3389 42.0469 46.8453V41.8453H40.8038V40.5138H42.0469V38.4807H43.7154V40.5138H45.4447V41.8453H43.7154V46.5028C43.7154 46.9411 43.8056 47.2394 43.9861 47.3978C44.1666 47.5525 44.4152 47.6317 44.732 47.6354ZM46.9116 52.1823V40.5138H48.5414V41.8895H48.6795C48.8195 41.6354 48.9779 41.4052 49.1547 41.1989C49.3315 40.989 49.5819 40.8048 49.9061 40.6464C50.2339 40.4843 50.6372 40.4033 51.116 40.4033C51.8011 40.4033 52.4125 40.5783 52.9502 40.9282C53.4917 41.2744 53.9134 41.7772 54.2154 42.4365C54.5212 43.0958 54.674 43.8748 54.674 44.7735C54.674 45.6722 54.523 46.453 54.221 47.116C53.9189 47.7753 53.4991 48.2818 52.9613 48.6354C52.4272 48.989 51.8177 49.1657 51.1326 49.1657C50.6611 49.1657 50.2615 49.0866 49.9337 48.9282C49.6059 48.7698 49.348 48.5856 49.1602 48.3757C48.976 48.1621 48.8158 47.93 48.6795 47.6796H48.5801V52.1823H46.9116ZM48.5469 44.7569C48.5469 45.3499 48.6335 45.8729 48.8066 46.326C48.9797 46.7753 49.232 47.1252 49.5635 47.3757C49.895 47.6225 50.2928 47.7459 50.7569 47.7459C51.232 47.7459 51.6372 47.6169 51.9723 47.3591C52.3075 47.1013 52.5598 46.7477 52.7293 46.2983C52.9024 45.8453 52.9889 45.3315 52.9889 44.7569C52.9889 44.186 52.9042 43.6796 52.7348 43.2376C52.569 42.7956 52.3186 42.4494 51.9834 42.1989C51.6482 41.9484 51.2394 41.8232 50.7569 41.8232C50.2854 41.8232 49.884 41.9448 49.5525 42.1878C49.221 42.4273 48.9705 42.768 48.8011 43.2099C48.6316 43.6483 48.5469 44.1639 48.5469 44.7569ZM57.2674 49.105C57.0648 49.105 56.8769 49.0552 56.7038 48.9558C56.5344 48.8564 56.4 48.7219 56.3005 48.5525C56.2011 48.3831 56.1532 48.1989 56.1569 48C56.1532 47.8011 56.2011 47.6169 56.3005 47.4475C56.4 47.2781 56.5344 47.1436 56.7038 47.0442C56.8769 46.9448 57.0648 46.895 57.2674 46.895C57.4626 46.895 57.6449 46.9448 57.8143 47.0442C57.9838 47.1436 58.1182 47.2781 58.2176 47.4475C58.3208 47.6169 58.3723 47.8011 58.3723 48C58.3723 48.1989 58.3208 48.3831 58.2176 48.5525C58.1182 48.7219 57.9838 48.8564 57.8143 48.9558C57.6449 49.0552 57.4626 49.105 57.2674 49.105ZM57.2784 42.9282C57.0758 42.9282 56.888 42.8785 56.7149 42.779C56.5455 42.6796 56.411 42.5451 56.3116 42.3757C56.2121 42.2063 56.1642 42.0221 56.1679 41.8232C56.1642 41.6243 56.2121 41.4401 56.3116 41.2707C56.411 41.1013 56.5455 40.9669 56.7149 40.8674C56.888 40.768 57.0758 40.7182 57.2784 40.7182C57.4736 40.7182 57.656 40.768 57.8254 40.8674C57.9948 40.9669 58.1293 41.1013 58.2287 41.2707C58.3318 41.4401 58.3834 41.6243 58.3834 41.8232C58.3834 42.0221 58.3318 42.2063 58.2287 42.3757C58.1293 42.5451 57.9948 42.6796 57.8254 42.779C57.656 42.8785 57.4736 42.9282 57.2784 42.9282ZM63.0665 37.1547H64.5526L60.9062 50.7017H59.42L63.0665 37.1547ZM68.4533 37.1547H69.9395L66.2931 50.7017H64.8069L68.4533 37.1547ZM71.006 52.1823V40.5138H72.6358V41.8895H72.7739C72.9139 41.6354 73.0722 41.4052 73.249 41.1989C73.4258 40.989 73.6763 40.8048 74.0004 40.6464C74.3282 40.4843 74.7315 40.4033 75.2104 40.4033C75.8955 40.4033 76.5069 40.5783 77.0446 40.9282C77.5861 41.2744 78.0078 41.7772 78.3098 42.4365C78.6155 43.0958 78.7684 43.8748 78.7684 44.7735C78.7684 45.6722 78.6174 46.453 78.3153 47.116C78.0133 47.7753 77.5934 48.2818 77.0557 48.6354C76.5216 48.989 75.912 49.1657 75.2269 49.1657C74.7555 49.1657 74.3559 49.0866 74.0281 48.9282C73.7002 48.7698 73.4424 48.5856 73.2546 48.3757C73.0704 48.1621 72.9102 47.93 72.7739 47.6796H72.6745V52.1823H71.006ZM72.6413 44.7569C72.6413 45.3499 72.7279 45.8729 72.901 46.326C73.0741 46.7753 73.3264 47.1252 73.6579 47.3757C73.9894 47.6225 74.3872 47.7459 74.8513 47.7459C75.3264 47.7459 75.7315 47.6169 76.0667 47.3591C76.4019 47.1013 76.6542 46.7477 76.8236 46.2983C76.9967 45.8453 77.0833 45.3315 77.0833 44.7569C77.0833 44.186 76.9986 43.6796 76.8292 43.2376C76.6634 42.7956 76.4129 42.4494 76.0778 42.1989C75.7426 41.9484 75.3338 41.8232 74.8513 41.8232C74.3798 41.8232 73.9783 41.9448 73.6468 42.1878C73.3153 42.4273 73.0649 42.768 72.8955 43.2099C72.726 43.6483 72.6413 44.1639 72.6413 44.7569ZM81.9363 49H80.2678V40.5138H81.9363V49ZM81.1131 39.2099C80.9216 39.2099 80.7448 39.1657 80.5827 39.0773C80.4244 38.9889 80.2973 38.8692 80.2015 38.7182C80.1058 38.5672 80.0579 38.4015 80.0579 38.221C80.0579 38.0405 80.1058 37.8748 80.2015 37.7238C80.2973 37.5727 80.4244 37.453 80.5827 37.3646C80.7448 37.2762 80.9216 37.232 81.1131 37.232C81.301 37.232 81.4741 37.2762 81.6325 37.3646C81.7945 37.453 81.9216 37.5727 82.0137 37.7238C82.1094 37.8748 82.1573 38.0405 82.1573 38.221C82.1573 38.4015 82.1094 38.5672 82.0137 38.7182C81.9216 38.8692 81.7945 38.9889 81.6325 39.0773C81.4741 39.1657 81.301 39.2099 81.1131 39.2099ZM87.3966 49.1713C86.59 49.1713 85.8865 48.9871 85.2861 48.6188C84.6894 48.2468 84.2308 47.7293 83.9104 47.0663C83.59 46.4033 83.4297 45.6464 83.4297 44.7956C83.4297 43.9374 83.5918 43.1768 83.9159 42.5138C84.2437 41.8471 84.706 41.3296 85.3027 40.9613C85.8993 40.5893 86.5918 40.4033 87.38 40.4033C88.0172 40.4033 88.59 40.523 89.0982 40.7624C89.6102 40.9982 90.0209 41.3315 90.3303 41.7624C90.6434 42.1934 90.8275 42.6924 90.8828 43.2597H89.264C89.2014 42.9871 89.089 42.7403 88.927 42.5193C88.7686 42.2983 88.5586 42.1234 88.2971 41.9945C88.0393 41.8656 87.741 41.8011 87.4021 41.8011C86.9454 41.8011 86.5439 41.9227 86.1977 42.1657C85.8515 42.4052 85.5826 42.7477 85.3911 43.1934C85.2032 43.639 85.1093 44.1602 85.1093 44.7569C85.1093 45.3683 85.2032 45.9006 85.3911 46.3536C85.5789 46.8029 85.8459 47.1492 86.1922 47.3923C86.5384 47.6354 86.9417 47.7569 87.4021 47.7569C87.8772 47.7569 88.2806 47.6298 88.6121 47.3757C88.9435 47.1215 89.1609 46.7661 89.264 46.3094H90.8828C90.8238 46.8619 90.6434 47.3554 90.3413 47.7901C90.043 48.221 89.6415 48.5599 89.1369 48.8066C88.6323 49.0497 88.0522 49.1713 87.3966 49.1713ZM99.7105 49H97.6718L94.7934 45.1768L93.9757 45.9945V49H92.3072V37.6851H93.9757V44.0994H94.1194L97.484 40.5138H99.4785L96.0531 44.1547L99.7105 49ZM100.047 43.5028H105.075V44.9392H100.047V43.5028ZM106.925 49V40.5138H108.538V41.8674H108.626C108.729 41.5654 108.886 41.3039 109.096 41.0829C109.31 40.8582 109.56 40.6869 109.847 40.5691C110.138 40.4475 110.448 40.3867 110.776 40.3867C110.893 40.3867 111.02 40.3904 111.157 40.3978C111.293 40.4052 111.404 40.4144 111.488 40.4254V42.0166C111.396 41.9945 111.265 41.9724 111.096 41.9503C110.93 41.9282 110.772 41.9171 110.621 41.9171C110.238 41.9171 109.892 42 109.582 42.1657C109.273 42.3278 109.03 42.5543 108.853 42.8453C108.68 43.1363 108.593 43.4641 108.593 43.8287V49H106.925ZM115.897 49.1713C115.105 49.1713 114.409 48.9908 113.809 48.6298C113.212 48.2652 112.75 47.7514 112.422 47.0884C112.094 46.4254 111.93 45.6611 111.93 44.7956C111.93 43.9227 112.094 43.1547 112.422 42.4917C112.75 41.8287 113.212 41.3149 113.809 40.9503C114.409 40.5856 115.105 40.4033 115.897 40.4033C116.685 40.4033 117.378 40.5856 117.975 40.9503C118.575 41.3149 119.037 41.8287 119.361 42.4917C119.689 43.1547 119.853 43.9227 119.853 44.7956C119.853 45.6611 119.689 46.4254 119.361 47.0884C119.037 47.7514 118.575 48.2652 117.975 48.6298C117.378 48.9908 116.685 49.1713 115.897 49.1713ZM115.903 47.779C116.396 47.779 116.812 47.6464 117.151 47.3812C117.494 47.116 117.75 46.7569 117.919 46.3039C118.089 45.8508 118.173 45.3462 118.173 44.7901C118.173 44.2339 118.089 43.7293 117.919 43.2762C117.75 42.8232 117.494 42.4622 117.151 42.1934C116.812 41.9245 116.396 41.7901 115.903 41.7901C115.405 41.7901 114.984 41.9245 114.638 42.1934C114.295 42.4622 114.037 42.8232 113.864 43.2762C113.695 43.7293 113.61 44.2339 113.61 44.7901C113.61 45.3462 113.695 45.8508 113.864 46.3039C114.037 46.7569 114.295 47.116 114.638 47.3812C114.984 47.6464 115.405 47.779 115.903 47.779ZM124.676 40.4033C125.214 40.4033 125.731 40.4862 126.229 40.6519C126.726 40.8177 127.146 41.1215 127.488 41.5635C127.834 42.0018 128.008 42.6022 128.008 43.3646V49H126.383V47.8398H126.317C126.199 48.0755 126.03 48.2947 125.809 48.4972C125.591 48.6998 125.313 48.8656 124.974 48.9945C124.639 49.1234 124.251 49.1878 123.809 49.1878C123.264 49.1878 122.774 49.0866 122.339 48.884C121.908 48.6814 121.567 48.3849 121.317 47.9945C121.067 47.6041 120.941 47.14 120.941 46.6022C120.941 45.7293 121.238 45.105 121.831 44.7293C122.427 44.3536 123.188 44.1326 124.113 44.0663C124.474 44.0442 124.866 44.0221 125.289 44C125.713 43.9779 126.065 43.9613 126.345 43.9503V43.2597C126.345 42.7772 126.197 42.4052 125.903 42.1436C125.608 41.8821 125.179 41.7514 124.615 41.7514C124.14 41.7514 123.752 41.849 123.45 42.0442C123.151 42.2394 122.958 42.5009 122.869 42.8287H121.206C121.258 42.361 121.433 41.9429 121.731 41.5746C122.03 41.2063 122.431 40.919 122.936 40.7127C123.444 40.5064 124.024 40.4033 124.676 40.4033ZM124.179 47.8564C124.617 47.8564 125 47.768 125.328 47.5912C125.66 47.4144 125.912 47.1805 126.085 46.8895C126.262 46.5948 126.35 46.2781 126.35 45.9392V45.1657C126.07 45.1805 125.404 45.2247 124.35 45.2983C123.787 45.3389 123.35 45.4696 123.041 45.6906C122.731 45.9079 122.577 46.2192 122.577 46.6243C122.577 47.0221 122.722 47.3278 123.013 47.5414C123.308 47.7514 123.696 47.8564 124.179 47.8564ZM133.043 49.1657C132.358 49.1657 131.747 48.989 131.209 48.6354C130.671 48.2818 130.25 47.7735 129.944 47.1105C129.642 46.4475 129.491 45.6685 129.491 44.7735C129.491 43.8748 129.644 43.0958 129.949 42.4365C130.255 41.7772 130.679 41.2744 131.22 40.9282C131.762 40.5783 132.375 40.4033 133.06 40.4033C133.542 40.4033 133.946 40.4843 134.27 40.6464C134.598 40.8048 134.848 40.9871 135.021 41.1934C135.194 41.3996 135.355 41.6317 135.502 41.8895H135.59V37.6851H137.259V49H135.629V47.6796H135.502C135.358 47.9337 135.194 48.1657 135.01 48.3757C134.826 48.5856 134.57 48.7698 134.242 48.9282C133.918 49.0866 133.519 49.1657 133.043 49.1657ZM133.419 47.7459C133.883 47.7459 134.281 47.6225 134.612 47.3757C134.944 47.1252 135.196 46.7753 135.369 46.326C135.542 45.8729 135.629 45.3499 135.629 44.7569C135.629 44.1639 135.542 43.6483 135.369 43.2099C135.2 42.768 134.949 42.4273 134.618 42.1878C134.286 41.9448 133.887 41.8232 133.419 41.8232C132.937 41.8232 132.528 41.9484 132.193 42.1989C131.857 42.4494 131.605 42.7956 131.436 43.2376C131.27 43.6796 131.187 44.186 131.187 44.7569C131.187 45.3315 131.272 45.8453 131.441 46.2983C131.614 46.7477 131.868 47.1013 132.204 47.3591C132.539 47.6169 132.944 47.7459 133.419 47.7459ZM140.363 49.105C140.16 49.105 139.973 49.0552 139.799 48.9558C139.63 48.8564 139.496 48.7219 139.396 48.5525C139.297 48.3831 139.249 48.1989 139.253 48C139.249 47.8011 139.297 47.6169 139.396 47.4475C139.496 47.2781 139.63 47.1436 139.799 47.0442C139.973 46.9448 140.16 46.895 140.363 46.895C140.558 46.895 140.741 46.9448 140.91 47.0442C141.079 47.1436 141.214 47.2781 141.313 47.4475C141.416 47.6169 141.468 47.8011 141.468 48C141.468 48.1989 141.416 48.3831 141.313 48.5525C141.214 48.7219 141.079 48.8564 140.91 48.9558C140.741 49.0552 140.558 49.105 140.363 49.105ZM146.913 49.1713C146.107 49.1713 145.403 48.9871 144.803 48.6188C144.206 48.2468 143.748 47.7293 143.427 47.0663C143.107 46.4033 142.947 45.6464 142.947 44.7956C142.947 43.9374 143.109 43.1768 143.433 42.5138C143.761 41.8471 144.223 41.3296 144.82 40.9613C145.416 40.5893 146.109 40.4033 146.897 40.4033C147.534 40.4033 148.107 40.523 148.615 40.7624C149.127 40.9982 149.538 41.3315 149.847 41.7624C150.16 42.1934 150.344 42.6924 150.4 43.2597H148.781C148.718 42.9871 148.606 42.7403 148.444 42.5193C148.285 42.2983 148.076 42.1234 147.814 41.9945C147.556 41.8656 147.258 41.8011 146.919 41.8011C146.462 41.8011 146.061 41.9227 145.715 42.1657C145.368 42.4052 145.099 42.7477 144.908 43.1934C144.72 43.639 144.626 44.1602 144.626 44.7569C144.626 45.3683 144.72 45.9006 144.908 46.3536C145.096 46.8029 145.363 47.1492 145.709 47.3923C146.055 47.6354 146.459 47.7569 146.919 47.7569C147.394 47.7569 147.797 47.6298 148.129 47.3757C148.46 47.1215 148.678 46.7661 148.781 46.3094H150.4C150.341 46.8619 150.16 47.3554 149.858 47.7901C149.56 48.221 149.158 48.5599 148.654 48.8066C148.149 49.0497 147.569 49.1713 146.913 49.1713ZM155.41 49.1713C154.618 49.1713 153.922 48.9908 153.321 48.6298C152.725 48.2652 152.262 47.7514 151.935 47.0884C151.607 46.4254 151.443 45.6611 151.443 44.7956C151.443 43.9227 151.607 43.1547 151.935 42.4917C152.262 41.8287 152.725 41.3149 153.321 40.9503C153.922 40.5856 154.618 40.4033 155.41 40.4033C156.198 40.4033 156.89 40.5856 157.487 40.9503C158.087 41.3149 158.55 41.8287 158.874 42.4917C159.202 43.1547 159.366 43.9227 159.366 44.7956C159.366 45.6611 159.202 46.4254 158.874 47.0884C158.55 47.7514 158.087 48.2652 157.487 48.6298C156.89 48.9908 156.198 49.1713 155.41 49.1713ZM155.415 47.779C155.909 47.779 156.325 47.6464 156.664 47.3812C157.006 47.116 157.262 46.7569 157.432 46.3039C157.601 45.8508 157.686 45.3462 157.686 44.7901C157.686 44.2339 157.601 43.7293 157.432 43.2762C157.262 42.8232 157.006 42.4622 156.664 42.1934C156.325 41.9245 155.909 41.7901 155.415 41.7901C154.918 41.7901 154.496 41.9245 154.15 42.1934C153.808 42.4622 153.55 42.8232 153.377 43.2762C153.207 43.7293 153.122 44.2339 153.122 44.7901C153.122 45.3462 153.207 45.8508 153.377 46.3039C153.55 46.7569 153.808 47.116 154.15 47.3812C154.496 47.6464 154.918 47.779 155.415 47.779ZM160.852 49V40.5138H162.454V41.9006H162.559C162.736 41.4291 163.025 41.0626 163.426 40.8011C163.831 40.5359 164.312 40.4033 164.868 40.4033C165.424 40.4033 165.898 40.5341 166.288 40.7956C166.678 41.0571 166.966 41.4254 167.15 41.9006H167.238C167.445 41.4365 167.769 41.0718 168.211 40.8066C168.656 40.5378 169.181 40.4033 169.785 40.4033C170.305 40.4033 170.761 40.512 171.155 40.7293C171.55 40.9466 171.857 41.2744 172.078 41.7127C172.299 42.1473 172.41 42.6796 172.41 43.3094V49H170.741V43.4751C170.741 43.1068 170.671 42.8011 170.531 42.558C170.391 42.3149 170.201 42.1363 169.962 42.0221C169.726 41.9042 169.457 41.8453 169.155 41.8453C168.802 41.8453 168.496 41.919 168.238 42.0663C167.984 42.2136 167.789 42.4199 167.653 42.6851C167.52 42.9503 167.454 43.2523 167.454 43.5912V49H165.802V43.3702C165.802 43.0681 165.736 42.8011 165.603 42.5691C165.474 42.337 165.292 42.1584 165.056 42.0331C164.824 41.9079 164.557 41.8453 164.255 41.8453C163.946 41.8453 163.656 41.9282 163.387 42.0939C163.122 42.256 162.911 42.4843 162.752 42.779C162.597 43.07 162.52 43.4015 162.52 43.7735V49H160.852ZM177.104 37.1547H178.59L174.944 50.7017H173.458L177.104 37.1547ZM179.657 49V40.5138H181.27V41.8674H181.358C181.461 41.5654 181.618 41.3039 181.828 41.0829C182.041 40.8582 182.292 40.6869 182.579 40.5691C182.87 40.4475 183.18 40.3867 183.507 40.3867C183.625 40.3867 183.752 40.3904 183.889 40.3978C184.025 40.4052 184.135 40.4144 184.22 40.4254V42.0166C184.128 41.9945 183.997 41.9724 183.828 41.9503C183.662 41.9282 183.504 41.9171 183.353 41.9171C182.97 41.9171 182.623 42 182.314 42.1657C182.005 42.3278 181.762 42.5543 181.585 42.8453C181.412 43.1363 181.325 43.4641 181.325 43.8287V49H179.657ZM188.629 49.1713C187.837 49.1713 187.141 48.9908 186.541 48.6298C185.944 48.2652 185.482 47.7514 185.154 47.0884C184.826 46.4254 184.662 45.6611 184.662 44.7956C184.662 43.9227 184.826 43.1547 185.154 42.4917C185.482 41.8287 185.944 41.3149 186.541 40.9503C187.141 40.5856 187.837 40.4033 188.629 40.4033C189.417 40.4033 190.11 40.5856 190.706 40.9503C191.307 41.3149 191.769 41.8287 192.093 42.4917C192.421 43.1547 192.585 43.9227 192.585 44.7956C192.585 45.6611 192.421 46.4254 192.093 47.0884C191.769 47.7514 191.307 48.2652 190.706 48.6298C190.11 48.9908 189.417 49.1713 188.629 49.1713ZM188.635 47.779C189.128 47.779 189.544 47.6464 189.883 47.3812C190.226 47.116 190.482 46.7569 190.651 46.3039C190.821 45.8508 190.905 45.3462 190.905 44.7901C190.905 44.2339 190.821 43.7293 190.651 43.2762C190.482 42.8232 190.226 42.4622 189.883 42.1934C189.544 41.9245 189.128 41.7901 188.635 41.7901C188.137 41.7901 187.716 41.9245 187.369 42.1934C187.027 42.4622 186.769 42.8232 186.596 43.2762C186.427 43.7293 186.342 44.2339 186.342 44.7901C186.342 45.3462 186.427 45.8508 186.596 46.3039C186.769 46.7569 187.027 47.116 187.369 47.3812C187.716 47.6464 188.137 47.779 188.635 47.779ZM197.408 40.4033C197.946 40.4033 198.463 40.4862 198.96 40.6519C199.458 40.8177 199.878 41.1215 200.22 41.5635C200.566 42.0018 200.739 42.6022 200.739 43.3646V49H199.115V47.8398H199.049C198.931 48.0755 198.762 48.2947 198.541 48.4972C198.323 48.6998 198.045 48.8656 197.706 48.9945C197.371 49.1234 196.983 49.1878 196.541 49.1878C195.995 49.1878 195.506 49.0866 195.071 48.884C194.64 48.6814 194.299 48.3849 194.049 47.9945C193.798 47.6041 193.673 47.14 193.673 46.6022C193.673 45.7293 193.97 45.105 194.563 44.7293C195.159 44.3536 195.92 44.1326 196.844 44.0663C197.205 44.0442 197.598 44.0221 198.021 44C198.445 43.9779 198.797 43.9613 199.076 43.9503V43.2597C199.076 42.7772 198.929 42.4052 198.634 42.1436C198.34 41.8821 197.911 41.7514 197.347 41.7514C196.872 41.7514 196.483 41.849 196.181 42.0442C195.883 42.2394 195.69 42.5009 195.601 42.8287H193.938C193.99 42.361 194.165 41.9429 194.463 41.5746C194.762 41.2063 195.163 40.919 195.668 40.7127C196.176 40.5064 196.756 40.4033 197.408 40.4033ZM196.911 47.8564C197.349 47.8564 197.732 47.768 198.06 47.5912C198.391 47.4144 198.644 47.1805 198.817 46.8895C198.994 46.5948 199.082 46.2781 199.082 45.9392V45.1657C198.802 45.1805 198.135 45.2247 197.082 45.2983C196.518 45.3389 196.082 45.4696 195.773 45.6906C195.463 45.9079 195.309 46.2192 195.309 46.6243C195.309 47.0221 195.454 47.3278 195.745 47.5414C196.04 47.7514 196.428 47.8564 196.911 47.8564ZM205.775 49.1657C205.09 49.1657 204.479 48.989 203.941 48.6354C203.403 48.2818 202.982 47.7735 202.676 47.1105C202.374 46.4475 202.223 45.6685 202.223 44.7735C202.223 43.8748 202.376 43.0958 202.681 42.4365C202.987 41.7772 203.411 41.2744 203.952 40.9282C204.493 40.5783 205.107 40.4033 205.792 40.4033C206.274 40.4033 206.678 40.4843 207.002 40.6464C207.33 40.8048 207.58 40.9871 207.753 41.1934C207.926 41.3996 208.086 41.6317 208.234 41.8895H208.322V37.6851H209.991V49H208.361V47.6796H208.234C208.09 47.9337 207.926 48.1657 207.742 48.3757C207.558 48.5856 207.302 48.7698 206.974 48.9282C206.65 49.0866 206.25 49.1657 205.775 49.1657ZM206.151 47.7459C206.615 47.7459 207.013 47.6225 207.344 47.3757C207.676 47.1252 207.928 46.7753 208.101 46.326C208.274 45.8729 208.361 45.3499 208.361 44.7569C208.361 44.1639 208.274 43.6483 208.101 43.2099C207.932 42.768 207.681 42.4273 207.35 42.1878C207.018 41.9448 206.619 41.8232 206.151 41.8232C205.668 41.8232 205.26 41.9484 204.924 42.1989C204.589 42.4494 204.337 42.7956 204.168 43.2376C204.002 43.6796 203.919 44.186 203.919 44.7569C203.919 45.3315 204.004 45.8453 204.173 46.2983C204.346 46.7477 204.6 47.1013 204.935 47.3591C205.271 47.6169 205.676 47.7459 206.151 47.7459ZM212.001 49V40.5138H213.603V41.9006H213.708C213.885 41.4291 214.174 41.0626 214.576 40.8011C214.981 40.5359 215.461 40.4033 216.018 40.4033C216.574 40.4033 217.047 40.5341 217.437 40.7956C217.828 41.0571 218.115 41.4254 218.299 41.9006H218.388C218.594 41.4365 218.918 41.0718 219.36 40.8066C219.806 40.5378 220.331 40.4033 220.935 40.4033C221.454 40.4033 221.911 40.512 222.305 40.7293C222.699 40.9466 223.006 41.2744 223.227 41.7127C223.448 42.1473 223.559 42.6796 223.559 43.3094V49H221.89V43.4751C221.89 43.1068 221.82 42.8011 221.681 42.558C221.541 42.3149 221.351 42.1363 221.111 42.0221C220.876 41.9042 220.607 41.8453 220.305 41.8453C219.951 41.8453 219.646 41.919 219.388 42.0663C219.134 42.2136 218.938 42.4199 218.802 42.6851C218.669 42.9503 218.603 43.2523 218.603 43.5912V49H216.951V43.3702C216.951 43.0681 216.885 42.8011 216.752 42.5691C216.623 42.337 216.441 42.1584 216.205 42.0331C215.973 41.9079 215.706 41.8453 215.404 41.8453C215.095 41.8453 214.806 41.9282 214.537 42.0939C214.272 42.256 214.06 42.4843 213.902 42.779C213.747 43.07 213.669 43.4015 213.669 43.7735V49H212.001ZM228.756 40.4033C229.294 40.4033 229.811 40.4862 230.309 40.6519C230.806 40.8177 231.226 41.1215 231.568 41.5635C231.914 42.0018 232.088 42.6022 232.088 43.3646V49H230.463V47.8398H230.397C230.279 48.0755 230.11 48.2947 229.889 48.4972C229.671 48.6998 229.393 48.8656 229.054 48.9945C228.719 49.1234 228.331 49.1878 227.889 49.1878C227.344 49.1878 226.854 49.0866 226.419 48.884C225.988 48.6814 225.647 48.3849 225.397 47.9945C225.147 47.6041 225.021 47.14 225.021 46.6022C225.021 45.7293 225.318 45.105 225.911 44.7293C226.507 44.3536 227.268 44.1326 228.193 44.0663C228.554 44.0442 228.946 44.0221 229.369 44C229.793 43.9779 230.145 43.9613 230.425 43.9503V43.2597C230.425 42.7772 230.277 42.4052 229.983 42.1436C229.688 41.8821 229.259 41.7514 228.695 41.7514C228.22 41.7514 227.832 41.849 227.53 42.0442C227.231 42.2394 227.038 42.5009 226.949 42.8287H225.286C225.338 42.361 225.513 41.9429 225.811 41.5746C226.11 41.2063 226.511 40.919 227.016 40.7127C227.524 40.5064 228.104 40.4033 228.756 40.4033ZM228.259 47.8564C228.697 47.8564 229.08 47.768 229.408 47.5912C229.74 47.4144 229.992 47.1805 230.165 46.8895C230.342 46.5948 230.43 46.2781 230.43 45.9392V45.1657C230.15 45.1805 229.484 45.2247 228.43 45.2983C227.867 45.3389 227.43 45.4696 227.121 45.6906C226.811 45.9079 226.657 46.2192 226.657 46.6243C226.657 47.0221 226.802 47.3278 227.093 47.5414C227.388 47.7514 227.776 47.8564 228.259 47.8564ZM233.947 52.1823V40.5138H235.576V41.8895H235.715C235.854 41.6354 236.013 41.4052 236.19 41.1989C236.366 40.989 236.617 40.8048 236.941 40.6464C237.269 40.4843 237.672 40.4033 238.151 40.4033C238.836 40.4033 239.447 40.5783 239.985 40.9282C240.527 41.2744 240.948 41.7772 241.25 42.4365C241.556 43.0958 241.709 43.8748 241.709 44.7735C241.709 45.6722 241.558 46.453 241.256 47.116C240.954 47.7753 240.534 48.2818 239.996 48.6354C239.462 48.989 238.853 49.1657 238.168 49.1657C237.696 49.1657 237.296 49.0866 236.969 48.9282C236.641 48.7698 236.383 48.5856 236.195 48.3757C236.011 48.1621 235.851 47.93 235.715 47.6796H235.615V52.1823H233.947ZM235.582 44.7569C235.582 45.3499 235.668 45.8729 235.842 46.326C236.015 46.7753 236.267 47.1252 236.599 47.3757C236.93 47.6225 237.328 47.7459 237.792 47.7459C238.267 47.7459 238.672 47.6169 239.007 47.3591C239.343 47.1013 239.595 46.7477 239.764 46.2983C239.937 45.8453 240.024 45.3315 240.024 44.7569C240.024 44.186 239.939 43.6796 239.77 43.2376C239.604 42.7956 239.354 42.4494 239.018 42.1989C238.683 41.9484 238.274 41.8232 237.792 41.8232C237.32 41.8232 236.919 41.9448 236.587 42.1878C236.256 42.4273 236.005 42.768 235.836 43.2099C235.667 43.6483 235.582 44.1639 235.582 44.7569ZM247.971 42.8287C247.89 42.4825 247.713 42.2118 247.44 42.0166C247.172 41.8177 246.813 41.7182 246.363 41.7182C246.054 41.7182 245.774 41.768 245.523 41.8674C245.273 41.9669 245.078 42.105 244.938 42.2818C244.801 42.4549 244.733 42.6464 244.733 42.8564C244.73 43.1105 244.835 43.3278 245.048 43.5083C245.266 43.6851 245.603 43.8269 246.059 43.9337L247.418 44.2431C248.196 44.4236 248.776 44.7035 249.159 45.0829C249.542 45.4586 249.733 45.9448 249.733 46.5414C249.733 47.0534 249.593 47.5083 249.313 47.9061C249.037 48.3039 248.638 48.6151 248.115 48.8398C247.592 49.0608 246.975 49.1713 246.264 49.1713C245.254 49.1713 244.453 48.9558 243.86 48.5249C243.271 48.0939 242.923 47.4788 242.816 46.6796H244.523C244.667 47.4494 245.242 47.8343 246.247 47.8343C246.604 47.8343 246.917 47.7882 247.186 47.6961C247.455 47.6004 247.661 47.4659 247.805 47.2928C247.952 47.116 248.026 46.9098 248.026 46.674C248.026 46.3978 247.919 46.1713 247.706 45.9945C247.496 45.814 247.166 45.6722 246.717 45.5691L245.391 45.2762C244.632 45.1105 244.054 44.8287 243.656 44.4309C243.262 44.0331 243.065 43.5396 243.065 42.9503C243.065 42.453 243.201 42.011 243.474 41.6243C243.75 41.2376 244.137 40.9374 244.634 40.7238C245.131 40.5101 245.704 40.4033 246.352 40.4033C246.971 40.4033 247.512 40.5046 247.976 40.7072C248.444 40.9061 248.814 41.1878 249.087 41.5525C249.359 41.9171 249.522 42.3425 249.573 42.8287H247.971ZM254.055 37.1547H255.541L251.894 50.7017H250.408L254.055 37.1547Z" fill="black"/>
<path d="M258.408 45.6409C258.412 44.9816 258.476 44.4494 258.602 44.0442C258.731 43.6354 258.909 43.3076 259.138 43.0608C259.366 42.814 259.672 42.5727 260.055 42.337C260.832 41.8545 261.22 41.2505 261.22 40.5249C261.22 40.2081 261.145 39.93 260.994 39.6906C260.843 39.4475 260.639 39.2615 260.381 39.1326C260.123 39 259.837 38.9337 259.524 38.9337C259.233 38.9337 258.961 38.9963 258.707 39.1215C258.453 39.2431 258.243 39.4291 258.077 39.6796C257.911 39.93 257.817 40.2394 257.795 40.6077H256.104C256.127 39.9632 256.29 39.4088 256.596 38.9448C256.902 38.4807 257.311 38.1289 257.823 37.8895C258.335 37.6501 258.904 37.5304 259.53 37.5304C260.2 37.5304 260.791 37.6575 261.303 37.9116C261.819 38.1621 262.217 38.5157 262.497 38.9724C262.78 39.4254 262.922 39.9484 262.922 40.5414C262.922 41.1418 262.786 41.6611 262.513 42.0994C262.241 42.5378 261.845 42.9153 261.325 43.232C261.001 43.4273 260.745 43.6298 260.557 43.8398C260.373 44.046 260.237 44.2928 260.149 44.5801C260.06 44.8637 260.012 45.2173 260.005 45.6409V45.7403H258.408V45.6409ZM259.254 49.105C259.055 49.105 258.869 49.0552 258.696 48.9558C258.526 48.8564 258.392 48.7219 258.292 48.5525C258.193 48.3831 258.145 48.1989 258.149 48C258.145 47.8011 258.193 47.6169 258.292 47.4475C258.392 47.2781 258.526 47.1436 258.696 47.0442C258.869 46.9448 259.055 46.895 259.254 46.895C259.453 46.895 259.637 46.9448 259.806 47.0442C259.976 47.1436 260.11 47.2781 260.209 47.4475C260.313 47.6169 260.364 47.8011 260.364 48C260.364 48.1989 260.313 48.3831 260.209 48.5525C260.11 48.7219 259.976 48.8564 259.806 48.9558C259.637 49.0552 259.453 49.105 259.254 49.105ZM268.017 49.1713C267.211 49.1713 266.507 48.9871 265.907 48.6188C265.31 48.2468 264.851 47.7293 264.531 47.0663C264.211 46.4033 264.05 45.6464 264.05 44.7956C264.05 43.9374 264.212 43.1768 264.537 42.5138C264.864 41.8471 265.327 41.3296 265.923 40.9613C266.52 40.5893 267.212 40.4033 268.001 40.4033C268.638 40.4033 269.211 40.523 269.719 40.7624C270.231 40.9982 270.642 41.3315 270.951 41.7624C271.264 42.1934 271.448 42.6924 271.503 43.2597H269.885C269.822 42.9871 269.71 42.7403 269.548 42.5193C269.389 42.2983 269.179 42.1234 268.918 41.9945C268.66 41.8656 268.362 41.8011 268.023 41.8011C267.566 41.8011 267.165 41.9227 266.818 42.1657C266.472 42.4052 266.203 42.7477 266.012 43.1934C265.824 43.639 265.73 44.1602 265.73 44.7569C265.73 45.3683 265.824 45.9006 266.012 46.3536C266.2 46.8029 266.467 47.1492 266.813 47.3923C267.159 47.6354 267.562 47.7569 268.023 47.7569C268.498 47.7569 268.901 47.6298 269.233 47.3757C269.564 47.1215 269.781 46.7661 269.885 46.3094H271.503C271.444 46.8619 271.264 47.3554 270.962 47.7901C270.664 48.221 270.262 48.5599 269.758 48.8066C269.253 49.0497 268.673 49.1713 268.017 49.1713ZM276.265 40.4033C276.803 40.4033 277.32 40.4862 277.817 40.6519C278.315 40.8177 278.734 41.1215 279.077 41.5635C279.423 42.0018 279.596 42.6022 279.596 43.3646V49H277.972V47.8398H277.906C277.788 48.0755 277.618 48.2947 277.397 48.4972C277.18 48.6998 276.902 48.8656 276.563 48.9945C276.228 49.1234 275.839 49.1878 275.397 49.1878C274.852 49.1878 274.362 49.0866 273.928 48.884C273.497 48.6814 273.156 48.3849 272.906 47.9945C272.655 47.6041 272.53 47.14 272.53 46.6022C272.53 45.7293 272.827 45.105 273.42 44.7293C274.016 44.3536 274.777 44.1326 275.701 44.0663C276.062 44.0442 276.455 44.0221 276.878 44C277.302 43.9779 277.653 43.9613 277.933 43.9503V43.2597C277.933 42.7772 277.786 42.4052 277.491 42.1436C277.197 41.8821 276.768 41.7514 276.204 41.7514C275.729 41.7514 275.34 41.849 275.038 42.0442C274.74 42.2394 274.547 42.5009 274.458 42.8287H272.795C272.847 42.361 273.022 41.9429 273.32 41.5746C273.618 41.2063 274.02 40.919 274.525 40.7127C275.033 40.5064 275.613 40.4033 276.265 40.4033ZM275.768 47.8564C276.206 47.8564 276.589 47.768 276.917 47.5912C277.248 47.4144 277.501 47.1805 277.674 46.8895C277.85 46.5948 277.939 46.2781 277.939 45.9392V45.1657C277.659 45.1805 276.992 45.2247 275.939 45.2983C275.375 45.3389 274.939 45.4696 274.629 45.6906C274.32 45.9079 274.165 46.2192 274.165 46.6243C274.165 47.0221 274.311 47.3278 274.602 47.5414C274.897 47.7514 275.285 47.8564 275.768 47.8564ZM284.709 47.6354C284.809 47.6354 285.043 47.6262 285.411 47.6077L285.538 47.6022V49.0387C285.266 49.0866 284.921 49.1105 284.505 49.1105C284.052 49.1105 283.638 49.0276 283.262 48.8619C282.886 48.6924 282.586 48.4383 282.361 48.0994C282.137 47.7569 282.024 47.3389 282.024 46.8453V41.8453H280.781V40.5138H282.024V38.4807H283.693V40.5138H285.422V41.8453H283.693V46.5028C283.693 46.9411 283.783 47.2394 283.964 47.3978C284.144 47.5525 284.393 47.6317 284.709 47.6354ZM294.11 45.2597H288.072C288.086 45.7901 288.195 46.2468 288.398 46.6298C288.6 47.0129 288.878 47.3039 289.232 47.5028C289.589 47.7017 290.002 47.8011 290.469 47.8011C290.919 47.8011 291.3 47.7164 291.613 47.547C291.926 47.3738 292.158 47.1473 292.309 46.8674H294C293.875 47.3315 293.65 47.7366 293.326 48.0829C293.005 48.4291 292.6 48.698 292.11 48.8895C291.62 49.0773 291.07 49.1713 290.458 49.1713C289.633 49.1713 288.915 48.9926 288.304 48.6354C287.696 48.2744 287.228 47.7661 286.9 47.1105C286.576 46.4512 286.414 45.6851 286.414 44.8122C286.414 43.9503 286.576 43.186 286.9 42.5193C287.228 41.8527 287.689 41.3333 288.282 40.9613C288.875 40.5893 289.56 40.4033 290.337 40.4033C291.018 40.4033 291.642 40.5525 292.21 40.8508C292.781 41.1455 293.239 41.6114 293.585 42.2486C293.935 42.8858 294.11 43.6924 294.11 44.6685V45.2597ZM292.469 44.011C292.469 43.5838 292.381 43.2007 292.204 42.8619C292.027 42.523 291.779 42.2578 291.458 42.0663C291.142 41.8711 290.775 41.7735 290.359 41.7735C289.928 41.7735 289.543 41.8748 289.204 42.0773C288.869 42.2799 288.604 42.5525 288.409 42.895C288.213 43.2376 288.103 43.6096 288.077 44.011H292.469ZM299.173 52.3591C298.459 52.3591 297.831 52.2578 297.289 52.0552C296.751 51.8564 296.324 51.5654 296.007 51.1823C295.694 50.8029 295.514 50.3499 295.466 49.8232H297.168C297.245 50.221 297.459 50.5193 297.808 50.7182C298.162 50.9208 298.622 51.0221 299.19 51.0221C299.875 51.0221 300.405 50.8656 300.781 50.5525C301.16 50.2431 301.35 49.7661 301.35 49.1215V47.453H301.239C301.029 47.8435 300.739 48.1786 300.366 48.4586C299.994 48.7348 299.466 48.8729 298.781 48.8729C298.103 48.8729 297.495 48.709 296.958 48.3812C296.424 48.0534 296.002 47.5727 295.692 46.9392C295.383 46.3057 295.228 45.5488 295.228 44.6685C295.228 43.7882 295.381 43.0276 295.687 42.3867C295.993 41.7422 296.414 41.2505 296.952 40.9116C297.494 40.5727 298.109 40.4033 298.797 40.4033C299.28 40.4033 299.685 40.4843 300.013 40.6464C300.341 40.8048 300.593 40.9871 300.77 41.1934C300.947 41.3996 301.109 41.6317 301.256 41.8895H301.366V40.5138H302.996V49.1823C302.996 49.8858 302.832 50.4751 302.505 50.9503C302.177 51.4254 301.726 51.779 301.151 52.011C300.58 52.2431 299.921 52.3591 299.173 52.3591ZM299.157 47.4972C299.624 47.4972 300.024 47.3867 300.355 47.1657C300.687 46.9448 300.937 46.6243 301.107 46.2044C301.28 45.7845 301.366 45.2836 301.366 44.7017C301.366 44.1271 301.28 43.6243 301.107 43.1934C300.937 42.7587 300.687 42.4217 300.355 42.1823C300.024 41.9429 299.624 41.8232 299.157 41.8232C298.674 41.8232 298.265 41.9484 297.93 42.1989C297.599 42.4457 297.348 42.7864 297.179 43.221C297.009 43.6556 296.925 44.1492 296.925 44.7017C296.925 45.2615 297.009 45.7514 297.179 46.1713C297.348 46.5912 297.6 46.9171 297.936 47.1492C298.271 47.3812 298.678 47.4972 299.157 47.4972ZM308.452 49.1713C307.66 49.1713 306.964 48.9908 306.363 48.6298C305.766 48.2652 305.304 47.7514 304.976 47.0884C304.649 46.4254 304.485 45.6611 304.485 44.7956C304.485 43.9227 304.649 43.1547 304.976 42.4917C305.304 41.8287 305.766 41.3149 306.363 40.9503C306.964 40.5856 307.66 40.4033 308.452 40.4033C309.24 40.4033 309.932 40.5856 310.529 40.9503C311.129 41.3149 311.592 41.8287 311.916 42.4917C312.243 43.1547 312.407 43.9227 312.407 44.7956C312.407 45.6611 312.243 46.4254 311.916 47.0884C311.592 47.7514 311.129 48.2652 310.529 48.6298C309.932 48.9908 309.24 49.1713 308.452 49.1713ZM308.457 47.779C308.951 47.779 309.367 47.6464 309.706 47.3812C310.048 47.116 310.304 46.7569 310.474 46.3039C310.643 45.8508 310.728 45.3462 310.728 44.7901C310.728 44.2339 310.643 43.7293 310.474 43.2762C310.304 42.8232 310.048 42.4622 309.706 42.1934C309.367 41.9245 308.951 41.7901 308.457 41.7901C307.96 41.7901 307.538 41.9245 307.192 42.1934C306.849 42.4622 306.592 42.8232 306.418 43.2762C306.249 43.7293 306.164 44.2339 306.164 44.7901C306.164 45.3462 306.249 45.8508 306.418 46.3039C306.592 46.7569 306.849 47.116 307.192 47.3812C307.538 47.6464 307.96 47.779 308.457 47.779ZM313.893 49V40.5138H315.507V41.8674H315.595C315.698 41.5654 315.855 41.3039 316.065 41.0829C316.278 40.8582 316.529 40.6869 316.816 40.5691C317.107 40.4475 317.416 40.3867 317.744 40.3867C317.862 40.3867 317.989 40.3904 318.125 40.3978C318.262 40.4052 318.372 40.4144 318.457 40.4254V42.0166C318.365 41.9945 318.234 41.9724 318.065 41.9503C317.899 41.9282 317.741 41.9171 317.59 41.9171C317.207 41.9171 316.86 42 316.551 42.1657C316.242 42.3278 315.998 42.5543 315.822 42.8453C315.649 43.1363 315.562 43.4641 315.562 43.8287V49H313.893ZM320.839 52.1823C320.464 52.1823 320.165 52.1713 319.944 52.1492L319.955 50.7514C320.121 50.7661 320.37 50.7735 320.701 50.7735C320.915 50.7735 321.092 50.7532 321.231 50.7127C321.371 50.6722 321.511 50.5709 321.651 50.4088C321.791 50.2505 321.922 50.0037 322.044 49.6685L322.254 49.116L319.143 40.5138H320.928L323.066 47.0939H323.154L325.303 40.5138H327.088L323.591 50.1271C323.34 50.8122 322.99 51.326 322.541 51.6685C322.095 52.011 321.528 52.1823 320.839 52.1823ZM335.286 43.5691H328.198V42.105H335.286V43.5691ZM335.286 46.9779H328.198V45.5193H335.286V46.9779ZM340.276 37.6851H341.955V49H340.232V39.4088H340.165L337.464 41.1713V39.5304L340.276 37.6851ZM353.547 49H351.669L350.906 48.105C350.534 48.4475 350.089 48.709 349.569 48.8895C349.05 49.07 348.523 49.1602 347.989 49.1602C347.249 49.1602 346.601 49.0239 346.045 48.7514C345.488 48.4788 345.061 48.1031 344.763 47.6243C344.464 47.1455 344.315 46.6022 344.315 45.9945C344.315 45.5635 344.404 45.175 344.58 44.8287C344.757 44.4788 345 44.1584 345.31 43.8674C345.619 43.5727 346.015 43.2578 346.498 42.9227C346.089 42.4291 345.779 41.9761 345.569 41.5635C345.359 41.151 345.254 40.7109 345.254 40.2431C345.254 39.7238 345.372 39.2615 345.608 38.8564C345.847 38.4512 346.183 38.1344 346.614 37.9061C347.048 37.6777 347.549 37.5635 348.116 37.5635C348.68 37.5635 349.173 37.6759 349.597 37.9006C350.024 38.1215 350.352 38.4217 350.58 38.8011C350.812 39.1768 350.929 39.5875 350.929 40.0331C350.929 40.5488 350.801 41.0129 350.547 41.4254C350.293 41.8343 349.919 42.2192 349.426 42.5801L348.647 43.1547L350.906 45.8453C351.219 45.2413 351.376 44.5764 351.376 43.8508H352.879C352.879 45.1731 352.564 46.2486 351.934 47.0773L353.547 49ZM348.15 38.9558C347.895 38.9558 347.667 39.0203 347.464 39.1492C347.262 39.2744 347.103 39.4383 346.989 39.6409C346.875 39.8398 346.818 40.0497 346.818 40.2707C346.818 40.5322 346.895 40.8029 347.05 41.0829C347.205 41.3591 347.431 41.6814 347.73 42.0497L348.431 41.558C348.759 41.3407 349.004 41.1179 349.166 40.8895C349.328 40.6611 349.409 40.3886 349.409 40.0718C349.409 39.895 349.356 39.7201 349.249 39.547C349.142 39.3738 348.993 39.232 348.801 39.1215C348.61 39.011 348.393 38.9558 348.15 38.9558ZM348 47.7514C348.347 47.7514 348.687 47.6869 349.022 47.558C349.361 47.4291 349.678 47.2449 349.973 47.0055L347.442 44.0442L347.155 44.2541C346.879 44.4567 346.652 44.6648 346.475 44.8785C346.302 45.0921 346.175 45.291 346.094 45.4751C346.017 45.6593 345.978 45.8177 345.978 45.9503C345.978 46.2744 346.061 46.5746 346.227 46.8508C346.396 47.1271 346.634 47.3462 346.94 47.5083C347.249 47.6703 347.603 47.7514 348 47.7514ZM361.887 49H359.849L356.97 45.1768L356.153 45.9945V49H354.484V37.6851H356.153V44.0994H356.296L359.661 40.5138H361.655L358.23 44.1547L361.887 49ZM369.764 45.2597H363.725C363.74 45.7901 363.849 46.2468 364.051 46.6298C364.254 47.0129 364.532 47.3039 364.886 47.5028C365.243 47.7017 365.655 47.8011 366.123 47.8011C366.572 47.8011 366.954 47.7164 367.267 47.547C367.58 47.3738 367.812 47.1473 367.963 46.8674H369.653C369.528 47.3315 369.304 47.7366 368.979 48.0829C368.659 48.4291 368.254 48.698 367.764 48.8895C367.274 49.0773 366.723 49.1713 366.112 49.1713C365.287 49.1713 364.569 48.9926 363.957 48.6354C363.35 48.2744 362.882 47.7661 362.554 47.1105C362.23 46.4512 362.068 45.6851 362.068 44.8122C362.068 43.9503 362.23 43.186 362.554 42.5193C362.882 41.8527 363.342 41.3333 363.935 40.9613C364.528 40.5893 365.213 40.4033 365.991 40.4033C366.672 40.4033 367.296 40.5525 367.863 40.8508C368.434 41.1455 368.893 41.6114 369.239 42.2486C369.589 42.8858 369.764 43.6924 369.764 44.6685V45.2597ZM368.123 44.011C368.123 43.5838 368.035 43.2007 367.858 42.8619C367.681 42.523 367.432 42.2578 367.112 42.0663C366.795 41.8711 366.429 41.7735 366.013 41.7735C365.582 41.7735 365.197 41.8748 364.858 42.0773C364.523 42.2799 364.258 42.5525 364.062 42.895C363.867 43.2376 363.757 43.6096 363.731 44.011H368.123ZM372.035 52.1823C371.66 52.1823 371.361 52.1713 371.14 52.1492L371.151 50.7514C371.317 50.7661 371.566 50.7735 371.897 50.7735C372.111 50.7735 372.288 50.7532 372.428 50.7127C372.568 50.6722 372.708 50.5709 372.848 50.4088C372.988 50.2505 373.118 50.0037 373.24 49.6685L373.45 49.116L370.339 40.5138H372.124L374.262 47.0939H374.35L376.5 40.5138H378.284L374.787 50.1271C374.536 50.8122 374.186 51.326 373.737 51.6685C373.291 52.011 372.724 52.1823 372.035 52.1823ZM383.03 49H381.323L378.831 40.5138H380.555L382.207 46.7348H382.295L383.953 40.5138H385.676L387.323 46.7072H387.406L389.052 40.5138H390.776L388.284 49H386.588L384.864 42.8895H384.743L383.03 49ZM395.305 49.1713C394.513 49.1713 393.817 48.9908 393.216 48.6298C392.62 48.2652 392.157 47.7514 391.83 47.0884C391.502 46.4254 391.338 45.6611 391.338 44.7956C391.338 43.9227 391.502 43.1547 391.83 42.4917C392.157 41.8287 392.62 41.3149 393.216 40.9503C393.817 40.5856 394.513 40.4033 395.305 40.4033C396.093 40.4033 396.785 40.5856 397.382 40.9503C397.982 41.3149 398.445 41.8287 398.769 42.4917C399.097 43.1547 399.261 43.9227 399.261 44.7956C399.261 45.6611 399.097 46.4254 398.769 47.0884C398.445 47.7514 397.982 48.2652 397.382 48.6298C396.785 48.9908 396.093 49.1713 395.305 49.1713ZM395.31 47.779C395.804 47.779 396.22 47.6464 396.559 47.3812C396.901 47.116 397.157 46.7569 397.327 46.3039C397.496 45.8508 397.581 45.3462 397.581 44.7901C397.581 44.2339 397.496 43.7293 397.327 43.2762C397.157 42.8232 396.901 42.4622 396.559 42.1934C396.22 41.9245 395.804 41.7901 395.31 41.7901C394.813 41.7901 394.391 41.9245 394.045 42.1934C393.703 42.4622 393.445 42.8232 393.272 43.2762C393.102 43.7293 393.017 44.2339 393.017 44.7901C393.017 45.3462 393.102 45.8508 393.272 46.3039C393.445 46.7569 393.703 47.116 394.045 47.3812C394.391 47.6464 394.813 47.779 395.31 47.779ZM400.747 49V40.5138H402.36V41.8674H402.448C402.551 41.5654 402.708 41.3039 402.918 41.0829C403.131 40.8582 403.382 40.6869 403.669 40.5691C403.96 40.4475 404.27 40.3867 404.597 40.3867C404.715 40.3867 404.842 40.3904 404.979 40.3978C405.115 40.4052 405.225 40.4144 405.31 40.4254V42.0166C405.218 41.9945 405.087 41.9724 404.918 41.9503C404.752 41.9282 404.594 41.9171 404.443 41.9171C404.06 41.9171 403.713 42 403.404 42.1657C403.095 42.3278 402.852 42.5543 402.675 42.8453C402.502 43.1363 402.415 43.4641 402.415 43.8287V49H400.747ZM409.31 49.1657C408.625 49.1657 408.014 48.989 407.476 48.6354C406.938 48.2818 406.517 47.7735 406.211 47.1105C405.909 46.4475 405.758 45.6685 405.758 44.7735C405.758 43.8748 405.911 43.0958 406.216 42.4365C406.522 41.7772 406.946 41.2744 407.487 40.9282C408.028 40.5783 408.642 40.4033 409.327 40.4033C409.809 40.4033 410.213 40.4843 410.537 40.6464C410.865 40.8048 411.115 40.9871 411.288 41.1934C411.461 41.3996 411.621 41.6317 411.769 41.8895H411.857V37.6851H413.526V49H411.896V47.6796H411.769C411.625 47.9337 411.461 48.1657 411.277 48.3757C411.093 48.5856 410.837 48.7698 410.509 48.9282C410.185 49.0866 409.785 49.1657 409.31 49.1657ZM409.686 47.7459C410.15 47.7459 410.548 47.6225 410.879 47.3757C411.211 47.1252 411.463 46.7753 411.636 46.326C411.809 45.8729 411.896 45.3499 411.896 44.7569C411.896 44.1639 411.809 43.6483 411.636 43.2099C411.467 42.768 411.216 42.4273 410.885 42.1878C410.553 41.9448 410.154 41.8232 409.686 41.8232C409.203 41.8232 408.795 41.9484 408.459 42.1989C408.124 42.4494 407.872 42.7956 407.703 43.2376C407.537 43.6796 407.454 44.186 407.454 44.7569C407.454 45.3315 407.539 45.8453 407.708 46.2983C407.881 46.7477 408.135 47.1013 408.47 47.3591C408.806 47.6169 409.211 47.7459 409.686 47.7459ZM423.155 43.5691H416.066V42.105H423.155V43.5691ZM423.155 46.9779H416.066V45.5193H423.155V46.9779ZM425.548 49V40.5138H427.161V41.8674H427.249C427.353 41.5654 427.509 41.3039 427.719 41.0829C427.933 40.8582 428.183 40.6869 428.47 40.5691C428.761 40.4475 429.071 40.3867 429.399 40.3867C429.517 40.3867 429.644 40.3904 429.78 40.3978C429.916 40.4052 430.027 40.4144 430.111 40.4254V42.0166C430.019 41.9945 429.889 41.9724 429.719 41.9503C429.553 41.9282 429.395 41.9171 429.244 41.9171C428.861 41.9171 428.515 42 428.205 42.1657C427.896 42.3278 427.653 42.5543 427.476 42.8453C427.303 43.1363 427.216 43.4641 427.216 43.8287V49H425.548ZM438.25 45.2597H432.211C432.226 45.7901 432.334 46.2468 432.537 46.6298C432.739 47.0129 433.018 47.3039 433.371 47.5028C433.728 47.7017 434.141 47.8011 434.609 47.8011C435.058 47.8011 435.439 47.7164 435.752 47.547C436.065 47.3738 436.297 47.1473 436.449 46.8674H438.139C438.014 47.3315 437.789 47.7366 437.465 48.0829C437.145 48.4291 436.739 48.698 436.25 48.8895C435.76 49.0773 435.209 49.1713 434.598 49.1713C433.773 49.1713 433.054 48.9926 432.443 48.6354C431.835 48.2744 431.367 47.7661 431.04 47.1105C430.716 46.4512 430.553 45.6851 430.553 44.8122C430.553 43.9503 430.716 43.186 431.04 42.5193C431.367 41.8527 431.828 41.3333 432.421 40.9613C433.014 40.5893 433.699 40.4033 434.476 40.4033C435.158 40.4033 435.782 40.5525 436.349 40.8508C436.92 41.1455 437.379 41.6114 437.725 42.2486C438.075 42.8858 438.25 43.6924 438.25 44.6685V45.2597ZM436.609 44.011C436.609 43.5838 436.52 43.2007 436.344 42.8619C436.167 42.523 435.918 42.2578 435.598 42.0663C435.281 41.8711 434.914 41.7735 434.498 41.7735C434.067 41.7735 433.682 41.8748 433.344 42.0773C433.008 42.2799 432.743 42.5525 432.548 42.895C432.353 43.2376 432.242 43.6096 432.216 44.011H436.609ZM443.08 40.4033C443.618 40.4033 444.136 40.4862 444.633 40.6519C445.13 40.8177 445.55 41.1215 445.893 41.5635C446.239 42.0018 446.412 42.6022 446.412 43.3646V49H444.788V47.8398H444.721C444.603 48.0755 444.434 48.2947 444.213 48.4972C443.996 48.6998 443.718 48.8656 443.379 48.9945C443.044 49.1234 442.655 49.1878 442.213 49.1878C441.668 49.1878 441.178 49.0866 440.743 48.884C440.313 48.6814 439.972 48.3849 439.721 47.9945C439.471 47.6041 439.346 47.14 439.346 46.6022C439.346 45.7293 439.642 45.105 440.235 44.7293C440.832 44.3536 441.592 44.1326 442.517 44.0663C442.878 44.0442 443.27 44.0221 443.694 44C444.117 43.9779 444.469 43.9613 444.749 43.9503V43.2597C444.749 42.7772 444.602 42.4052 444.307 42.1436C444.012 41.8821 443.583 41.7514 443.02 41.7514C442.545 41.7514 442.156 41.849 441.854 42.0442C441.556 42.2394 441.362 42.5009 441.274 42.8287H439.611C439.662 42.361 439.837 41.9429 440.136 41.5746C440.434 41.2063 440.836 40.919 441.34 40.7127C441.848 40.5064 442.429 40.4033 443.08 40.4033ZM442.583 47.8564C443.022 47.8564 443.405 47.768 443.732 47.5912C444.064 47.4144 444.316 47.1805 444.489 46.8895C444.666 46.5948 444.754 46.2781 444.754 45.9392V45.1657C444.475 45.1805 443.808 45.2247 442.754 45.2983C442.191 45.3389 441.754 45.4696 441.445 45.6906C441.136 45.9079 440.981 46.2192 440.981 46.6243C440.981 47.0221 441.126 47.3278 441.417 47.5414C441.712 47.7514 442.101 47.8564 442.583 47.8564ZM451.857 49.1713C451.05 49.1713 450.346 48.9871 449.746 48.6188C449.149 48.2468 448.691 47.7293 448.37 47.0663C448.05 46.4033 447.89 45.6464 447.89 44.7956C447.89 43.9374 448.052 43.1768 448.376 42.5138C448.704 41.8471 449.166 41.3296 449.763 40.9613C450.359 40.5893 451.052 40.4033 451.84 40.4033C452.477 40.4033 453.05 40.523 453.558 40.7624C454.07 40.9982 454.481 41.3315 454.79 41.7624C455.103 42.1934 455.288 42.6924 455.343 43.2597H453.724C453.661 42.9871 453.549 42.7403 453.387 42.5193C453.229 42.2983 453.019 42.1234 452.757 41.9945C452.499 41.8656 452.201 41.8011 451.862 41.8011C451.405 41.8011 451.004 41.9227 450.658 42.1657C450.311 42.4052 450.043 42.7477 449.851 43.1934C449.663 43.639 449.569 44.1602 449.569 44.7569C449.569 45.3683 449.663 45.9006 449.851 46.3536C450.039 46.8029 450.306 47.1492 450.652 47.3923C450.998 47.6354 451.402 47.7569 451.862 47.7569C452.337 47.7569 452.741 47.6298 453.072 47.3757C453.404 47.1215 453.621 46.7661 453.724 46.3094H455.343C455.284 46.8619 455.103 47.3554 454.801 47.7901C454.503 48.221 454.102 48.5599 453.597 48.8066C453.092 49.0497 452.512 49.1713 451.857 49.1713ZM460.021 47.6354C460.121 47.6354 460.355 47.6262 460.723 47.6077L460.85 47.6022V49.0387C460.577 49.0866 460.233 49.1105 459.817 49.1105C459.364 49.1105 458.95 49.0276 458.574 48.8619C458.198 48.6924 457.898 48.4383 457.673 48.0994C457.449 47.7569 457.336 47.3389 457.336 46.8453V41.8453H456.093V40.5138H457.336V38.4807H459.005V40.5138H460.734V41.8453H459.005V46.5028C459.005 46.9411 459.095 47.2394 459.275 47.3978C459.456 47.5525 459.705 47.6317 460.021 47.6354ZM471.057 49H469.179L468.416 48.105C468.044 48.4475 467.599 48.709 467.079 48.8895C466.56 49.07 466.033 49.1602 465.499 49.1602C464.759 49.1602 464.111 49.0239 463.555 48.7514C462.998 48.4788 462.571 48.1031 462.273 47.6243C461.974 47.1455 461.825 46.6022 461.825 45.9945C461.825 45.5635 461.914 45.175 462.09 44.8287C462.267 44.4788 462.51 44.1584 462.82 43.8674C463.129 43.5727 463.525 43.2578 464.008 42.9227C463.599 42.4291 463.289 41.9761 463.079 41.5635C462.869 41.151 462.764 40.7109 462.764 40.2431C462.764 39.7238 462.882 39.2615 463.118 38.8564C463.357 38.4512 463.693 38.1344 464.124 37.9061C464.558 37.6777 465.059 37.5635 465.626 37.5635C466.19 37.5635 466.683 37.6759 467.107 37.9006C467.534 38.1215 467.862 38.4217 468.09 38.8011C468.323 39.1768 468.439 39.5875 468.439 40.0331C468.439 40.5488 468.311 41.0129 468.057 41.4254C467.803 41.8343 467.429 42.2192 466.936 42.5801L466.157 43.1547L468.416 45.8453C468.73 45.2413 468.886 44.5764 468.886 43.8508H470.389C470.389 45.1731 470.074 46.2486 469.444 47.0773L471.057 49ZM465.66 38.9558C465.405 38.9558 465.177 39.0203 464.974 39.1492C464.772 39.2744 464.613 39.4383 464.499 39.6409C464.385 39.8398 464.328 40.0497 464.328 40.2707C464.328 40.5322 464.405 40.8029 464.56 41.0829C464.715 41.3591 464.941 41.6814 465.24 42.0497L465.941 41.558C466.269 41.3407 466.514 41.1179 466.676 40.8895C466.838 40.6611 466.919 40.3886 466.919 40.0718C466.919 39.895 466.866 39.7201 466.759 39.547C466.652 39.3738 466.503 39.232 466.311 39.1215C466.12 39.011 465.903 38.9558 465.66 38.9558ZM465.51 47.7514C465.857 47.7514 466.197 47.6869 466.532 47.558C466.871 47.4291 467.188 47.2449 467.483 47.0055L464.952 44.0442L464.665 44.2541C464.389 44.4567 464.162 44.6648 463.985 44.8785C463.812 45.0921 463.685 45.291 463.604 45.4751C463.527 45.6593 463.488 45.8177 463.488 45.9503C463.488 46.2744 463.571 46.5746 463.737 46.8508C463.906 47.1271 464.144 47.3462 464.45 47.5083C464.759 47.6703 465.113 47.7514 465.51 47.7514ZM471.994 52.1823V40.5138H473.624V41.8895H473.762C473.902 41.6354 474.06 41.4052 474.237 41.1989C474.414 40.989 474.664 40.8048 474.989 40.6464C475.316 40.4843 475.72 40.4033 476.199 40.4033C476.884 40.4033 477.495 40.5783 478.033 40.9282C478.574 41.2744 478.996 41.7772 479.298 42.4365C479.604 43.0958 479.757 43.8748 479.757 44.7735C479.757 45.6722 479.606 46.453 479.303 47.116C479.001 47.7753 478.582 48.2818 478.044 48.6354C477.51 48.989 476.9 49.1657 476.215 49.1657C475.744 49.1657 475.344 49.0866 475.016 48.9282C474.688 48.7698 474.431 48.5856 474.243 48.3757C474.059 48.1621 473.898 47.93 473.762 47.6796H473.663V52.1823H471.994ZM473.629 44.7569C473.629 45.3499 473.716 45.8729 473.889 46.326C474.062 46.7753 474.315 47.1252 474.646 47.3757C474.978 47.6225 475.375 47.7459 475.839 47.7459C476.315 47.7459 476.72 47.6169 477.055 47.3591C477.39 47.1013 477.642 46.7477 477.812 46.2983C477.985 45.8453 478.071 45.3315 478.071 44.7569C478.071 44.186 477.987 43.6796 477.817 43.2376C477.652 42.7956 477.401 42.4494 477.066 42.1989C476.731 41.9484 476.322 41.8232 475.839 41.8232C475.368 41.8232 474.966 41.9448 474.635 42.1878C474.303 42.4273 474.053 42.768 473.884 43.2099C473.714 43.6483 473.629 44.1639 473.629 44.7569ZM484.593 40.4033C485.131 40.4033 485.648 40.4862 486.145 40.6519C486.643 40.8177 487.063 41.1215 487.405 41.5635C487.751 42.0018 487.924 42.6022 487.924 43.3646V49H486.3V47.8398H486.234C486.116 48.0755 485.947 48.2947 485.726 48.4972C485.508 48.6998 485.23 48.8656 484.891 48.9945C484.556 49.1234 484.168 49.1878 483.726 49.1878C483.18 49.1878 482.691 49.0866 482.256 48.884C481.825 48.6814 481.484 48.3849 481.234 47.9945C480.983 47.6041 480.858 47.14 480.858 46.6022C480.858 45.7293 481.155 45.105 481.748 44.7293C482.344 44.3536 483.105 44.1326 484.029 44.0663C484.39 44.0442 484.783 44.0221 485.206 44C485.63 43.9779 485.982 43.9613 486.261 43.9503V43.2597C486.261 42.7772 486.114 42.4052 485.819 42.1436C485.525 41.8821 485.096 41.7514 484.532 41.7514C484.057 41.7514 483.668 41.849 483.366 42.0442C483.068 42.2394 482.875 42.5009 482.786 42.8287H481.123C481.175 42.361 481.35 41.9429 481.648 41.5746C481.947 41.2063 482.348 40.919 482.853 40.7127C483.361 40.5064 483.941 40.4033 484.593 40.4033ZM484.096 47.8564C484.534 47.8564 484.917 47.768 485.245 47.5912C485.576 47.4144 485.829 47.1805 486.002 46.8895C486.179 46.5948 486.267 46.2781 486.267 45.9392V45.1657C485.987 45.1805 485.32 45.2247 484.267 45.2983C483.703 45.3389 483.267 45.4696 482.958 45.6906C482.648 45.9079 482.494 46.2192 482.494 46.6243C482.494 47.0221 482.639 47.3278 482.93 47.5414C483.225 47.7514 483.613 47.8564 484.096 47.8564ZM493.353 52.3591C492.638 52.3591 492.01 52.2578 491.469 52.0552C490.931 51.8564 490.504 51.5654 490.187 51.1823C489.874 50.8029 489.693 50.3499 489.645 49.8232H491.347C491.424 50.221 491.638 50.5193 491.988 50.7182C492.341 50.9208 492.802 51.0221 493.369 51.0221C494.054 51.0221 494.585 50.8656 494.96 50.5525C495.34 50.2431 495.529 49.7661 495.529 49.1215V47.453H495.419C495.209 47.8435 494.918 48.1786 494.546 48.4586C494.174 48.7348 493.645 48.8729 492.96 48.8729C492.283 48.8729 491.675 48.709 491.137 48.3812C490.603 48.0534 490.181 47.5727 489.872 46.9392C489.562 46.3057 489.408 45.5488 489.408 44.6685C489.408 43.7882 489.561 43.0276 489.866 42.3867C490.172 41.7422 490.594 41.2505 491.132 40.9116C491.673 40.5727 492.288 40.4033 492.977 40.4033C493.459 40.4033 493.864 40.4843 494.192 40.6464C494.52 40.8048 494.772 40.9871 494.949 41.1934C495.126 41.3996 495.288 41.6317 495.435 41.8895H495.546V40.5138H497.176V49.1823C497.176 49.8858 497.012 50.4751 496.684 50.9503C496.356 51.4254 495.905 51.779 495.33 52.011C494.76 52.2431 494.1 52.3591 493.353 52.3591ZM493.336 47.4972C493.804 47.4972 494.203 47.3867 494.535 47.1657C494.866 46.9448 495.117 46.6243 495.286 46.2044C495.459 45.7845 495.546 45.2836 495.546 44.7017C495.546 44.1271 495.459 43.6243 495.286 43.1934C495.117 42.7587 494.866 42.4217 494.535 42.1823C494.203 41.9429 493.804 41.8232 493.336 41.8232C492.853 41.8232 492.445 41.9484 492.109 42.1989C491.778 42.4457 491.527 42.7864 491.358 43.221C491.189 43.6556 491.104 44.1492 491.104 44.7017C491.104 45.2615 491.189 45.7514 491.358 46.1713C491.527 46.5912 491.78 46.9171 492.115 47.1492C492.45 47.3812 492.857 47.4972 493.336 47.4972ZM506.36 45.2597H500.322C500.336 45.7901 500.445 46.2468 500.648 46.6298C500.85 47.0129 501.128 47.3039 501.482 47.5028C501.839 47.7017 502.252 47.8011 502.719 47.8011C503.169 47.8011 503.55 47.7164 503.863 47.547C504.176 47.3738 504.408 47.1473 504.559 46.8674H506.25C506.125 47.3315 505.9 47.7366 505.576 48.0829C505.255 48.4291 504.85 48.698 504.36 48.8895C503.87 49.0773 503.32 49.1713 502.708 49.1713C501.883 49.1713 501.165 48.9926 500.554 48.6354C499.946 48.2744 499.478 47.7661 499.15 47.1105C498.826 46.4512 498.664 45.6851 498.664 44.8122C498.664 43.9503 498.826 43.186 499.15 42.5193C499.478 41.8527 499.939 41.3333 500.532 40.9613C501.125 40.5893 501.81 40.4033 502.587 40.4033C503.268 40.4033 503.892 40.5525 504.46 40.8508C505.031 41.1455 505.489 41.6114 505.835 42.2486C506.185 42.8858 506.36 43.6924 506.36 44.6685V45.2597ZM504.719 44.011C504.719 43.5838 504.631 43.2007 504.454 42.8619C504.277 42.523 504.029 42.2578 503.708 42.0663C503.392 41.8711 503.025 41.7735 502.609 41.7735C502.178 41.7735 501.793 41.8748 501.454 42.0773C501.119 42.2799 500.854 42.5525 500.659 42.895C500.463 43.2376 500.353 43.6096 500.327 44.011H504.719ZM515.473 43.5691H508.384V42.105H515.473V43.5691ZM515.473 46.9779H508.384V45.5193H515.473V46.9779ZM520.463 37.6851H522.142V49H520.418V39.4088H520.352L517.65 41.1713V39.5304L520.463 37.6851Z" fill="#FF8000"/>
<rect x="9" y="6" width="10" height="10" rx="5" fill="#FC4646"/>
<rect x="24" y="6" width="10" height="10" rx="5" fill="#FCAF24"/>
<rect x="39" y="6" width="10" height="10" rx="5" fill="#28C131"/>
</svg>
