<svg width="830" height="400" viewBox="0 0 830 400" fill="none" xmlns="http://www.w3.org/2000/svg">
<rect width="830" height="400" fill="#F5F7FA"/>
<mask id="mask0_7071_15779" style="mask-type:alpha" maskUnits="userSpaceOnUse" x="0" y="0" width="830" height="400">
<rect width="830" height="400" fill="#F5F7FA"/>
</mask>
<g mask="url(#mask0_7071_15779)">
<rect x="232" y="214" width="366" height="141.263" rx="5" fill="white"/>
<rect x="255.933" y="244.938" width="56.0374" height="56.0374" rx="9.33957" fill="#AFBACD" fill-opacity="0.15"/>
<g clip-path="url(#clip0_7071_15779)">
<path d="M283.952 286.966C291.689 286.966 297.961 280.694 297.961 272.957C297.961 265.219 291.689 258.947 283.952 258.947C276.214 258.947 269.942 265.219 269.942 272.957C269.942 280.694 276.214 286.966 283.952 286.966Z" fill="#FBC85B"/>
<path d="M289.039 278.015C289.026 278.658 288.462 280.22 286.465 281.187C285.681 281.569 284.822 281.767 283.952 281.767C283.081 281.767 282.222 281.569 281.438 281.187C279.438 280.223 278.877 278.658 278.864 278.015C278.841 277.654 279.026 277.222 279.515 277.36C280.313 277.653 281.566 277.825 282.538 277.914C283.478 278.003 284.425 278.003 285.365 277.914C286.337 277.821 287.59 277.653 288.388 277.36C288.877 277.222 289.062 277.654 289.039 278.015Z" fill="#9A695E"/>
<path d="M285.419 267.755C285.217 268.516 285.313 269.287 285.725 270.185C286.092 270.989 286.696 271.865 287.397 272.88C287.635 273.226 287.905 273.62 288.184 274.035C288.258 274.145 288.369 274.224 288.496 274.259C288.625 274.294 288.762 274.281 288.881 274.221C289.331 274 289.752 273.79 290.142 273.615C291.255 273.086 292.216 272.629 292.936 272.118C293.742 271.545 294.211 270.926 294.416 270.164C294.618 269.458 294.546 268.702 294.214 268.047C294.053 267.737 293.828 267.463 293.554 267.245C293.28 267.027 292.964 266.869 292.625 266.781C292.111 266.64 291.565 266.68 291.076 266.892C290.812 267.004 290.565 267.153 290.344 267.335C290.244 267.067 290.105 266.814 289.934 266.585C289.616 266.159 289.164 265.854 288.651 265.718C288.314 265.626 287.961 265.605 287.615 265.657C287.269 265.709 286.937 265.832 286.642 266.02C286.031 266.424 285.595 267.043 285.419 267.755V267.755Z" fill="#E46E80"/>
<path d="M281.258 266.028C280.962 265.84 280.631 265.717 280.285 265.665C279.939 265.613 279.586 265.634 279.248 265.726C278.735 265.862 278.284 266.167 277.966 266.593C277.794 266.822 277.656 267.075 277.556 267.343C277.335 267.161 277.088 267.012 276.824 266.9C276.335 266.688 275.788 266.648 275.275 266.789C274.936 266.877 274.619 267.035 274.346 267.253C274.072 267.471 273.847 267.745 273.686 268.055C273.354 268.71 273.282 269.466 273.484 270.172C273.688 270.934 274.158 271.553 274.964 272.126C275.683 272.637 276.645 273.094 277.758 273.623C278.138 273.804 278.569 274.008 279.019 274.229C279.138 274.289 279.275 274.303 279.403 274.267C279.531 274.232 279.642 274.153 279.716 274.043C279.995 273.628 280.264 273.235 280.503 272.888C281.203 271.874 281.8 270.995 282.175 270.194C282.587 269.295 282.683 268.524 282.481 267.763C282.305 267.051 281.869 266.432 281.258 266.028V266.028Z" fill="#E46E80"/>
</g>
<path d="M282.337 310.352V312.71H283.785V313.737H282.337V316.142H281.053V310.352H282.337ZM274.119 315.325C276.512 314.718 277.866 313.492 278.076 312.009H274.609V310.982H279.466C279.466 313.656 277.714 315.512 274.632 316.329L274.119 315.325ZM275.66 320.532V316.562H282.337V320.532H275.66ZM276.92 319.528H281.077V317.59H276.92V319.528ZM293.688 315.302V316.306H284.302V315.302H288.388V314.298H285.446V310.819H292.567V311.823H286.707V313.294H292.614V314.298H289.625V315.302H293.688ZM285.376 318.781C285.387 317.566 286.742 316.889 288.972 316.889C291.201 316.889 292.544 317.566 292.544 318.781C292.544 319.971 291.201 320.66 288.972 320.672C286.742 320.66 285.387 319.971 285.376 318.781ZM286.683 318.781C286.672 319.376 287.477 319.68 288.972 319.668C290.454 319.68 291.271 319.376 291.283 318.781C291.271 318.185 290.454 317.87 288.972 317.87C287.477 317.87 286.672 318.185 286.683 318.781Z" fill="#999999"/>
<rect x="322.477" y="246.105" width="53.7025" height="53.7025" rx="8.17212" stroke="#48BB98" stroke-width="2.33489"/>
<g clip-path="url(#clip1_7071_15779)">
<path d="M349.329 286.966C357.066 286.966 363.338 280.694 363.338 272.957C363.338 265.219 357.066 258.947 349.329 258.947C341.591 258.947 335.319 265.219 335.319 272.957C335.319 280.694 341.591 286.966 349.329 286.966Z" fill="#FBC85B"/>
<path d="M345.717 271.643C346.563 271.643 347.249 270.957 347.249 270.11C347.249 269.264 346.563 268.578 345.717 268.578C344.871 268.578 344.185 269.264 344.185 270.11C344.185 270.957 344.871 271.643 345.717 271.643Z" fill="#3E414D"/>
<path d="M352.94 271.643C353.787 271.643 354.473 270.957 354.473 270.11C354.473 269.264 353.787 268.578 352.94 268.578C352.094 268.578 351.408 269.264 351.408 270.11C351.408 270.957 352.094 271.643 352.94 271.643Z" fill="#3E414D"/>
<path d="M355.458 276.404C354.298 278.553 352.001 280.016 349.356 280.016C346.711 280.016 344.414 278.553 343.254 276.404" stroke="#9A695E" stroke-width="1.25532" stroke-linecap="round"/>
</g>
<path d="M348.182 310.352V320.649H346.897V310.352H348.182ZM339.659 317.823C342.344 316.539 343.593 314.8 343.827 312.453H340.173V311.449H345.123C345.111 314.519 343.92 317.123 340.313 318.827L339.659 317.823ZM351.64 310.608V311.613H352.854V310.608H354.022V314.578H350.449V310.608H351.64ZM349.679 316.376V315.348H359.065V316.376H349.679ZM350.776 320.532V317.193H357.921V320.532H350.776ZM351.64 313.55H352.854V312.57H351.64V313.55ZM352.014 319.504H356.684V318.197H352.014V319.504ZM354.699 314.578V310.608H355.913V311.613H357.08V310.608H358.271V314.578H354.699ZM355.913 313.55H357.08V312.57H355.913V313.55Z" fill="#3E3E3E"/>
<rect x="386.687" y="244.938" width="56.0374" height="56.0374" rx="9.33957" fill="#AFBACD" fill-opacity="0.15"/>
<path d="M414.706 286.966C422.443 286.966 428.715 280.694 428.715 272.957C428.715 265.219 422.443 258.947 414.706 258.947C406.969 258.947 400.696 265.219 400.696 272.957C400.696 280.694 406.969 286.966 414.706 286.966Z" fill="#FBC85B"/>
<path d="M412.854 283.078L412.694 282.287L414.724 281.874C414.876 281.841 415.018 281.776 415.143 281.685C415.269 281.593 415.373 281.477 415.451 281.343C415.612 281.081 415.669 280.77 415.611 280.469C415.61 280.456 415.61 280.443 415.611 280.43C415.539 280.137 415.357 279.882 415.104 279.718C414.979 279.634 414.838 279.575 414.69 279.545C414.542 279.516 414.39 279.515 414.242 279.545L408.539 280.705C408.495 280.716 408.449 280.717 408.404 280.708C408.359 280.699 408.317 280.681 408.28 280.654C408.208 280.603 408.157 280.526 408.138 280.44C408.126 280.38 408.13 280.318 408.15 280.26L408.639 278.887V278.874C408.699 278.65 408.7 278.415 408.644 278.19C408.587 277.966 408.475 277.759 408.316 277.59C408.157 277.422 407.958 277.296 407.738 277.226C407.517 277.155 407.282 277.142 407.055 277.188C406.868 277.226 406.692 277.302 406.536 277.412C406.381 277.523 406.251 277.664 406.154 277.828L404.825 280.086C404.127 281.273 403.893 282.677 404.168 284.026C404.419 285.262 405.151 286.347 406.201 287.043C407.252 287.74 408.537 287.991 409.772 287.741C410.8 287.532 411.702 286.924 412.281 286.051C412.86 285.177 413.069 284.109 412.861 283.081L412.854 283.078Z" fill="#E8AA26"/>
<path d="M419.98 266.39C419.98 266.39 419.025 266.565 417.906 267.246C416.786 267.926 416.074 268.558 416.074 268.558" stroke="#3E414D" stroke-width="1.0461" stroke-linecap="round" stroke-linejoin="round"/>
<path d="M408.522 269.898C408.522 269.898 409.45 269.687 410.759 269.628C411.22 269.607 411.634 269.631 411.976 269.672" stroke="#3E414D" stroke-width="1.0461" stroke-linecap="round" stroke-linejoin="round"/>
<path d="M410.656 273.832C411.502 273.832 412.188 273.146 412.188 272.3C412.188 271.454 411.502 270.768 410.656 270.768C409.81 270.768 409.124 271.454 409.124 272.3C409.124 273.146 409.81 273.832 410.656 273.832Z" fill="#3E414D"/>
<rect x="417.606" y="269.454" width="2.35313" height="4.1043" rx="1.17657" fill="#494D59"/>
<path d="M418.132 278.218C416.975 277.434 415.527 277.068 414.032 277.298C413.729 277.345 413.434 277.414 413.15 277.505" stroke="#9A695E" stroke-width="1.25532" stroke-linecap="round"/>
<path d="M413.372 311.286V312.29C413.36 313.574 413.36 315.01 412.975 317.146L411.691 317.029C412.088 315.021 412.088 313.55 412.088 312.313H405.947V311.286H413.372ZM404.966 319.318V318.29H408.422V314.695H409.683V318.29H414.353V319.318H404.966ZM420.543 311.216V316.119H415.57V311.216H420.543ZM416.807 320.392V317.029H418.091V319.364H423.905V320.392H416.807ZM416.831 315.091H419.282V312.22H416.831V315.091ZM422.364 317.73V310.375H423.625V317.73H422.364Z" fill="#999999"/>
<rect x="452.064" y="244.938" width="56.0374" height="56.0374" rx="9.33957" fill="#AFBACD" fill-opacity="0.15"/>
<g clip-path="url(#clip2_7071_15779)">
<path d="M480.083 286.966C487.82 286.966 494.092 280.694 494.092 272.957C494.092 265.219 487.82 258.947 480.083 258.947C472.346 258.947 466.074 265.219 466.074 272.957C466.074 280.694 472.346 286.966 480.083 286.966Z" fill="#FBC85B"/>
<path d="M477.356 279.156C477.356 280.773 476.139 282.083 474.634 282.083C473.129 282.083 471.913 280.773 471.913 279.156C471.913 277.875 473.608 275.555 474.314 274.634C474.35 274.586 474.397 274.546 474.45 274.519C474.504 274.492 474.564 274.478 474.624 274.478C474.684 274.478 474.744 274.492 474.798 274.519C474.851 274.546 474.898 274.586 474.934 274.634C475.661 275.555 477.356 277.88 477.356 279.156Z" fill="#5195EE"/>
<path d="M476.471 271.643C477.317 271.643 478.003 270.957 478.003 270.11C478.003 269.264 477.317 268.578 476.471 268.578C475.625 268.578 474.939 269.264 474.939 270.11C474.939 270.957 475.625 271.643 476.471 271.643Z" fill="#3E414D"/>
<path d="M483.695 271.643C484.541 271.643 485.227 270.957 485.227 270.11C485.227 269.264 484.541 268.578 483.695 268.578C482.848 268.578 482.162 269.264 482.162 270.11C482.162 270.957 482.848 271.643 483.695 271.643Z" fill="#3E414D"/>
<path d="M484.023 279.414C482.998 278.463 481.622 277.882 480.11 277.882C479.803 277.882 479.501 277.906 479.207 277.952" stroke="#9A695E" stroke-width="1.25532" stroke-linecap="round"/>
</g>
<path d="M475.69 310.702C475.679 311.823 477.08 312.85 479.239 313.083L478.819 314.041C477.08 313.831 475.69 313.119 475.025 312.115C474.359 313.119 472.993 313.831 471.254 314.041L470.81 313.083C472.97 312.85 474.371 311.823 474.383 310.702V310.445H475.69V310.702ZM470.343 315.535V314.508H479.73V315.535H470.343ZM471.441 320.578V317.94H477.301V317.216H471.441V316.259H478.562V318.827H472.702V319.598H478.842V320.578H471.441ZM489.819 315.348V316.352H480.433V315.348H489.819ZM481.274 311.729V310.702H488.955V311.729H487.531V313.527H488.885V314.531H481.32V313.527H482.698V311.729H481.274ZM481.531 320.532V317.216H488.675V320.532H481.531ZM482.791 319.504H487.438V318.22H482.791V319.504ZM483.959 313.527H486.27V311.729H483.959V313.527Z" fill="#999999"/>
<rect x="517.441" y="244.938" width="56.0374" height="56.0374" rx="9.33957" fill="#AFBACD" fill-opacity="0.15"/>
<path d="M545.46 286.965C553.197 286.965 559.469 280.693 559.469 272.956C559.469 265.218 553.197 258.946 545.46 258.946C537.723 258.946 531.451 265.218 531.451 272.956C531.451 280.693 537.723 286.965 545.46 286.965Z" fill="#E46E80"/>
<path d="M554.95 275.667H535.97C535.471 275.667 535.066 276.072 535.066 276.571V282.898C535.066 283.397 535.471 283.801 535.97 283.801H554.95C555.449 283.801 555.854 283.397 555.854 282.898V276.571C555.854 276.072 555.449 275.667 554.95 275.667Z" fill="#494D59"/>
<path d="M553.104 280.864L553.462 280.506C553.639 280.329 553.639 280.043 553.462 279.867C553.285 279.69 553 279.69 552.823 279.867L552.465 280.225L552.148 279.908C552.475 279.661 552.691 279.272 552.691 278.83C552.691 278.083 552.083 277.475 551.335 277.475C550.587 277.475 549.979 278.083 549.979 278.83C549.979 278.975 550.008 279.112 550.05 279.243C549.691 279.571 549.491 280.052 549.533 280.549C549.602 281.359 550.324 281.994 551.177 281.994C551.649 281.994 552.107 281.81 552.457 281.496L552.823 281.861C552.911 281.95 553.027 281.994 553.143 281.994C553.258 281.994 553.374 281.95 553.462 281.861C553.639 281.685 553.639 281.399 553.462 281.222L553.104 280.864ZM551.335 278.378C551.584 278.378 551.787 278.581 551.787 278.83C551.787 279.08 551.584 279.282 551.335 279.282C551.086 279.282 550.883 279.08 550.883 278.83C550.883 278.581 551.086 278.378 551.335 278.378ZM551.177 281.09C550.796 281.09 550.462 280.813 550.433 280.473C550.418 280.282 550.481 280.104 550.601 279.967C550.757 280.068 550.936 280.135 551.127 280.165L551.818 280.857C551.638 281.003 551.411 281.09 551.177 281.09Z" fill="#F9FAFC"/>
<path d="M541.212 277.565C541.012 277.416 540.729 277.455 540.579 277.655L537.868 281.271C537.718 281.47 537.759 281.753 537.958 281.903C538.04 281.964 538.135 281.993 538.229 281.993C538.367 281.993 538.502 281.931 538.591 281.813L541.302 278.197C541.452 277.998 541.412 277.714 541.212 277.565Z" fill="#F9FAFC"/>
<path d="M543.2 280.638C543.45 280.638 543.652 280.436 543.652 280.186L543.652 277.927C543.652 277.677 543.45 277.475 543.2 277.475C542.951 277.475 542.749 277.677 542.749 277.927V280.186C542.749 280.436 542.951 280.638 543.2 280.638Z" fill="#F9FAFC"/>
<path d="M543.2 281.09C542.951 281.09 542.749 281.292 542.749 281.542C542.749 281.792 542.951 281.994 543.2 281.994H543.205C543.455 281.994 543.655 281.792 543.655 281.542C543.655 281.292 543.45 281.09 543.2 281.09Z" fill="#F9FAFC"/>
<path d="M548.623 278.379H548.524L548.61 278.037C548.671 277.795 548.523 277.549 548.281 277.489C548.039 277.426 547.794 277.575 547.733 277.818L547.593 278.379H546.716L546.802 278.037C546.863 277.795 546.716 277.549 546.473 277.489C546.23 277.426 545.986 277.575 545.926 277.818L545.785 278.379H545.46C545.21 278.379 545.008 278.581 545.008 278.831C545.008 279.081 545.21 279.283 545.46 279.283H545.559L545.333 280.187H545.008C544.758 280.187 544.556 280.389 544.556 280.639C544.556 280.888 544.758 281.091 545.008 281.091H545.107L545.022 281.433C544.961 281.675 545.108 281.92 545.351 281.981C545.387 281.99 545.424 281.994 545.46 281.994C545.663 281.994 545.847 281.858 545.898 281.652L546.039 281.091H546.915L546.829 281.433C546.769 281.675 546.916 281.92 547.158 281.981C547.195 281.99 547.232 281.994 547.268 281.994C547.471 281.994 547.655 281.858 547.706 281.652L547.846 281.091H548.172C548.421 281.091 548.623 280.888 548.623 280.639C548.623 280.389 548.421 280.187 548.172 280.187H548.072L548.298 279.283H548.623C548.873 279.283 549.075 279.081 549.075 278.831C549.075 278.581 548.873 278.379 548.623 278.379ZM547.141 280.187H546.265L546.491 279.283H547.367L547.141 280.187Z" fill="#F9FAFC"/>
<path d="M539.133 278.378C539.133 277.88 538.728 277.475 538.229 277.475C537.731 277.475 537.326 277.88 537.326 278.378C537.326 278.877 537.731 279.282 538.229 279.282C538.728 279.282 539.133 278.877 539.133 278.378Z" fill="#F9FAFC"/>
<path d="M540.941 280.187C540.443 280.187 540.037 280.592 540.037 281.09C540.037 281.589 540.443 281.994 540.941 281.994C541.439 281.994 541.845 281.589 541.845 281.09C541.845 280.592 541.439 280.187 540.941 280.187Z" fill="#F9FAFC"/>
<path d="M552.326 266.578C552.172 266.355 551.916 266.347 551.642 266.452C551.642 266.452 550.404 267.018 549.644 267.211C548.884 267.404 547.647 267.583 547.647 267.583C547.399 267.631 547.117 267.845 547.134 268.116C547.15 268.388 547.383 268.595 547.655 268.578L547.706 268.575C547.737 268.572 547.782 268.569 547.839 268.563C547.954 268.552 548.119 268.535 548.325 268.507C548.735 268.453 549.308 268.358 549.965 268.198C550.643 268.032 551.195 267.803 551.579 267.614C551.771 267.519 551.923 267.435 552.028 267.372C552.08 267.341 552.121 267.315 552.15 267.296L552.2 267.264C552.424 267.109 552.48 266.802 552.326 266.578Z" fill="#3E414D"/>
<path d="M538.582 266.578C538.736 266.355 538.992 266.347 539.266 266.452C539.266 266.452 540.504 267.018 541.264 267.211C542.023 267.404 543.261 267.583 543.261 267.583C543.509 267.631 543.791 267.845 543.774 268.116C543.758 268.388 543.525 268.595 543.253 268.578L543.202 268.575C543.171 268.572 543.126 268.569 543.069 268.563C542.954 268.552 542.789 268.535 542.583 268.507C542.173 268.453 541.6 268.358 540.943 268.198C540.265 268.032 539.713 267.803 539.329 267.614C539.137 267.519 538.985 267.435 538.88 267.372C538.828 267.341 538.787 267.315 538.758 267.296L538.708 267.264C538.484 267.109 538.428 266.802 538.582 266.578Z" fill="#3E414D"/>
<path d="M541.848 272.956C542.694 272.956 543.38 272.27 543.38 271.424C543.38 270.578 542.694 269.892 541.848 269.892C541.002 269.892 540.316 270.578 540.316 271.424C540.316 272.27 541.002 272.956 541.848 272.956Z" fill="#3E414D"/>
<path d="M549.072 272.956C549.918 272.956 550.604 272.27 550.604 271.424C550.604 270.578 549.918 269.892 549.072 269.892C548.226 269.892 547.54 270.578 547.54 271.424C547.54 272.27 548.226 272.956 549.072 272.956Z" fill="#3E414D"/>
<path d="M545.13 315.699V316.703H541.137V318.477H539.877V316.703H535.697V315.699H545.13ZM536.841 320.462V317.613H538.102V319.434H544.079V320.462H536.841ZM536.935 314.881V310.679H538.172V311.846H542.632V310.679H543.893V314.881H536.935ZM538.172 313.877H542.632V312.78H538.172V313.877ZM554.169 314.881V315.909H551.134V318.407H555.22V319.434H545.81V318.407H549.873V315.909H546.884V311.169H548.192V314.881H554.169Z" fill="#999999"/>
<g filter="url(#filter0_d_7071_15779)">
<rect x="232" y="45" width="365.7" height="159" rx="5" fill="white" shape-rendering="crispEdges"/>
<line x1="232" y1="44.7792" x2="597.7" y2="44.7792" stroke="#F2F2F2" stroke-width="0.441667"/>
<line x1="232" y1="60.6796" x2="597.7" y2="60.6796" stroke="#F2F2F2" stroke-width="0.441667"/>
<line x1="232" y1="76.579" x2="597.7" y2="76.579" stroke="#F2F2F2" stroke-width="0.441667"/>
<line x1="232" y1="92.4794" x2="597.7" y2="92.4794" stroke="#F2F2F2" stroke-width="0.441667"/>
<line x1="232" y1="108.379" x2="597.7" y2="108.379" stroke="#F2F2F2" stroke-width="0.441667"/>
<line x1="232" y1="124.279" x2="597.7" y2="124.279" stroke="#F2F2F2" stroke-width="0.441667"/>
<line x1="232" y1="140.18" x2="597.7" y2="140.18" stroke="#F2F2F2" stroke-width="0.441667"/>
<line x1="232" y1="156.08" x2="597.7" y2="156.08" stroke="#F2F2F2" stroke-width="0.441667"/>
<line x1="232" y1="171.979" x2="597.7" y2="171.979" stroke="#F2F2F2" stroke-width="0.441667"/>
<line x1="232" y1="187.88" x2="597.7" y2="187.88" stroke="#F2F2F2" stroke-width="0.441667"/>
<line x1="232" y1="203.779" x2="597.7" y2="203.779" stroke="#F2F2F2" stroke-width="0.441667"/>
</g>
<path d="M274.316 83.6124L274.212 84.2347H273.285L273.029 85.7842H273.95L273.846 86.4064H272.928L272.644 88.1328H272.016L272.3 86.4064H270.732L270.448 88.1328H269.82L270.104 86.4064H269.179L269.277 85.7842H270.204L270.46 84.2347H269.545L269.643 83.6124H270.561L270.845 81.886H271.473L271.189 83.6124H272.757L273.041 81.886H273.669L273.386 83.6124H274.316ZM270.833 85.7842H272.4L272.657 84.2347H271.089L270.833 85.7842ZM281.717 84.7349H278.52V86.0404H280.826V88.7245H275.58V86.0404H277.855V84.7349H274.708V84.1798H276.892C277.073 83.464 277.174 82.7686 277.197 82.0934H275.385V81.5383H277.862V81.7457C277.862 82.0914 277.844 82.4564 277.81 82.8407C277.777 83.2251 277.698 83.6714 277.572 84.1798H279.96C280.06 83.7629 280.128 83.3877 280.164 83.0543C280.201 82.7187 280.222 82.3985 280.229 82.0934H278.441V81.5383H280.887V81.8311C280.883 82.0833 280.877 82.307 280.869 82.5022C280.861 82.6974 280.84 82.9424 280.805 83.2373C280.77 83.5301 280.717 83.8443 280.643 84.1798H281.717V84.7349ZM276.245 88.1755H280.149V86.5833H276.245V88.1755ZM285.831 83.9663C285.262 83.9642 284.774 83.9114 284.367 83.8077C283.963 83.7039 283.653 83.5525 283.437 83.3532C283.223 83.1539 283.117 82.9109 283.117 82.6242C283.117 82.3415 283.223 82.1016 283.437 81.9043C283.653 81.7071 283.963 81.5576 284.367 81.456C284.774 81.3523 285.262 81.3004 285.831 81.3004C286.401 81.3004 286.888 81.3512 287.292 81.4529C287.697 81.5546 288.006 81.7051 288.22 81.9043C288.433 82.1016 288.54 82.3415 288.54 82.6242C288.54 82.9109 288.433 83.1539 288.22 83.3532C288.006 83.5525 287.697 83.7039 287.292 83.8077C286.888 83.9114 286.401 83.9642 285.831 83.9663ZM285.831 81.8128C285.412 81.8128 285.052 81.8454 284.749 81.9104C284.448 81.9755 284.218 82.069 284.059 82.1911C283.901 82.311 283.822 82.4554 283.824 82.6242C283.822 82.7991 283.9 82.9485 284.056 83.0726C284.215 83.1946 284.445 83.2881 284.745 83.3532C285.046 83.4162 285.408 83.4477 285.831 83.4477C286.256 83.4477 286.619 83.4162 286.92 83.3532C287.223 83.2881 287.454 83.1946 287.613 83.0726C287.771 82.9485 287.851 82.7991 287.851 82.6242C287.851 82.4554 287.77 82.311 287.61 82.1911C287.451 82.069 287.22 81.9755 286.917 81.9104C286.614 81.8454 286.252 81.8128 285.831 81.8128ZM282.342 85.0338V84.4848H289.333V85.0338H282.342ZM288.43 87.413H283.873V88.2121H288.662V88.7489H283.208V86.9127H287.765V86.2173H283.19V85.6988H288.43V87.413ZM295.619 81.1662H296.296V88.8466H295.619V81.1662ZM292.221 81.7579C292.599 81.76 292.936 81.8708 293.231 82.0904C293.528 82.31 293.759 82.6221 293.926 83.0268C294.095 83.4294 294.179 83.8971 294.179 84.4299C294.179 84.9647 294.095 85.4344 293.926 85.8391C293.759 86.2437 293.528 86.5559 293.231 86.7755C292.934 86.9931 292.597 87.1019 292.221 87.1019C291.841 87.1019 291.502 86.9931 291.205 86.7755C290.909 86.5559 290.677 86.2447 290.51 85.8421C290.345 85.4375 290.263 84.9667 290.263 84.4299C290.263 83.8951 290.345 83.4264 290.51 83.0238C290.677 82.6211 290.909 82.31 291.205 82.0904C291.502 81.8708 291.841 81.76 292.221 81.7579ZM292.221 82.3619C291.967 82.3639 291.74 82.4513 291.541 82.6242C291.344 82.795 291.19 83.037 291.08 83.3501C290.971 83.6612 290.916 84.0212 290.916 84.4299C290.916 84.8406 290.971 85.2026 291.08 85.5158C291.19 85.8289 291.344 86.0709 291.541 86.2417C291.74 86.4125 291.967 86.4979 292.221 86.4979C292.475 86.4979 292.7 86.4125 292.895 86.2417C293.093 86.0709 293.246 85.8289 293.356 85.5158C293.466 85.2026 293.521 84.8406 293.521 84.4299C293.521 84.0212 293.466 83.6612 293.356 83.3501C293.246 83.037 293.093 82.795 292.895 82.6242C292.7 82.4513 292.475 82.3639 292.221 82.3619ZM298.465 82.9353H303.083V82.0263H298.446V81.4773H303.772V83.466H299.148V84.4604H303.937V85.0216H298.465V82.9353ZM297.598 85.8269H304.62V86.3759H301.435V88.8466H300.758V86.3759H297.598V85.8269ZM310.717 82.5022H305.989V81.9409H311.394V82.7035V82.7706C311.392 83.1935 311.385 83.5596 311.373 83.8687C311.362 84.1777 311.337 84.5336 311.296 84.9362C311.256 85.3388 311.193 85.774 311.107 86.2417L310.424 86.1624C310.511 85.7211 310.575 85.3033 310.616 84.9088C310.659 84.5143 310.685 84.1635 310.695 83.8565C310.708 83.5494 310.715 83.1874 310.717 82.7706V82.7035V82.5022ZM308.655 84.4421V87.1812H312.236V87.7485H305.245V87.1812H307.984V84.4421H308.655ZM318.534 81.1723H319.211V85.4303H318.534V81.1723ZM315.255 83.3562C315.084 83.7995 314.826 84.1889 314.48 84.5244C314.135 84.8579 313.733 85.107 313.276 85.2717L312.934 84.7349C313.316 84.6007 313.656 84.4055 313.953 84.1493C314.252 83.8931 314.484 83.5962 314.651 83.2586C314.82 82.9211 314.904 82.5693 314.904 82.2033V81.4529H315.594V82.2033C315.592 82.553 315.674 82.8875 315.841 83.2068C316.01 83.526 316.243 83.8066 316.542 84.0486C316.841 84.2886 317.18 84.4706 317.558 84.5946L317.223 85.1314C316.769 84.9769 316.371 84.7461 316.027 84.439C315.685 84.13 315.428 83.769 315.255 83.3562ZM318.199 86.443V88.1755H319.339V88.7306H314.032V88.1755H315.179V86.443H314.105V85.8879H319.26V86.443H318.199ZM317.528 86.443H315.85V88.1755H317.528V86.443ZM324.003 83.9663C323.433 83.9642 322.945 83.9114 322.539 83.8077C322.134 83.7039 321.824 83.5525 321.608 83.3532C321.395 83.1539 321.288 82.9109 321.288 82.6242C321.288 82.3415 321.395 82.1016 321.608 81.9043C321.824 81.7071 322.134 81.5576 322.539 81.456C322.945 81.3523 323.433 81.3004 324.003 81.3004C324.572 81.3004 325.059 81.3512 325.464 81.4529C325.868 81.5546 326.178 81.7051 326.391 81.9043C326.605 82.1016 326.711 82.3415 326.711 82.6242C326.711 82.9109 326.605 83.1539 326.391 83.3532C326.178 83.5525 325.868 83.7039 325.464 83.8077C325.059 83.9114 324.572 83.9642 324.003 83.9663ZM324.003 81.8128C323.584 81.8128 323.223 81.8454 322.92 81.9104C322.619 81.9755 322.389 82.069 322.231 82.1911C322.072 82.311 321.994 82.4554 321.996 82.6242C321.994 82.7991 322.071 82.9485 322.228 83.0726C322.386 83.1946 322.616 83.2881 322.917 83.3532C323.218 83.4162 323.58 83.4477 324.003 83.4477C324.428 83.4477 324.791 83.4162 325.092 83.3532C325.395 83.2881 325.625 83.1946 325.784 83.0726C325.943 82.9485 326.022 82.7991 326.022 82.6242C326.022 82.4554 325.942 82.311 325.781 82.1911C325.622 82.069 325.392 81.9755 325.089 81.9104C324.786 81.8454 324.424 81.8128 324.003 81.8128ZM320.513 85.0338V84.4848H327.504V85.0338H320.513ZM326.602 87.413H322.045V88.2121H326.833V88.7489H321.38V86.9127H325.937V86.2173H321.361V85.6988H326.602V87.413ZM334.156 84.3018V81.1662H334.803V88.8344H334.156V84.863H333.229V88.45H332.595V81.337H333.229V84.3018H334.156ZM329.008 86.2539C329.398 86.2376 329.76 86.1868 330.094 86.1014L330.155 86.6809C329.87 86.746 329.612 86.7877 329.38 86.806C329.148 86.8243 328.916 86.8334 328.684 86.8334H328.379V82.1361H330.045V82.6974H329.008V86.2539ZM330.996 86.2569C331.21 86.2508 331.418 86.2356 331.622 86.2112C331.825 86.1848 332.032 86.14 332.241 86.077L332.308 86.6565C332.023 86.7318 331.757 86.7806 331.509 86.8029C331.263 86.8233 330.99 86.8334 330.691 86.8334H330.38V82.1361H332.082V82.6974H330.996V86.2569Z" fill="#ABB8CE"/>
<path d="M348.383 83.6124L348.279 84.2347H347.352L347.095 85.7842H348.016L347.913 86.4064H346.995L346.711 88.1328H346.083L346.366 86.4064H344.799L344.515 88.1328H343.887L344.17 86.4064H343.246L343.344 85.7842H344.271L344.527 84.2347H343.612L343.71 83.6124H344.628L344.911 81.886H345.54L345.256 83.6124H346.824L347.108 81.886H347.736L347.452 83.6124H348.383ZM344.899 85.7842H346.467L346.723 84.2347H345.155L344.899 85.7842ZM354.71 84.2286H355.954V84.7959H354.71V88.8283H354.033V81.1662H354.71V84.2286ZM349.763 86.3149C350.36 86.3129 350.948 86.2844 351.526 86.2295C352.103 86.1746 352.693 86.0851 353.295 85.9611L353.38 86.5406C352.754 86.6647 352.141 86.7531 351.541 86.806C350.943 86.8568 350.33 86.8822 349.702 86.8822H349.092V81.9226H349.763V86.3149ZM362.344 84.2286H363.625V84.8081H362.344V88.8344H361.667V81.1662H362.344V84.2286ZM358.458 81.7579C358.835 81.76 359.169 81.8708 359.462 82.0904C359.755 82.31 359.983 82.6211 360.148 83.0238C360.313 83.4264 360.396 83.8951 360.398 84.4299C360.396 84.9667 360.313 85.4375 360.148 85.8421C359.983 86.2447 359.755 86.5559 359.462 86.7755C359.169 86.9931 358.835 87.1019 358.458 87.1019C358.082 87.1019 357.748 86.9931 357.455 86.7755C357.162 86.5559 356.934 86.2447 356.772 85.8421C356.609 85.4375 356.529 84.9667 356.531 84.4299C356.529 83.8951 356.609 83.4264 356.772 83.0238C356.934 82.6211 357.162 82.31 357.455 82.0904C357.748 81.8708 358.082 81.76 358.458 81.7579ZM358.458 86.4979C358.713 86.4979 358.936 86.4125 359.129 86.2417C359.325 86.0709 359.476 85.8299 359.584 85.5188C359.692 85.2057 359.746 84.8427 359.746 84.4299C359.746 84.0191 359.692 83.6582 359.584 83.3471C359.476 83.036 359.325 82.795 359.129 82.6242C358.936 82.4513 358.713 82.3639 358.458 82.3619C358.208 82.3639 357.986 82.4513 357.79 82.6242C357.595 82.795 357.443 83.037 357.333 83.3501C357.225 83.6612 357.171 84.0212 357.171 84.4299C357.171 84.8406 357.225 85.2026 357.333 85.5158C357.443 85.8289 357.595 86.0709 357.79 86.2417C357.986 86.4125 358.208 86.4979 358.458 86.4979ZM369.979 84.2835H371.223V84.8569H369.979V88.8283H369.301V81.1662H369.979V84.2835ZM367.996 81.9897C367.994 82.736 367.87 83.4406 367.624 84.1035C367.38 84.7664 366.995 85.3765 366.471 85.9336C365.948 86.4908 365.281 86.9697 364.47 87.3703L364.092 86.8395C365.078 86.3495 365.84 85.7425 366.379 85.0186C366.92 84.2926 367.229 83.4721 367.307 82.5571H364.452V81.9897H367.996ZM378.857 83.0939V83.6734H377.613V85.3815H378.857V85.9489H377.613V88.8344H376.936V81.1662H377.613V83.0939H378.857ZM373.727 81.7579C374.103 81.76 374.438 81.8708 374.73 82.0904C375.023 82.31 375.252 82.6211 375.417 83.0238C375.581 83.4264 375.665 83.8951 375.667 84.4299C375.665 84.9667 375.581 85.4375 375.417 85.8421C375.252 86.2447 375.023 86.5559 374.73 86.7755C374.438 86.9931 374.103 87.1019 373.727 87.1019C373.351 87.1019 373.016 86.9931 372.723 86.7755C372.431 86.5559 372.203 86.2447 372.04 85.8421C371.877 85.4375 371.797 84.9667 371.799 84.4299C371.797 83.8951 371.877 83.4264 372.04 83.0238C372.203 82.6211 372.431 82.31 372.723 82.0904C373.016 81.8708 373.351 81.76 373.727 81.7579ZM373.727 86.4979C373.981 86.4979 374.205 86.4125 374.398 86.2417C374.593 86.0709 374.745 85.8299 374.852 85.5188C374.96 85.2057 375.014 84.8427 375.014 84.4299C375.014 84.0191 374.96 83.6582 374.852 83.3471C374.745 83.036 374.593 82.795 374.398 82.6242C374.205 82.4513 373.981 82.3639 373.727 82.3619C373.477 82.3639 373.254 82.4513 373.059 82.6242C372.864 82.795 372.711 83.037 372.601 83.3501C372.494 83.6612 372.44 84.0212 372.44 84.4299C372.44 84.8406 372.494 85.2026 372.601 85.5158C372.711 85.8289 372.864 86.0709 373.059 86.2417C373.254 86.4125 373.477 86.4979 373.727 86.4979ZM381.953 81.8616H383.899V82.4046H379.33V81.8616H381.282V81.0869H381.953V81.8616ZM385.308 81.1357V83.0024H386.467V83.5636H385.308V85.3815H384.631V81.1357H385.308ZM383.46 84.009C383.458 84.2652 383.38 84.4889 383.228 84.68C383.077 84.8691 382.863 85.0145 382.584 85.1162C382.308 85.2158 381.985 85.2656 381.617 85.2656C381.245 85.2656 380.919 85.2158 380.638 85.1162C380.36 85.0145 380.144 84.8691 379.992 84.68C379.841 84.4889 379.767 84.2652 379.769 84.009C379.767 83.7527 379.841 83.5301 379.992 83.341C380.144 83.1519 380.36 83.0065 380.638 82.9048C380.919 82.8031 381.245 82.7523 381.617 82.7523C381.985 82.7523 382.308 82.8031 382.584 82.9048C382.861 83.0065 383.075 83.1519 383.228 83.341C383.38 83.5301 383.458 83.7527 383.46 84.009ZM380.416 84.009C380.414 84.1615 380.461 84.2947 380.559 84.4085C380.659 84.5204 380.799 84.6068 380.98 84.6678C381.163 84.7288 381.375 84.7593 381.617 84.7593C381.855 84.7593 382.065 84.7288 382.246 84.6678C382.427 84.6068 382.567 84.5204 382.667 84.4085C382.766 84.2947 382.817 84.1615 382.819 84.009C382.817 83.8585 382.766 83.7263 382.667 83.6124C382.567 83.4965 382.427 83.4081 382.246 83.3471C382.065 83.284 381.855 83.2525 381.617 83.2525C381.375 83.2525 381.163 83.284 380.98 83.3471C380.799 83.4081 380.659 83.4965 380.559 83.6124C380.461 83.7263 380.414 83.8585 380.416 84.009ZM385.308 87.4801H381.099V88.2243H385.589V88.7489H380.434V86.9798H384.637V86.2905H380.416V85.7781H385.308V87.4801ZM392.955 84.3018V81.1662H393.601V88.8344H392.955V84.863H392.027V88.45H391.393V81.337H392.027V84.3018H392.955ZM387.806 86.2539C388.196 86.2376 388.558 86.1868 388.892 86.1014L388.953 86.6809C388.668 86.746 388.41 86.7877 388.178 86.806C387.946 86.8243 387.714 86.8334 387.483 86.8334H387.178V82.1361H388.843V82.6974H387.806V86.2539ZM389.795 86.2569C390.008 86.2508 390.217 86.2356 390.42 86.2112C390.623 86.1848 390.83 86.14 391.039 86.077L391.106 86.6565C390.822 86.7318 390.555 86.7806 390.307 86.8029C390.061 86.8233 389.789 86.8334 389.49 86.8334H389.178V82.1361H390.88V82.6974H389.795V86.2569Z" fill="#ABB8CE"/>
<path d="M271.672 115.625C271.672 113.35 273.354 112.516 275.446 112.516C277.538 112.516 279.234 113.35 279.234 115.625C279.234 117.872 277.538 118.692 275.446 118.692C273.354 118.692 271.672 117.872 271.672 115.625ZM272.676 115.639C272.676 117.321 273.934 117.929 275.446 117.929C276.986 117.929 278.244 117.321 278.244 115.639C278.244 113.901 276.986 113.279 275.446 113.279C273.934 113.279 272.676 113.901 272.676 115.639ZM269.496 122.027C269.284 121.801 269.51 121.448 269.764 121.575C270.005 121.688 270.584 121.688 271.333 121.688H275.093V120.6C275.093 120.035 274.951 119.893 274.259 119.724C273.99 119.653 274.075 119.158 274.414 119.201L275.856 119.356C276.138 119.384 276.11 119.568 276.11 119.667C276.11 119.794 276.068 119.978 276.068 120.36V121.688H280.802C281.057 121.688 281.17 121.632 281.297 121.632C281.467 121.632 281.537 121.731 281.537 121.9C281.537 122.183 281.212 122.466 280.802 122.466H271.333C270.895 122.466 270.598 122.536 270.372 122.536C270.132 122.536 269.821 122.381 269.496 122.027ZM290.334 113.307V115.95H292.298V113.279C292.298 112.615 292.016 112.431 291.295 112.247C291.026 112.176 291.168 111.682 291.464 111.724L293.033 111.95C293.33 111.993 293.302 112.162 293.302 112.261C293.302 112.374 293.245 112.615 293.245 113.01V119.893C293.245 120.444 293.047 120.939 292.638 120.939C292.454 120.939 292.298 120.727 292.298 120.232V116.713H290.334V118.664C290.334 119.215 290.136 119.71 289.74 119.71C289.556 119.71 289.401 119.498 289.401 119.003V118.565C287.733 119.045 285.995 119.399 284.143 119.399C283.522 119.399 283.196 118.989 283.196 118.423V116.869C283.196 116.388 283.055 116.233 282.447 116.148C282.136 116.106 282.264 115.597 282.49 115.597H286.532V113.632H284.61C284.172 113.632 283.875 113.703 283.649 113.703C283.408 113.703 283.098 113.547 282.772 113.194C282.56 112.968 282.787 112.615 283.041 112.742C283.281 112.855 283.861 112.855 284.61 112.855H286.164C286.631 112.841 286.786 112.77 286.97 112.77C287.21 112.77 287.535 113.024 287.535 113.208C287.535 113.335 287.493 113.519 287.493 113.901V115.809C287.493 116.049 287.21 116.374 286.899 116.374H284.158V118.226C284.158 118.438 284.256 118.551 284.468 118.551C286.122 118.551 287.762 118.324 289.401 117.971V113.562C289.401 112.926 289.147 112.742 288.454 112.558C288.2 112.487 288.327 112.007 288.624 112.049L290.122 112.247C290.419 112.29 290.39 112.459 290.39 112.558C290.39 112.671 290.334 112.911 290.334 113.307ZM290.334 120.656C290.136 121.137 289.896 121.603 289.613 122.042C291.04 122.847 292.312 123.511 293.471 124.034C293.655 124.19 293.895 124.6 293.895 124.925C293.895 125.151 293.655 125.363 293.401 125.165C292.539 124.529 291.125 123.695 289.161 122.649C288.242 123.723 286.899 124.628 284.949 125.278C284.652 125.377 284.341 124.953 284.61 124.84C286.603 123.992 288.087 122.776 289.034 121.236C289.118 120.854 288.864 120.572 288.27 120.402C288.016 120.331 288.129 119.823 288.468 119.893L290.108 120.261C290.39 120.317 290.376 120.558 290.334 120.656ZM297.378 122.861C297.378 121.08 298.989 120.416 300.953 120.416C302.904 120.416 304.529 121.08 304.529 122.861C304.529 124.642 302.904 125.292 300.953 125.292C298.989 125.292 297.378 124.642 297.378 122.861ZM304.006 116.798H301.377V118.551H306.253C306.508 118.551 306.621 118.494 306.748 118.494C306.918 118.494 306.988 118.593 306.988 118.763C306.988 119.045 306.663 119.328 306.253 119.328H296.784C296.346 119.328 296.049 119.399 295.823 119.399C295.583 119.399 295.272 119.243 294.947 118.89C294.735 118.664 294.961 118.31 295.215 118.438C295.456 118.551 296.035 118.551 296.784 118.551H300.402V116.798H298.311C297.689 116.798 297.364 116.388 297.364 115.823V113.731C297.364 113.251 297.222 113.095 296.615 113.01C296.304 112.968 296.431 112.459 296.657 112.459H303.823C304.077 112.459 304.19 112.403 304.317 112.403C304.43 112.403 304.557 112.544 304.557 112.671C304.557 112.911 304.133 113.236 303.823 113.236H298.339V115.696C298.339 115.908 298.438 116.021 298.65 116.021H304.006C304.261 116.021 304.374 115.964 304.501 115.964C304.614 115.964 304.741 116.106 304.741 116.233C304.741 116.473 304.317 116.798 304.006 116.798ZM298.395 122.875C298.395 124.091 299.554 124.529 300.953 124.529C302.395 124.529 303.526 124.091 303.526 122.875C303.526 121.632 302.395 121.179 300.953 121.179C299.554 121.179 298.395 121.632 298.395 122.875ZM308.068 116.007C308.068 113.745 309.496 112.926 311.248 112.926C313.001 112.926 314.442 113.745 314.442 116.007C314.442 118.24 313.001 119.059 311.248 119.059C309.496 119.059 308.068 118.24 308.068 116.007ZM309.086 116.021C309.086 117.703 310.061 118.296 311.248 118.296C312.435 118.296 313.439 117.703 313.439 116.021C313.439 114.282 312.435 113.689 311.248 113.689C310.061 113.689 309.086 114.282 309.086 116.021ZM317.665 113.01V115.894H319.149C319.417 115.894 319.516 115.837 319.643 115.837C319.756 115.837 319.884 115.978 319.884 116.106C319.884 116.332 319.46 116.671 319.149 116.671H317.665V120.487C317.665 121.038 317.481 121.561 317.043 121.561C316.831 121.561 316.689 121.349 316.689 120.84V113.279C316.689 112.615 316.407 112.431 315.686 112.247C315.417 112.176 315.559 111.682 315.856 111.724L317.453 111.95C317.749 111.993 317.721 112.162 317.721 112.261C317.721 112.374 317.665 112.615 317.665 113.01ZM310.923 123.978V122.14C310.923 121.519 310.725 121.406 310.004 121.222C309.736 121.151 309.821 120.656 310.16 120.699L311.686 120.868C311.969 120.911 311.941 121.08 311.941 121.179C311.941 121.307 311.898 121.49 311.898 121.872V123.851C311.898 124.063 311.997 124.176 312.209 124.176H317.523C317.792 124.176 317.961 124.105 318.089 124.105C318.202 124.105 318.329 124.246 318.329 124.374C318.329 124.614 317.862 124.953 317.523 124.953H311.87C311.248 124.953 310.923 124.543 310.923 123.978ZM326.79 124.133V121.731C326.79 121.236 326.733 121.109 326.182 121.01C325.871 120.967 325.998 120.459 326.225 120.459H329.814V117.943H326.196C325.758 117.943 325.461 118.014 325.235 118.014C324.995 118.014 324.684 117.858 324.359 117.505C324.147 117.279 324.373 116.925 324.628 117.052C324.868 117.166 325.447 117.166 326.196 117.166H327.68C328.076 115.908 328.345 114.579 328.528 113.236H327.341C326.903 113.236 326.606 113.307 326.38 113.307C326.14 113.307 325.829 113.152 325.504 112.798C325.292 112.572 325.518 112.219 325.772 112.346C326.013 112.459 326.592 112.459 327.341 112.459H328.118C328.712 112.459 328.924 112.374 329.122 112.374C329.362 112.374 329.673 112.629 329.673 112.812C329.673 112.94 329.659 113.095 329.645 113.364C329.39 114.72 328.966 115.992 328.345 117.166H333.164C333.461 115.908 333.659 114.579 333.744 113.236H331.934C331.496 113.236 331.2 113.307 330.973 113.307C330.733 113.307 330.422 113.152 330.097 112.798C329.885 112.572 330.111 112.219 330.366 112.346C330.606 112.459 331.185 112.459 331.934 112.459H333.334C333.927 112.459 334.139 112.374 334.337 112.374C334.577 112.374 334.888 112.629 334.888 112.812C334.888 112.94 334.874 113.081 334.86 113.364C334.719 114.678 334.351 115.95 333.814 117.166H335.666C335.92 117.166 336.033 117.109 336.16 117.109C336.33 117.109 336.401 117.208 336.401 117.378C336.401 117.66 336.076 117.943 335.666 117.943H330.79V120.459H332.429C333.037 120.459 333.206 120.374 333.418 120.374C333.659 120.374 333.984 120.628 333.984 120.812C333.984 120.939 333.941 121.123 333.941 121.504V124.515V124.543C333.941 124.783 333.673 125.108 333.348 125.108H327.737C327.115 125.108 326.79 124.699 326.79 124.133ZM328.076 124.331H332.966V121.236H327.765V124.006C327.765 124.218 327.864 124.331 328.076 124.331ZM339.318 114.24C339.318 112.502 340.971 111.866 343.035 111.866C345.112 111.866 346.78 112.502 346.78 114.24C346.78 115.978 345.112 116.6 343.035 116.6C340.971 116.6 339.318 115.978 339.318 114.24ZM346.271 119.695C346.511 119.695 346.837 119.95 346.837 120.134C346.837 120.261 346.794 120.444 346.794 120.826V122.211V122.239C346.794 122.466 346.596 122.791 346.271 122.791H340.491V124.006C340.491 124.218 340.59 124.331 340.802 124.331H346.568C346.837 124.331 347.006 124.26 347.133 124.26C347.246 124.26 347.374 124.402 347.374 124.529C347.374 124.755 346.907 125.094 346.568 125.094H340.462C339.841 125.094 339.515 124.684 339.515 124.119V123.215C339.515 122.776 339.473 122.635 338.908 122.564C338.597 122.522 338.71 122.027 338.95 122.027H345.819V120.543H340.886C340.448 120.543 340.151 120.614 339.925 120.614C339.685 120.614 339.374 120.459 339.049 120.105C338.823 119.879 339.063 119.554 339.318 119.667C339.558 119.78 340.137 119.78 340.886 119.78H345.282C345.89 119.78 346.059 119.695 346.271 119.695ZM340.321 114.254C340.321 115.427 341.565 115.837 343.035 115.837C344.547 115.837 345.791 115.427 345.791 114.254C345.791 113.053 344.547 112.629 343.035 112.629C341.565 112.629 340.321 113.053 340.321 114.254ZM337.085 117.971C336.873 117.745 337.099 117.392 337.353 117.519C337.593 117.632 338.173 117.632 338.922 117.632H348.391C348.646 117.632 348.759 117.575 348.886 117.575C349.055 117.575 349.126 117.674 349.126 117.844C349.126 118.127 348.801 118.409 348.391 118.409H338.922C338.484 118.409 338.187 118.48 337.961 118.48C337.721 118.48 337.41 118.324 337.085 117.971ZM363.693 114.268C363.495 116.77 363.029 119.088 362.322 121.264H365.078C365.332 121.264 365.445 121.208 365.573 121.208C365.742 121.208 365.813 121.307 365.813 121.476C365.813 121.759 365.488 122.042 365.078 122.042H355.609C355.17 122.042 354.874 122.112 354.648 122.112C354.407 122.112 354.096 121.957 353.771 121.603C353.559 121.377 353.785 121.024 354.04 121.151C354.28 121.264 354.86 121.264 355.609 121.264H361.7C362.152 118.946 362.421 116.515 362.548 114H357.206C356.768 114 356.471 114.07 356.245 114.07C356.004 114.07 355.693 113.915 355.368 113.562C355.156 113.335 355.382 112.982 355.637 113.109C355.877 113.222 356.457 113.222 357.206 113.222H362.138C362.732 113.222 362.972 113.138 363.17 113.138C363.41 113.138 363.735 113.392 363.735 113.576C363.735 113.703 363.707 113.887 363.693 114.268ZM372.56 117.66H368.928V120.218C368.928 120.43 369.027 120.543 369.239 120.543C371.641 120.543 373.846 120.317 376.221 119.71V113.279C376.221 112.615 375.938 112.431 375.217 112.247C374.949 112.176 375.09 111.682 375.387 111.724L376.984 111.95C377.281 111.993 377.252 112.162 377.252 112.261C377.252 112.374 377.196 112.615 377.196 113.01V123.568C377.196 124.119 377.012 124.642 376.574 124.642C376.362 124.642 376.221 124.43 376.221 123.921V120.303C373.804 121.024 371.472 121.349 368.899 121.391C368.278 121.406 367.953 120.982 367.953 120.416V118.155C367.953 117.674 367.811 117.519 367.203 117.434C366.893 117.392 367.02 116.883 367.246 116.883H372.178V114.198H369.366C368.928 114.198 368.631 114.268 368.405 114.268C368.165 114.268 367.854 114.113 367.529 113.759C367.317 113.533 367.543 113.18 367.797 113.307C368.037 113.42 368.617 113.42 369.366 113.42H371.641C372.235 113.42 372.433 113.335 372.631 113.335C372.871 113.335 373.196 113.59 373.196 113.774C373.196 113.901 373.154 114.084 373.154 114.466V117.067V117.095C373.154 117.335 372.871 117.66 372.56 117.66ZM388.324 117.081H382.53C381.908 117.081 381.583 116.671 381.583 116.106V113.929C381.583 113.364 381.427 113.236 380.706 113.053C380.438 112.982 380.523 112.487 380.862 112.53L382.346 112.685C382.628 112.714 382.6 112.897 382.6 112.996C382.6 113.123 382.558 113.307 382.558 113.689V115.978C382.558 116.19 382.657 116.303 382.869 116.303H388.324C388.579 116.303 388.692 116.247 388.819 116.247C388.932 116.247 389.059 116.388 389.059 116.515C389.059 116.756 388.635 117.081 388.324 117.081ZM379.222 119.257C379.01 119.031 379.236 118.678 379.491 118.805C379.731 118.918 380.311 118.918 381.06 118.918H390.529C390.783 118.918 390.896 118.862 391.024 118.862C391.193 118.862 391.264 118.96 391.264 119.13C391.264 119.413 390.939 119.695 390.529 119.695H381.06C380.622 119.695 380.325 119.766 380.099 119.766C379.858 119.766 379.547 119.611 379.222 119.257ZM381.894 123.978V122.48C381.894 121.858 381.696 121.745 380.975 121.561C380.706 121.49 380.791 120.996 381.13 121.038L382.657 121.208C382.939 121.25 382.911 121.42 382.911 121.519C382.911 121.646 382.869 121.83 382.869 122.211V123.851C382.869 124.063 382.968 124.176 383.18 124.176H388.635C388.904 124.176 389.073 124.105 389.2 124.105C389.314 124.105 389.441 124.246 389.441 124.374C389.441 124.614 388.974 124.953 388.635 124.953H382.84C382.219 124.953 381.894 124.543 381.894 123.978ZM407.385 117.491H405.901V123.568C405.901 124.119 405.718 124.642 405.279 124.642C405.067 124.642 404.926 124.43 404.926 123.921V113.279C404.926 112.615 404.643 112.431 403.923 112.247C403.654 112.176 403.795 111.682 404.092 111.724L405.689 111.95C405.986 111.993 405.958 112.162 405.958 112.261C405.958 112.374 405.901 112.615 405.901 113.01V116.713H407.385C407.654 116.713 407.753 116.657 407.88 116.657C407.993 116.657 408.12 116.798 408.12 116.925C408.12 117.151 407.696 117.491 407.385 117.491ZM403.06 120.43C403.018 120.642 402.75 120.826 402.538 120.6C401.647 119.554 400.446 118.423 399.301 117.448C398.566 118.819 397.591 120.006 396.361 120.953C396.135 121.151 395.768 120.812 395.951 120.586C397.704 118.777 398.934 116.6 399.485 114.226C399.485 113.788 399.202 113.59 398.58 113.364C398.326 113.251 398.439 112.784 398.778 112.855L400.418 113.236C400.7 113.293 400.658 113.533 400.644 113.632C400.418 114.735 400.092 115.78 399.654 116.727C400.63 117.646 401.76 118.635 402.792 119.441C402.947 119.611 403.103 120.091 403.06 120.43ZM417.948 125.094H412.549C411.928 125.094 411.603 124.684 411.603 124.119V121.9C411.603 121.406 411.546 121.278 410.995 121.179C410.684 121.137 410.811 120.628 411.037 120.628H417.199C417.666 120.614 417.821 120.543 418.019 120.543C418.259 120.543 418.584 120.798 418.584 120.982C418.584 121.109 418.542 121.292 418.542 121.674V124.529C418.542 124.769 418.273 125.094 417.948 125.094ZM418.627 113.01V115.667H420.111C420.379 115.667 420.478 115.611 420.605 115.611C420.719 115.611 420.846 115.752 420.846 115.879C420.846 116.106 420.422 116.445 420.111 116.445H418.627V118.833C418.627 119.384 418.443 119.907 418.005 119.907C417.793 119.907 417.652 119.695 417.652 119.187V118.028C414.995 118.791 412.691 119.172 410.543 119.201C409.921 119.215 409.596 118.791 409.596 118.226V116.812C409.596 116.332 409.454 116.176 408.847 116.091C408.536 116.049 408.663 115.54 408.889 115.54H414.132V113.703H411.009C410.571 113.703 410.274 113.774 410.048 113.774C409.808 113.774 409.497 113.618 409.172 113.265C408.96 113.039 409.186 112.685 409.44 112.812C409.68 112.926 410.26 112.926 411.009 112.926H413.595C414.189 112.926 414.387 112.841 414.585 112.841C414.825 112.841 415.15 113.095 415.15 113.279C415.15 113.406 415.108 113.59 415.108 113.971V115.752C415.108 115.992 414.825 116.318 414.514 116.318H410.571V118.028C410.571 118.24 410.67 118.353 410.882 118.353C412.86 118.395 414.98 118.098 417.652 117.434V113.279C417.652 112.615 417.369 112.431 416.648 112.247C416.38 112.176 416.521 111.682 416.818 111.724L418.415 111.95C418.712 111.993 418.683 112.162 418.683 112.261C418.683 112.374 418.627 112.615 418.627 113.01ZM412.578 123.992C412.578 124.204 412.677 124.317 412.889 124.317H417.567V121.406H412.578V123.992ZM423.593 114.876C423.593 112.94 425.247 112.233 427.31 112.233C429.388 112.233 431.056 112.94 431.056 114.876C431.056 116.798 429.388 117.491 427.31 117.491C425.247 117.491 423.593 116.798 423.593 114.876ZM424.597 114.89C424.597 116.247 425.84 116.727 427.31 116.727C428.822 116.727 430.066 116.247 430.066 114.89C430.066 113.491 428.822 112.996 427.31 112.996C425.84 112.996 424.597 113.491 424.597 114.89ZM421.36 119.286C421.148 119.059 421.374 118.706 421.629 118.833C421.869 118.946 422.448 118.946 423.197 118.946H432.667C432.921 118.946 433.034 118.89 433.161 118.89C433.331 118.89 433.402 118.989 433.402 119.158C433.402 119.441 433.077 119.724 432.667 119.724H423.197C422.759 119.724 422.462 119.794 422.236 119.794C421.996 119.794 421.685 119.639 421.36 119.286ZM424.031 123.978V122.423C424.031 121.801 423.833 121.688 423.113 121.504C422.844 121.434 422.929 120.939 423.268 120.982L424.794 121.151C425.077 121.194 425.049 121.363 425.049 121.462C425.049 121.589 425.006 121.773 425.006 122.155V123.851C425.006 124.063 425.105 124.176 425.317 124.176H430.773C431.041 124.176 431.211 124.105 431.338 124.105C431.451 124.105 431.578 124.246 431.578 124.374C431.578 124.614 431.112 124.953 430.773 124.953H424.978C424.356 124.953 424.031 124.543 424.031 123.978ZM444.039 120.628H439.7C439.079 120.628 438.753 120.218 438.753 119.653V114.975C438.753 114.48 438.697 114.353 438.146 114.254C437.835 114.212 437.962 113.703 438.188 113.703H443.29C443.757 113.689 443.912 113.618 444.11 113.618C444.35 113.618 444.675 113.872 444.675 114.056C444.675 114.183 444.633 114.367 444.633 114.749V120.063C444.633 120.303 444.364 120.628 444.039 120.628ZM439.729 119.526C439.729 119.738 439.828 119.851 440.04 119.851H443.658V114.48H439.729V119.526ZM449.523 117.632H448.039V123.568C448.039 124.119 447.855 124.642 447.417 124.642C447.205 124.642 447.064 124.43 447.064 123.921V113.279C447.064 112.615 446.781 112.431 446.06 112.247C445.792 112.176 445.933 111.682 446.23 111.724L447.827 111.95C448.124 111.993 448.096 112.162 448.096 112.261C448.096 112.374 448.039 112.615 448.039 113.01V116.855H449.523C449.792 116.855 449.891 116.798 450.018 116.798C450.131 116.798 450.258 116.939 450.258 117.067C450.258 117.293 449.834 117.632 449.523 117.632ZM460.793 125.094H455.253C454.631 125.094 454.306 124.684 454.306 124.119V121.9C454.306 121.406 454.249 121.278 453.698 121.179C453.387 121.137 453.514 120.628 453.74 120.628H459.874C460.482 120.628 460.652 120.543 460.864 120.543C461.104 120.543 461.429 120.798 461.429 120.982C461.429 121.109 461.386 121.292 461.386 121.674V124.501V124.529C461.386 124.769 461.118 125.094 460.793 125.094ZM455.281 123.992C455.281 124.204 455.38 124.317 455.592 124.317H460.411V121.406H455.281V123.992ZM458.659 119.229C458.63 119.427 458.362 119.611 458.136 119.399C457.457 118.791 456.539 118.112 455.408 117.335C454.39 118.197 453.133 118.918 451.663 119.498C451.394 119.611 451.083 119.187 451.338 119.059C453.613 117.943 455.295 116.53 456.355 114.777H453.627C453.189 114.777 452.892 114.848 452.666 114.848C452.426 114.848 452.115 114.692 451.79 114.339C451.578 114.113 451.804 113.759 452.058 113.887C452.299 114 452.878 114 453.627 114H456.044C456.638 114 456.864 113.915 457.062 113.915C457.302 113.915 457.627 114.198 457.627 114.353C457.627 114.508 457.5 114.777 457.358 115.031C456.977 115.682 456.525 116.275 455.973 116.826C456.821 117.42 457.627 117.929 458.404 118.353C458.56 118.522 458.687 118.904 458.659 119.229ZM461.471 113.01V118.833C461.471 119.384 461.288 119.907 460.849 119.907C460.637 119.907 460.496 119.695 460.496 119.187V113.279C460.496 112.615 460.213 112.431 459.493 112.247C459.224 112.176 459.365 111.682 459.662 111.724L461.259 111.95C461.556 111.993 461.528 112.162 461.528 112.261C461.528 112.374 461.471 112.615 461.471 113.01ZM454.843 113.067C454.15 113.067 453.627 113.081 453.034 112.53C452.808 112.318 453.034 111.936 453.302 112.049C453.542 112.162 453.896 112.233 454.843 112.233H456.341C456.454 112.233 456.567 112.403 456.567 112.558C456.567 112.798 456.016 113.067 454.843 113.067ZM471.469 113.307V116.699H473.575V113.279C473.575 112.615 473.292 112.431 472.571 112.247C472.303 112.176 472.444 111.682 472.741 111.724L474.31 111.95C474.607 111.993 474.578 112.162 474.578 112.261C474.578 112.374 474.522 112.615 474.522 113.01V123.582C474.522 124.133 474.324 124.628 473.914 124.628C473.73 124.628 473.575 124.416 473.575 123.921V117.462H471.469V123.031C471.469 123.582 471.271 124.077 470.875 124.077C470.692 124.077 470.536 123.865 470.536 123.37V120.035C468.84 120.6 467.229 120.854 465.363 120.854C464.742 120.854 464.416 120.444 464.416 119.879V115.088C464.416 114.622 464.402 114.41 463.682 114.226C463.427 114.155 463.498 113.675 463.837 113.717L465.166 113.858C465.448 113.901 465.42 114.07 465.42 114.169C465.42 114.296 465.378 114.48 465.378 114.862V119.681C465.378 119.893 465.476 120.006 465.688 120.006C467.441 120.006 468.911 119.879 470.536 119.441V113.562C470.536 112.926 470.282 112.742 469.589 112.558C469.335 112.487 469.462 112.007 469.759 112.049L471.257 112.247C471.554 112.29 471.526 112.459 471.526 112.558C471.526 112.671 471.469 112.911 471.469 113.307ZM490.106 114.268C489.908 116.77 489.442 119.088 488.735 121.264H491.491C491.746 121.264 491.859 121.208 491.986 121.208C492.155 121.208 492.226 121.307 492.226 121.476C492.226 121.759 491.901 122.042 491.491 122.042H482.022C481.584 122.042 481.287 122.112 481.061 122.112C480.821 122.112 480.51 121.957 480.185 121.603C479.973 121.377 480.199 121.024 480.453 121.151C480.693 121.264 481.273 121.264 482.022 121.264H488.113C488.566 118.946 488.834 116.515 488.961 114H483.619C483.181 114 482.884 114.07 482.658 114.07C482.418 114.07 482.107 113.915 481.782 113.562C481.57 113.335 481.796 112.982 482.05 113.109C482.29 113.222 482.87 113.222 483.619 113.222H488.551C489.145 113.222 489.385 113.138 489.583 113.138C489.823 113.138 490.149 113.392 490.149 113.576C490.149 113.703 490.12 113.887 490.106 114.268ZM499.302 124.133V121.731C499.302 121.236 499.246 121.109 498.694 121.01C498.384 120.967 498.511 120.459 498.737 120.459H502.327V117.943H498.709C498.27 117.943 497.974 118.014 497.748 118.014C497.507 118.014 497.196 117.858 496.871 117.505C496.659 117.279 496.885 116.925 497.14 117.052C497.38 117.166 497.96 117.166 498.709 117.166H500.193C500.588 115.908 500.857 114.579 501.041 113.236H499.853C499.415 113.236 499.118 113.307 498.892 113.307C498.652 113.307 498.341 113.152 498.016 112.798C497.804 112.572 498.03 112.219 498.285 112.346C498.525 112.459 499.104 112.459 499.853 112.459H500.631C501.224 112.459 501.436 112.374 501.634 112.374C501.874 112.374 502.185 112.629 502.185 112.812C502.185 112.94 502.171 113.095 502.157 113.364C501.903 114.72 501.479 115.992 500.857 117.166H505.676C505.973 115.908 506.171 114.579 506.256 113.236H504.447C504.009 113.236 503.712 113.307 503.486 113.307C503.245 113.307 502.934 113.152 502.609 112.798C502.397 112.572 502.624 112.219 502.878 112.346C503.118 112.459 503.698 112.459 504.447 112.459H505.846C506.44 112.459 506.652 112.374 506.849 112.374C507.09 112.374 507.401 112.629 507.401 112.812C507.401 112.94 507.386 113.081 507.372 113.364C507.231 114.678 506.864 115.95 506.326 117.166H508.178C508.432 117.166 508.545 117.109 508.673 117.109C508.842 117.109 508.913 117.208 508.913 117.378C508.913 117.66 508.588 117.943 508.178 117.943H503.302V120.459H504.941C505.549 120.459 505.719 120.374 505.931 120.374C506.171 120.374 506.496 120.628 506.496 120.812C506.496 120.939 506.454 121.123 506.454 121.504V124.515V124.543C506.454 124.783 506.185 125.108 505.86 125.108H500.249C499.627 125.108 499.302 124.699 499.302 124.133ZM500.588 124.331H505.478V121.236H500.277V124.006C500.277 124.218 500.376 124.331 500.588 124.331ZM511.83 114.24C511.83 112.502 513.483 111.866 515.547 111.866C517.625 111.866 519.292 112.502 519.292 114.24C519.292 115.978 517.625 116.6 515.547 116.6C513.483 116.6 511.83 115.978 511.83 114.24ZM518.783 119.695C519.024 119.695 519.349 119.95 519.349 120.134C519.349 120.261 519.306 120.444 519.306 120.826V122.211V122.239C519.306 122.466 519.109 122.791 518.783 122.791H513.003V124.006C513.003 124.218 513.102 124.331 513.314 124.331H519.08C519.349 124.331 519.518 124.26 519.646 124.26C519.759 124.26 519.886 124.402 519.886 124.529C519.886 124.755 519.419 125.094 519.08 125.094H512.975C512.353 125.094 512.028 124.684 512.028 124.119V123.215C512.028 122.776 511.985 122.635 511.42 122.564C511.109 122.522 511.222 122.027 511.462 122.027H518.331V120.543H513.399C512.961 120.543 512.664 120.614 512.438 120.614C512.197 120.614 511.886 120.459 511.561 120.105C511.335 119.879 511.575 119.554 511.83 119.667C512.07 119.78 512.65 119.78 513.399 119.78H517.794C518.402 119.78 518.571 119.695 518.783 119.695ZM512.833 114.254C512.833 115.427 514.077 115.837 515.547 115.837C517.059 115.837 518.303 115.427 518.303 114.254C518.303 113.053 517.059 112.629 515.547 112.629C514.077 112.629 512.833 113.053 512.833 114.254ZM509.597 117.971C509.385 117.745 509.611 117.392 509.865 117.519C510.106 117.632 510.685 117.632 511.434 117.632H520.903C521.158 117.632 521.271 117.575 521.398 117.575C521.568 117.575 521.638 117.674 521.638 117.844C521.638 118.127 521.313 118.409 520.903 118.409H511.434C510.996 118.409 510.699 118.48 510.473 118.48C510.233 118.48 509.922 118.324 509.597 117.971ZM536.276 113.01V115.173H537.76C538.028 115.173 538.127 115.116 538.254 115.116C538.368 115.116 538.495 115.258 538.495 115.385C538.495 115.611 538.071 115.95 537.76 115.95H536.276V117.9C536.276 118.452 536.092 118.975 535.654 118.975C535.442 118.975 535.301 118.763 535.301 118.254V116.897C532.644 117.66 530.227 118.042 528.078 118.07C527.457 118.084 527.132 117.66 527.132 117.095V114.169C527.132 113.675 526.99 113.547 526.382 113.448C526.072 113.406 526.199 112.897 526.425 112.897H532.22C532.488 112.897 532.587 112.841 532.714 112.841C532.827 112.841 532.954 112.982 532.954 113.109C532.954 113.335 532.53 113.675 532.22 113.675H528.107V116.897C528.107 117.109 528.206 117.222 528.418 117.222C530.396 117.264 532.629 116.968 535.301 116.303V113.279C535.301 112.615 535.018 112.431 534.297 112.247C534.029 112.176 534.17 111.682 534.467 111.724L536.064 111.95C536.361 111.993 536.332 112.162 536.332 112.261C536.332 112.374 536.276 112.615 536.276 113.01ZM535.682 125.094H533.463C532.841 125.094 532.516 124.684 532.516 124.119V120.713C532.516 120.261 532.432 120.134 532.05 120.063C531.739 120.02 531.852 119.582 532.092 119.582H534.778C535.385 119.582 535.541 119.498 535.753 119.498C535.993 119.498 536.318 119.752 536.318 119.936C536.318 120.063 536.276 120.247 536.276 120.628V124.529C536.276 124.769 536.007 125.094 535.682 125.094ZM531.004 119.498C531.244 119.498 531.569 119.752 531.569 119.936C531.569 120.063 531.527 120.247 531.527 120.628V122.14C531.527 122.381 531.329 122.692 531.004 122.692H529.11V124.006C529.11 124.218 529.209 124.331 529.421 124.331C530.142 124.331 530.877 124.303 531.541 124.232C531.81 124.19 531.866 124.147 531.993 124.133C532.106 124.133 532.248 124.26 532.248 124.388C532.262 124.628 531.923 124.868 531.598 124.925C530.948 125.038 530.114 125.094 529.11 125.094C528.488 125.094 528.163 124.684 528.163 124.119V123.073C528.163 122.663 528.135 122.494 527.626 122.423C527.315 122.381 527.428 121.928 527.669 121.928H530.58V120.346H529.534C529.096 120.346 528.799 120.402 528.573 120.402C528.333 120.402 528.022 120.261 527.697 119.907C527.471 119.681 527.711 119.356 527.965 119.469C528.206 119.582 528.785 119.582 529.534 119.582H530.213C530.679 119.568 530.806 119.498 531.004 119.498ZM533.463 123.992C533.463 124.204 533.562 124.317 533.774 124.317H535.329V120.36H533.463V123.992ZM539.405 117.123C539.405 114.452 540.861 113.448 542.641 113.448C544.408 113.448 545.878 114.452 545.878 117.123C545.878 119.794 544.408 120.77 542.641 120.77C540.861 120.77 539.405 119.794 539.405 117.123ZM540.422 117.137C540.422 119.257 541.44 120.006 542.641 120.006C543.871 120.006 544.86 119.257 544.86 117.137C544.86 114.989 543.871 114.212 542.641 114.212C541.44 114.212 540.422 114.989 540.422 117.137ZM550.485 117.632H549.001V123.568C549.001 124.119 548.818 124.642 548.379 124.642C548.167 124.642 548.026 124.43 548.026 123.921V113.279C548.026 112.615 547.743 112.431 547.023 112.247C546.754 112.176 546.895 111.682 547.192 111.724L548.789 111.95C549.086 111.993 549.058 112.162 549.058 112.261C549.058 112.374 549.001 112.615 549.001 113.01V116.855H550.485C550.754 116.855 550.853 116.798 550.98 116.798C551.093 116.798 551.22 116.939 551.22 117.067C551.22 117.293 550.796 117.632 550.485 117.632ZM269.623 140.455C272.308 139.183 274.089 137.332 274.965 134.887H272.125C271.686 134.887 271.39 134.957 271.163 134.957C270.923 134.957 270.612 134.802 270.287 134.448C270.075 134.222 270.301 133.869 270.556 133.996C270.796 134.109 271.375 134.109 272.125 134.109H274.584C275.177 134.109 275.432 134.024 275.63 134.024C275.87 134.024 276.195 134.279 276.195 134.463C276.195 134.618 276.082 134.844 275.983 135.141C275.05 137.798 273.043 139.777 269.92 140.922C269.637 141.02 269.354 140.582 269.623 140.455ZM279.488 134.01V137.176H280.972C281.226 137.176 281.339 137.12 281.467 137.12C281.58 137.12 281.707 137.261 281.707 137.388C281.707 137.628 281.283 137.954 280.972 137.954H279.488V141.346C279.488 141.897 279.29 142.42 278.866 142.42C278.668 142.42 278.513 142.208 278.513 141.699V134.279C278.513 133.629 278.216 133.431 277.509 133.247C277.241 133.176 277.368 132.682 277.679 132.724L279.276 132.95C279.573 132.993 279.545 133.162 279.545 133.261C279.545 133.374 279.488 133.615 279.488 134.01ZM272.746 144.978V142.999C272.746 142.391 272.549 142.264 271.828 142.08C271.559 142.01 271.644 141.515 271.983 141.558L273.51 141.727C273.792 141.755 273.764 141.939 273.764 142.038C273.764 142.165 273.722 142.349 273.722 142.731V144.851C273.722 145.063 273.821 145.176 274.033 145.176H279.347C279.615 145.176 279.785 145.105 279.912 145.105C280.025 145.105 280.152 145.246 280.152 145.374C280.152 145.614 279.672 145.953 279.347 145.953H273.693C273.071 145.953 272.746 145.543 272.746 144.978ZM284.044 140.596C284.044 140.808 284.143 140.922 284.355 140.922C286.334 140.964 288.567 140.667 291.238 140.003V134.279C291.238 133.615 290.956 133.431 290.235 133.247C289.966 133.176 290.108 132.682 290.404 132.724L292.002 132.95C292.298 132.993 292.27 133.162 292.27 133.261C292.27 133.374 292.214 133.615 292.214 134.01V137.855H293.698C293.966 137.855 294.065 137.798 294.192 137.798C294.305 137.798 294.432 137.939 294.432 138.067C294.432 138.293 294.008 138.632 293.698 138.632H292.214V144.568C292.214 145.119 292.03 145.642 291.592 145.642C291.38 145.642 291.238 145.43 291.238 144.921V140.596C288.581 141.36 286.164 141.741 284.016 141.77C283.394 141.784 283.069 141.36 283.069 140.794V135.975C283.069 135.48 282.928 135.353 282.32 135.254C282.009 135.212 282.136 134.703 282.363 134.703H288.157C288.426 134.703 288.525 134.646 288.652 134.646C288.765 134.646 288.892 134.788 288.892 134.915C288.892 135.141 288.468 135.48 288.157 135.48H284.044V140.596ZM296.275 144.483C295.823 144.483 295.47 144.13 295.47 143.706C295.47 143.254 295.837 142.914 296.275 142.914C296.713 142.914 297.095 143.239 297.095 143.706C297.095 144.144 296.742 144.483 296.275 144.483Z" fill="#2B2B2B"/>
<path d="M488.545 173.292H485.81C485.662 173.292 485.587 173.218 485.587 173.07V172.879C485.587 172.73 485.662 172.656 485.81 172.656H488.545C488.693 172.656 488.767 172.73 488.767 172.879V173.07C488.767 173.218 488.693 173.292 488.545 173.292ZM495.241 176.25C495.241 174.808 496.428 174.278 497.881 174.278C499.322 174.278 500.52 174.808 500.52 176.25C500.52 177.691 499.322 178.211 497.881 178.211C496.428 178.211 495.241 177.691 495.241 176.25ZM493.291 171.087C493.291 169.519 494.361 168.936 495.676 168.936C496.99 168.936 498.071 169.519 498.071 171.087C498.071 172.646 496.99 173.207 495.676 173.207C494.361 173.207 493.291 172.646 493.291 171.087ZM496.004 176.26C496.004 177.267 496.863 177.638 497.881 177.638C498.93 177.638 499.767 177.267 499.767 176.26C499.767 175.232 498.93 174.85 497.881 174.85C496.863 174.85 496.004 175.232 496.004 176.26ZM494.054 171.098C494.054 172.243 494.785 172.635 495.676 172.635C496.566 172.635 497.319 172.243 497.319 171.098C497.319 169.911 496.566 169.508 495.676 169.508C494.785 169.508 494.054 169.911 494.054 171.098ZM500.488 168.999V170.886H501.601C501.803 170.886 501.877 170.844 501.972 170.844C502.057 170.844 502.152 170.95 502.152 171.045C502.152 171.215 501.834 171.469 501.601 171.469H500.488V173.409C500.488 173.822 500.35 174.214 500.022 174.214C499.863 174.214 499.757 174.055 499.757 173.674V169.201C499.757 168.702 499.545 168.565 499.004 168.427C498.803 168.374 498.909 168.003 499.131 168.035L500.329 168.204C500.552 168.236 500.531 168.363 500.531 168.437C500.531 168.522 500.488 168.702 500.488 168.999ZM504.298 172.571V169.921C504.298 169.561 504.192 169.444 503.736 169.381C503.503 169.349 503.598 168.967 503.768 168.967H509.248C509.439 168.967 509.524 168.925 509.619 168.925C509.704 168.925 509.799 169.031 509.799 169.126C509.799 169.307 509.481 169.55 509.248 169.55H505.029V172.476C505.029 172.635 505.103 172.72 505.262 172.72H509.386C509.577 172.72 509.661 172.677 509.757 172.677C509.842 172.677 509.937 172.783 509.937 172.879C509.937 173.059 509.619 173.303 509.386 173.303H505.008C504.542 173.303 504.298 172.995 504.298 172.571ZM502.538 175.656C502.379 175.486 502.549 175.221 502.74 175.317C502.92 175.402 503.354 175.402 503.916 175.402H511.018C511.209 175.402 511.294 175.359 511.389 175.359C511.516 175.359 511.569 175.433 511.569 175.561C511.569 175.773 511.326 175.985 511.018 175.985H503.916C503.588 175.985 503.365 176.038 503.195 176.038C503.015 176.038 502.782 175.921 502.538 175.656ZM515.591 169.466C515.771 169.466 516.015 169.656 516.015 169.794C516.015 169.89 515.983 170.027 515.983 170.314V172.179V172.2C515.983 172.381 515.771 172.624 515.538 172.624H513.534V174.554C513.534 174.713 513.609 174.797 513.768 174.797C514.669 174.797 515.58 174.755 516.481 174.617C516.683 174.585 516.725 174.554 516.82 174.543C516.905 174.543 517.011 174.638 517.011 174.734C517.022 174.914 516.767 175.084 516.524 175.137C515.612 175.317 514.616 175.412 513.513 175.433C513.047 175.444 512.814 175.126 512.814 174.702V172.995C512.814 172.635 512.708 172.518 512.252 172.455C512.019 172.423 512.114 172.041 512.284 172.041H515.262V170.112H513.874C513.545 170.112 513.322 170.165 513.153 170.165C512.973 170.165 512.739 170.049 512.496 169.784C512.337 169.614 512.506 169.349 512.697 169.444C512.877 169.529 513.312 169.529 513.874 169.529H514.987C515.336 169.519 515.453 169.466 515.591 169.466ZM516.29 172.126C516.121 171.957 516.301 171.713 516.492 171.798C516.651 171.872 516.895 171.882 517.488 171.882H517.679V169.413C517.679 168.936 517.488 168.798 516.969 168.66C516.778 168.607 516.873 168.247 517.096 168.278L518.22 168.427C518.442 168.459 518.421 168.586 518.421 168.66C518.421 168.745 518.379 168.925 518.379 169.222V176.515C518.379 176.928 518.23 177.299 517.933 177.299C517.796 177.299 517.679 177.14 517.679 176.769V172.455H517.488C517.16 172.455 517.096 172.508 516.937 172.508C516.799 172.508 516.534 172.37 516.29 172.126ZM520.35 168.999V176.928C520.35 177.341 520.202 177.712 519.894 177.712C519.757 177.712 519.64 177.553 519.64 177.182V169.201C519.64 168.702 519.428 168.565 518.887 168.427C518.686 168.374 518.792 168.003 519.015 168.035L520.191 168.204C520.414 168.236 520.393 168.363 520.393 168.437C520.393 168.522 520.35 168.702 520.35 168.999ZM529.092 172.688H525.837C525.371 172.688 525.127 172.381 525.127 171.957V169.868C525.127 169.497 525.085 169.402 524.671 169.328C524.438 169.296 524.534 168.914 524.703 168.914H528.53C528.88 168.904 528.996 168.851 529.145 168.851C529.325 168.851 529.569 169.042 529.569 169.179C529.569 169.275 529.537 169.413 529.537 169.699V172.264C529.537 172.444 529.335 172.688 529.092 172.688ZM531.636 173.822C531.816 173.822 532.06 174.013 532.06 174.151C532.06 174.246 532.028 174.384 532.028 174.67V175.826C532.028 175.995 531.879 176.239 531.636 176.239H527.512V177.246C527.512 177.405 527.586 177.49 527.745 177.49H531.879C532.081 177.49 532.208 177.437 532.303 177.437C532.388 177.437 532.484 177.543 532.484 177.638C532.484 177.808 532.134 178.062 531.879 178.062H527.491C527.025 178.062 526.781 177.755 526.781 177.331V176.557C526.781 176.228 526.749 176.122 526.325 176.069C526.092 176.038 526.177 175.667 526.357 175.667H531.296V174.458H527.756C527.427 174.458 527.205 174.511 527.035 174.511C526.855 174.511 526.622 174.395 526.378 174.13C526.208 173.96 526.389 173.716 526.579 173.801C526.76 173.886 527.194 173.886 527.756 173.886H531.021C531.371 173.875 531.487 173.822 531.636 173.822ZM525.859 171.861C525.859 172.02 525.933 172.105 526.092 172.105H528.805V169.497H525.859V171.861ZM532.091 168.999V170.621H533.204C533.406 170.621 533.48 170.579 533.575 170.579C533.66 170.579 533.756 170.685 533.756 170.78C533.756 170.95 533.438 171.204 533.204 171.204H532.091V172.624C532.091 173.038 531.954 173.43 531.625 173.43C531.466 173.43 531.36 173.271 531.36 172.889V169.201C531.36 168.702 531.148 168.565 530.607 168.427C530.406 168.374 530.512 168.003 530.735 168.035L531.932 168.204C532.155 168.236 532.134 168.363 532.134 168.437C532.134 168.522 532.091 168.702 532.091 168.999ZM540.957 168.787C541.137 168.787 541.381 168.978 541.381 169.116C541.381 169.211 541.349 169.349 541.349 169.635V171.119V171.14C541.349 171.321 541.137 171.564 540.904 171.564H536.601V172.879C536.601 173.038 536.675 173.123 536.834 173.123H541.18C541.371 173.123 541.455 173.08 541.551 173.08C541.636 173.08 541.731 173.197 541.731 173.292C541.731 173.472 541.413 173.706 541.18 173.706H536.579C536.113 173.706 535.869 173.398 535.869 172.974V171.882C535.869 171.554 535.837 171.448 535.413 171.395C535.18 171.363 535.276 170.981 535.445 170.981H540.618V169.434H536.95C536.622 169.434 536.399 169.487 536.23 169.487C536.049 169.487 535.816 169.37 535.572 169.105C535.413 168.936 535.583 168.671 535.774 168.766C535.954 168.851 536.389 168.851 536.95 168.851H540.342C540.692 168.84 540.819 168.787 540.957 168.787ZM534.141 175.868C533.982 175.698 534.152 175.433 534.343 175.529C534.523 175.614 534.958 175.614 535.519 175.614H538.339V175.052C538.339 174.628 538.233 174.522 537.714 174.395C537.512 174.342 537.576 173.971 537.83 174.002L538.911 174.119C539.123 174.14 539.102 174.278 539.102 174.352C539.102 174.448 539.07 174.585 539.07 174.872V175.614H542.621C542.812 175.614 542.897 175.571 542.992 175.571C543.12 175.571 543.173 175.645 543.173 175.773C543.173 175.985 542.929 176.197 542.621 176.197H535.519C535.191 176.197 534.968 176.25 534.799 176.25C534.618 176.25 534.385 176.133 534.141 175.868ZM550.271 173.292H547.536C547.388 173.292 547.314 173.218 547.314 173.07V172.879C547.314 172.73 547.388 172.656 547.536 172.656H550.271C550.419 172.656 550.494 172.73 550.494 172.879V173.07C550.494 173.218 550.419 173.292 550.271 173.292Z" fill="#ABB8CE"/>
</g>
<defs>
<filter id="filter0_d_7071_15779" x="220.304" y="44.5586" width="389.093" height="186.684" filterUnits="userSpaceOnUse" color-interpolation-filters="sRGB">
<feFlood flood-opacity="0" result="BackgroundImageFix"/>
<feColorMatrix in="SourceAlpha" type="matrix" values="0 0 0 0 0 0 0 0 0 0 0 0 0 0 0 0 0 0 127 0" result="hardAlpha"/>
<feOffset dy="15.546"/>
<feGaussianBlur stdDeviation="5.84824"/>
<feComposite in2="hardAlpha" operator="out"/>
<feColorMatrix type="matrix" values="0 0 0 0 0 0 0 0 0 0.328214 0 0 0 0 0.635254 0 0 0 0.01 0"/>
<feBlend mode="normal" in2="BackgroundImageFix" result="effect1_dropShadow_7071_15779"/>
<feBlend mode="normal" in="SourceGraphic" in2="effect1_dropShadow_7071_15779" result="shape"/>
</filter>
<clipPath id="clip0_7071_15779">
<rect width="28.0187" height="28.0187" fill="white" transform="translate(269.942 258.947)"/>
</clipPath>
<clipPath id="clip1_7071_15779">
<rect width="28.0187" height="28.0187" fill="white" transform="translate(335.319 258.947)"/>
</clipPath>
<clipPath id="clip2_7071_15779">
<rect width="28.0187" height="28.0187" fill="white" transform="translate(466.074 258.947)"/>
</clipPath>
</defs>
</svg>
