<svg xmlns="http://www.w3.org/2000/svg" viewBox="0 0 98.4 11.2"><defs><style>.cls-1{fill:#fff;}</style></defs><title>logo_16_l</title><g id="레이어_2" data-name="레이어 2"><g id="레이어_1-2" data-name="레이어 1"><path class="cls-1" d="M10.18,0V11.2H6.59V6.47h-3V11.2H0V0H3.59V3.92h3V0Z"/><path class="cls-1" d="M15.68,2.37V4.26h4.26V6.64H15.68v2.2h4.9V11.2H12.1V0h8.48V2.37Z"/><path class="cls-1" d="M28.47,9.2H25.31l-.51,2H21.22L24.64,0h5l3,11.2H29ZM25.89,7h2.05L27,2.88Z"/><path class="cls-1" d="M37.41,8.74,39.49,0h3.59L40,11.2h-5.2L31.76,0h3.57Z"/><path class="cls-1" d="M50.5,11.2H47.09V7.09L43.07,0H47L48.8,3.67,50.58,0h3.76L50.5,7.09Z"/><path class="cls-1" d="M65.15,7.83c0,2.37-1.39,3.37-4.59,3.37H55.29V0h5.09c3,0,4.29.91,4.29,3.06a2.32,2.32,0,0,1-1.15,2.22A2.84,2.84,0,0,1,65.15,7.83Zm-6.27-3.4h1c.74,0,1.06-.36,1.06-1.2s-.32-1-1.06-1h-1Zm2.5,3.4c0-1-.4-1.36-1.36-1.36H58.88V9H60C61,9,61.38,8.64,61.38,7.83Z"/><path class="cls-1" d="M70,2.37V4.26h4.25V6.64H70v2.2h4.89V11.2H66.43V0h8.48V2.37Z"/><path class="cls-1" d="M82.8,9.2H79.65l-.51,2H75.55L79,0h5l3.06,11.2H83.28ZM80.22,7h2l-1-4.12Z"/><path class="cls-1" d="M91.6,7.23v4H88V0h5.38C96.69,0,98,1.81,98,3.7a3.12,3.12,0,0,1-2.16,3.17L98.4,11.2H94.64l-2.19-4ZM93.23,5a1.21,1.21,0,0,0,1.2-1.33,1.21,1.21,0,0,0-1.2-1.33H91.62V5Z"/></g></g></svg>