<svg xmlns="http://www.w3.org/2000/svg" viewBox="0 0 84.27 14.09"><defs><style>.cls-1{fill:#fff;}</style></defs><title>logo_16_s</title><g id="레이어_2" data-name="레이어 2"><g id="레이어_1-2" data-name="레이어 1"><path class="cls-1" d="M10.18,0V11.2H6.59V6.47h-3V11.2H0V0H3.59V3.92h3V0Z"/><path class="cls-1" d="M14.64,8c0,1.07.51,1.49,1.27,1.49A1,1,0,0,0,17,8.63h3c-.33,1.92-1.56,2.73-4.12,2.73-3.13,0-4.45-1.24-4.45-4.16S12.78,3,15.91,3s4.44,1.25,4.44,4.15V8Zm0-1.7h2.45c0-1-.4-1.42-1.25-1.42S14.66,5.44,14.66,6.32Z"/><path class="cls-1" d="M24.05,11.36C21.9,11.36,21,10.6,21,8.79s1.22-2.72,4.08-2.72H26V5.76c0-.72-.24-1-.83-1s-.84.25-.84.86h-3c0-1.79,1.19-2.56,4-2.56s4,.91,4,3.06v5.1h-2.5l-.36-.54A3.36,3.36,0,0,1,24.05,11.36Zm1.33-3.61c-.63,0-1.17.08-1.17.86,0,.55.22.71.75.71C25.79,9.32,26,8.79,26,8V7.75Z"/><path class="cls-1" d="M35.2,3.2h3.41l-1.94,8H31.5l-1.93-8H33l1.2,6.26Z"/><path class="cls-1" d="M42,11,38.61,3.2h3l1.53,4.1,1.29-4.1h3l-2.74,7.89c-.72,2.1-1.62,3-3,3h-2V12.23H40.9c.51,0,.83-.31,1.05-1Z"/><path class="cls-1" d="M58.32,7.83c0,2.37-1.39,3.37-4.59,3.37H48.46V0h5.09c3,0,4.29.91,4.29,3.06a2.32,2.32,0,0,1-1.15,2.22A2.84,2.84,0,0,1,58.32,7.83Zm-6.27-3.4h1c.74,0,1.06-.36,1.06-1.2s-.32-1-1.06-1h-1Zm2.5,3.4c0-1-.4-1.36-1.36-1.36H52.05V9h1.14C54.13,9,54.55,8.64,54.55,7.83Z"/><path class="cls-1" d="M62.14,8c0,1.07.52,1.49,1.27,1.49a1,1,0,0,0,1.09-.88h3c-.34,1.92-1.57,2.73-4.13,2.73C60.29,11.36,59,10.12,59,7.2S60.29,3,63.41,3s4.45,1.25,4.45,4.15V8Zm0-1.7h2.45c0-1-.4-1.42-1.25-1.42S62.16,5.44,62.16,6.32Z"/><path class="cls-1" d="M71.55,11.36c-2.14,0-3-.76-3-2.57s1.21-2.72,4.08-2.72h.94V5.76c0-.72-.24-1-.83-1s-.83.25-.83.86h-3C68.82,3.81,70,3,72.79,3s4,.91,4,3.06v5.1H74.26l-.37-.54A3.36,3.36,0,0,1,71.55,11.36Zm1.33-3.61c-.62,0-1.17.08-1.17.86,0,.55.23.71.75.71.84,0,1.06-.53,1.06-1.28V7.75Z"/><path class="cls-1" d="M81.41,7.2v4H78.19v-8h2.5l.41.64A2.53,2.53,0,0,1,82.91,3h1.36V5.59H82.91C81.74,5.59,81.41,5.86,81.41,7.2Z"/></g></g></svg>