<svg xmlns="http://www.w3.org/2000/svg" viewBox="0 0 94.81 15.84"><defs><style>.cls-1{fill:#fff;}</style></defs><title>logo_18_s</title><g id="레이어_2" data-name="레이어 2"><g id="레이어_1-2" data-name="레이어 1"><path class="cls-1" d="M11.45,0V12.6h-4V7.27H4V12.6H0V0H4V4.41H7.42V0Z"/><path class="cls-1" d="M16.47,9c0,1.21.58,1.68,1.42,1.68a1.09,1.09,0,0,0,1.23-1h3.42c-.38,2.16-1.77,3.07-4.65,3.07-3.51,0-5-1.4-5-4.68s1.49-4.68,5-4.68,5,1.41,5,4.66V9Zm0-1.91h2.75c0-1.11-.45-1.6-1.4-1.6S16.49,6.12,16.49,7.11Z"/><path class="cls-1" d="M27.06,12.78c-2.42,0-3.44-.86-3.44-2.89S25,6.82,28.21,6.82h1.06V6.48c0-.81-.27-1.15-.94-1.15s-.93.29-.93,1H24c0-2,1.33-2.88,4.46-2.88s4.47,1,4.47,3.44V12.6H30.1L29.68,12A3.73,3.73,0,0,1,27.06,12.78Zm1.49-4.07c-.7,0-1.32.09-1.32,1,0,.61.26.79.85.79.94,0,1.19-.59,1.19-1.44V8.71Z"/><path class="cls-1" d="M39.6,3.6h3.84l-2.18,9H35.44l-2.18-9h3.82l1.35,7Z"/><path class="cls-1" d="M47.29,12.37,43.43,3.6h3.42l1.73,4.61L50,3.6h3.42l-3.07,8.88c-.81,2.36-1.82,3.36-3.35,3.36H44.75V13.76H46c.57,0,.93-.35,1.19-1.14Z"/><path class="cls-1" d="M65.61,8.8c0,2.67-1.56,3.8-5.16,3.8H54.52V0h5.73c3.36,0,4.82,1,4.82,3.44a2.6,2.6,0,0,1-1.29,2.5A3.19,3.19,0,0,1,65.61,8.8ZM58.55,5h1.09c.82,0,1.18-.42,1.18-1.35s-.36-1.16-1.18-1.16H58.55ZM61.36,8.8c0-1.06-.45-1.53-1.53-1.53H58.55v2.85h1.28C60.9,10.12,61.36,9.72,61.36,8.8Z"/><path class="cls-1" d="M69.91,9c0,1.21.58,1.68,1.43,1.68a1.08,1.08,0,0,0,1.22-1H76c-.38,2.16-1.76,3.07-4.64,3.07-3.52,0-5-1.4-5-4.68s1.49-4.68,5-4.68,5,1.41,5,4.66V9Zm0-1.91h2.76c0-1.11-.45-1.6-1.41-1.6S69.93,6.12,69.93,7.11Z"/><path class="cls-1" d="M80.5,12.78c-2.42,0-3.44-.86-3.44-2.89s1.37-3.07,4.59-3.07h1.06V6.48c0-.81-.27-1.15-.94-1.15s-.93.29-.93,1H77.42c0-2,1.33-2.88,4.46-2.88s4.47,1,4.47,3.44V12.6H83.54L83.13,12A3.78,3.78,0,0,1,80.5,12.78ZM82,8.71c-.7,0-1.31.09-1.31,1,0,.61.25.79.84.79.94,0,1.19-.59,1.19-1.44V8.71Z"/><path class="cls-1" d="M91.58,8.1v4.5H88v-9h2.8l.47.72a2.85,2.85,0,0,1,2-.9h1.53V6.28H93.28C92,6.28,91.58,6.59,91.58,8.1Z"/></g></g></svg>