<svg xmlns="http://www.w3.org/2000/svg" viewBox="0 0 110.7 12.6"><defs><style>.cls-1{fill:#fff;}</style></defs><title>logo_18_l</title><g id="레이어_2" data-name="레이어 2"><g id="레이어_1-2" data-name="레이어 1"><path class="cls-1" d="M11.45,0V12.6h-4V7.27H4V12.6H0V0H4V4.41H7.42V0Z"/><path class="cls-1" d="M17.64,2.67V4.79h4.79V7.47H17.64V9.94h5.51V12.6H13.61V0h9.54V2.67Z"/><path class="cls-1" d="M32,10.35H28.48L27.9,12.6h-4L27.72,0h5.65l3.44,12.6H32.56ZM29.13,7.87h2.3l-1.1-4.63Z"/><path class="cls-1" d="M42.09,9.83,44.43,0h4L45,12.6H39.17L35.73,0h4Z"/><path class="cls-1" d="M56.81,12.6H53V8L48.46,0h4.42l2,4.12L56.9,0h4.23L56.81,8Z"/><path class="cls-1" d="M73.3,8.8c0,2.67-1.57,3.8-5.17,3.8H62.21V0h5.72c3.37,0,4.83,1,4.83,3.44a2.6,2.6,0,0,1-1.3,2.5A3.19,3.19,0,0,1,73.3,8.8ZM66.24,5h1.08c.83,0,1.19-.42,1.19-1.35s-.36-1.16-1.19-1.16H66.24ZM69.05,8.8c0-1.06-.45-1.53-1.53-1.53H66.24v2.85h1.28C68.58,10.12,69.05,9.72,69.05,8.8Z"/><path class="cls-1" d="M78.77,2.67V4.79h4.79V7.47H78.77V9.94h5.51V12.6H74.74V0h9.54V2.67Z"/><path class="cls-1" d="M93.15,10.35H89.6L89,12.6H85L88.85,0H94.5l3.44,12.6H93.69Zm-2.9-2.48h2.31l-1.1-4.63Z"/><path class="cls-1" d="M103.05,8.14V12.6H99V0h6c3.71,0,5.18,2,5.18,4.16a3.5,3.5,0,0,1-2.43,3.56l2.88,4.88h-4.23L104,8.14Zm1.84-2.49a1.36,1.36,0,0,0,1.35-1.49,1.36,1.36,0,0,0-1.35-1.49h-1.82v3Z"/></g></g></svg>